<?xml version="1.0" encoding="utf-8"?>
<!-- Generator: Adobe Illustrator 24.0.1, SVG Export Plug-In . SVG Version: 6.00 Build 0)  -->
<svg version="1.1" id="Capa_1" xmlns="http://www.w3.org/2000/svg" xmlns:xlink="http://www.w3.org/1999/xlink" x="0px" y="0px"
	 viewBox="0 0 327.6 100" style="enable-background:new 0 0 327.6 100;" xml:space="preserve">
<style type="text/css">
	.st0{fill:#FFFFFF;}
</style>
<path id="Trazado_56" class="st0" d="M15.7,98.4c5.4,0,9.4-1.3,11.9-3.9c2.6-2.6,3.9-6.8,3.9-12.5V58.4c0-3.1-0.6-5.4-1.9-7
	c-1.1-1.5-2.7-2.5-4.5-3c3.4-1.3,5.1-4.7,5.1-10.3V18.6c0-5.9-1.1-10.1-3.2-12.8s-5.9-4-11.3-4H0v96.6H15.7z M20.2,39.2
	c0,3.3-1.5,5-4.4,5h-4.9V12.7h4.8c1.3-0.1,2.5,0.3,3.5,1.2c0.7,0.8,1,2.2,1,4.3V39.2z M20.4,81.9c0,3.8-1.6,5.6-4.8,5.6h-4.8V53.8
	h4.9c1.3-0.1,2.6,0.3,3.6,1.2c0.7,0.8,1,2.3,1,4.4L20.4,81.9z M71.6,98.4V87.5H55.8V54.6H66v-11H55.8V12.7h15.3V1.8H44.9v96.6H71.6z
	 M118,98.4V1.8h-9.3v55.8c0,3.4,0.1,6.6,0.2,9.7l-12-65.5H84.3v96.6h9.2v-41c0-4,0-8-0.1-12c0-4-0.1-8-0.2-11.9l14.3,64.8L118,98.4z
	 M152.3,83c0,3.8-1.5,5.6-4.5,5.6s-4.5-1.9-4.5-5.6V17.1c0-3.7,1.5-5.5,4.5-5.5c1.3-0.1,2.6,0.4,3.5,1.3c0.8,1.2,1.2,2.7,1,4.2v17.1
	h9.8V17.1c0-10.9-4.8-16.4-14.3-16.4c-10.4,0-15.5,5.5-15.5,16.6v65.8c0,10.8,5.2,16.3,15.5,16.3c5.1,0,8.8-1.3,11-4
	s3.3-6.8,3.3-12.5V63h-9.8V83z M206.7,98.4V1.8h-10.8v42h-9.2v-42h-10.9v96.6h10.9V54.6h9.2v43.8H206.7z"/>
</svg>
