<?xml version="1.0" encoding="utf-8"?>
<!-- Generator: Adobe Illustrator 24.0.1, SVG Export Plug-In . SVG Version: 6.00 Build 0)  -->
<svg version="1.1" id="Capa_1" xmlns="http://www.w3.org/2000/svg" xmlns:xlink="http://www.w3.org/1999/xlink" x="0px" y="0px"
	 viewBox="0 0 100 100" style="enable-background:new 0 0 100 100;" xml:space="preserve">
<style type="text/css">
	.st0{fill:none;stroke:#F3C376;stroke-width:5;stroke-linecap:round;stroke-linejoin:round;}
</style>
<g id="Grupo_85" transform="translate(-373.346 -249.859)">
	<g id="Group_58_1_">
		<g id="Group_58-2_1_">
			<circle id="Ellipse_5_1_" class="st0" cx="423.4" cy="299.6" r="45"/>
		</g>
	</g>
	<g id="Grupo_84">
		<path id="Trazado_138" class="st0" d="M388.8,303.9l1.9,7.6h67.1l0.2-5.2l-1.6,0.1l1.6-9.8c0,0-0.5-3-11.8-1.1l0.8-2.2l-4.3-0.9
			l1-6.8c0,0-5.6-3.1-10.3-1.6c0,0-3.9,3.8-6.8,4c0,0-7.8-2.2-12.6,1.7l2.3,6.3l-18.3-7l0.3,7.2l-6.7-1.4l1.8,9.4l5.9,0.3
			L388.8,303.9z"/>
		<path id="Trazado_139" class="st0" d="M438.9,311.6c-0.1-2.7-0.6-5.3-1.3-7.9c-0.5-2.6-0.8-5.2-0.8-7.8c0,0-9.8-0.5-9.9-0.5
			c0.7,2.7,0.6,5.5-0.2,8.1c-1.1,2.5-1.8,5.3-1.8,8.1"/>
		<line id="Línea_31" class="st0" x1="429.2" y1="287.5" x2="429" y2="295.5"/>
		<path id="Trazado_140" class="st0" d="M445.9,295.9c0,0-2.3,4.7,1.4,7.4s3.2,8.2,3.2,8.2"/>
		<path id="Trazado_141" class="st0" d="M399.4,304.4h26.1"/>
	</g>
	<path id="Trazado_142" class="st0" d="M416.3,296c2.2,3.2,5.5,5.6,9.2,6.8"/>
</g>
</svg>
