<?xml version="1.0" encoding="utf-8"?>
<!-- Generator: Adobe Illustrator 24.0.1, SVG Export Plug-In . SVG Version: 6.00 Build 0)  -->
<svg version="1.1" id="Capa_1" xmlns="http://www.w3.org/2000/svg" xmlns:xlink="http://www.w3.org/1999/xlink" x="0px" y="0px"
	 viewBox="0 0 106 106" style="enable-background:new 0 0 106 106;" xml:space="preserve">
<style type="text/css">
	.st0{fill:none;stroke:#F3C376;stroke-width:5;stroke-linecap:round;stroke-linejoin:round;}
</style>
<g id="Grupo_89" transform="translate(-506.116 -248.082)">
	<g id="Grupo_88">
		<circle id="Elipse_15" class="st0" cx="559.2" cy="300.8" r="45"/>
		<path id="Trazado_145" class="st0" d="M590.8,318c-9.5,17.5-31.3,24-48.8,14.5c-6.1-3.3-11.2-8.4-14.5-14.5c0-5.2,19-12.7,31.7,0
			C571,329.8,586.8,323.9,590.8,318z"/>
		<line id="Línea_33" class="st0" x1="554.7" y1="302.7" x2="563.7" y2="302.7"/>
		<line id="Línea_34" class="st0" x1="554.7" y1="292.9" x2="563.7" y2="292.9"/>
		<line id="Línea_35" class="st0" x1="552.4" y1="283.1" x2="565.9" y2="283.1"/>
		<line id="Línea_36" class="st0" x1="554.7" y1="273.3" x2="563.7" y2="273.3"/>
		<line id="Línea_37" class="st0" x1="554.7" y1="263.6" x2="563.7" y2="263.6"/>
	</g>
	<line id="Línea_38" class="st0" x1="529.5" y1="254" x2="529.5" y2="292.1"/>
	<line id="Línea_39" class="st0" x1="548.5" y1="273.1" x2="510.4" y2="273.1"/>
	<path id="Trazado_146" class="st0" d="M536.3,257.5l-6.8,6.8l-6.9-6.9"/>
	<path id="Trazado_147" class="st0" d="M522.5,288.6l6.8-6.8l6.9,6.9"/>
	<path id="Trazado_148" class="st0" d="M545,280l-6.8-6.8l6.9-6.9"/>
	<path id="Trazado_149" class="st0" d="M513.9,266.2l6.8,6.8l-6.9,6.9"/>
</g>
</svg>
