<?xml version="1.0" encoding="utf-8"?>
<!-- Generator: Adobe Illustrator 24.0.1, SVG Export Plug-In . SVG Version: 6.00 Build 0)  -->
<svg version="1.1" id="Capa_1" xmlns="http://www.w3.org/2000/svg" xmlns:xlink="http://www.w3.org/1999/xlink" x="0px" y="0px"
	 viewBox="0 0 327.6 100" style="enable-background:new 0 0 327.6 100;" xml:space="preserve">
<style type="text/css">
	.st0{fill:#FFFFFF;}
</style>
<path id="Trazado_337" class="st0" d="M20.3,83.4c0,3.8-1.5,5.7-4.6,5.7s-4.6-1.9-4.6-5.7V16.6c0-3.7,1.5-5.6,4.6-5.6
	c1.7,0,2.8,0.5,3.5,1.4s1.1,2.3,1.1,4.2V34h9.9V16.6C30.2,5.5,25.4,0,15.7,0C5.2,0,0,5.6,0,16.9v66.7c0,11,5.2,16.5,15.7,16.5
	c5.2,0,8.9-1.4,11.2-4.1c2.2-2.7,3.3-6.9,3.3-12.6V63.1h-9.9V83.4z M64.2,83.4c0,3.8-1.6,5.7-4.7,5.7c-3.1,0-4.6-1.9-4.6-5.7V1.1H44
	v82.3c0,11.1,5.2,16.6,15.5,16.6c10.4,0,15.6-5.5,15.6-16.6V1.1H64.2V83.4z M116.9,99V88h-16V1.1h-11V99H116.9z M140.3,99V12.1h10.3
	v-11h-31.5v11h10.3V99H140.3z M182.5,83.4c0,3.8-1.6,5.7-4.7,5.7c-3.1,0-4.6-1.9-4.6-5.7V1.1h-10.9v82.3c0,11.1,5.2,16.6,15.5,16.6
	c10.4,0,15.6-5.5,15.6-16.6V1.1h-10.9L182.5,83.4z M241.4,99c-1.2-7.8-2.3-15.4-3.3-23c-1.1-7.6-2.4-15.4-3.8-23.3
	c2.1-1.2,3.8-3,4.8-5.2c1.1-2.2,1.6-5.2,1.6-8.9V18.7c0-6.4-1.4-11-4.3-13.6c-2.9-2.6-7.2-4-13-4h-15.2V99h11.2V54.9h4.5
	c1.2,7.5,2.2,14.9,3,22.1c0.9,7.2,1.8,14.5,2.7,22.1L241.4,99z M229.4,38.7c0,4.2-2,6.3-5.9,6.3h-4.2V12.1h4.1c2.6,0,4.3,0.7,5,2.1
	s1.1,3.6,1.1,6.7L229.4,38.7z M281.4,99V88h-16V54.6h10.3V43.5h-10.3V12.1h15.5v-11h-26.5V99H281.4z"/>
</svg>
