<?xml version="1.0" encoding="utf-8"?>
<!-- Generator: Adobe Illustrator 24.0.1, SVG Export Plug-In . SVG Version: 6.00 Build 0)  -->
<svg version="1.1" id="Capa_1" xmlns="http://www.w3.org/2000/svg" xmlns:xlink="http://www.w3.org/1999/xlink" x="0px" y="0px"
	 viewBox="0 0 100 125" style="enable-background:new 0 0 100 125;" xml:space="preserve">
<style type="text/css">
	.st0{fill:none;stroke:#30CA99;stroke-width:5;}
	.st1{fill:none;stroke:#30CA99;stroke-width:5;stroke-linecap:round;stroke-linejoin:round;}
</style>
<g id="Group_46" transform="translate(-669.28 -312.424)">
	<path id="Path_150" class="st0" d="M726.7,406.5c-2.4,0.4-4.9,0.6-7.4,0.6c-0.9,0-1.9,0-2.8-0.1"/>
	<path id="Path_150-2" class="st0" d="M742.9,400.4c-2.5,1.5-5.1,2.8-7.8,3.9"/>
	<path id="Path_150-3" class="st0" d="M680.6,385c-12.6-21.3-5.4-48.8,15.9-61.4c21.3-12.6,48.8-5.4,61.4,15.9
		c8.7,14.9,8.2,33.4-1.4,47.7"/>
	<path id="Path_150-4" class="st0" d="M708.5,405.8c-6.1-1.5-11.8-4.3-16.8-8.2"/>
	<path id="Path_93" class="st1" d="M763.9,367.1l-6.2-8h-9.6l-13-8.8l-12.8,1.6l-5.6,3.1l-3.3-4.7l1.8-7.8l9-5.2l8-0.4l3-6.1
		l12.8-3.2"/>
	<path id="Path_94" class="st1" d="M747.7,368.7l1.8,5.7l-4.8,5.4l-9.2,12.9l-4.3,0.7l-3.1-4.4l1.4-7.9l-4.3-3.7l-4.3-0.9l-4.5-5.6
		l0.4-4.2l5.7-4.8l5.3-0.5l6.3,0.9l9.9,5.9L747.7,368.7z"/>
	<path id="Path_95" class="st1" d="M706.2,319.4l4.1,3.8v3.9l-8.4,4.3l-6.6,1.1l-6.7-2.7"/>
	<path id="Path_96" class="st1" d="M683.7,334.9l7.4,9.5l0.9,4.8l-2.8,3.3l-4.3,0.8l-1.7,4l-6.1,3.3l1.4,7.8l2.5,0.8l2.8,7.4
		l-3.2,5.4v3.8l2.4,3.7v4.8"/>
	<path id="Path_97" class="st1" d="M703.7,373.7v9.5c0,2.2-1.7,4-3.9,4.1s-4-1.7-4.1-3.9c0,0,0-0.1,0-0.1v-5.3"/>
	<path id="Path_98" class="st1" d="M691.7,397.6v6.7c0,2.2-1.9,4-4.1,3.9c-2.2,0-3.9-1.8-3.9-3.9"/>
	<path id="Path_99" class="st1" d="M726.7,406.5v14.9c0,2.2,1.7,4,3.9,4.1s4-1.7,4.1-3.9v-2.8"/>
	<path id="Path_99-2" class="st1" d="M708.5,399.9v10.5c0,2.2,1.7,4,3.9,4.1c2.2,0,4-1.7,4.1-3.9V405c0-2.8,2.4-5.1,5.2-5
		c2.8,0,5,2.3,5,5l0,0v1.5"/>
	<path id="Path_100" class="st1" d="M735.1,404.2c-0.1,0.4-0.1,0.9-0.1,1.3v4.9"/>
	<path id="Path_100-2" class="st1" d="M756.5,387.3l-2.3,6.1v13c0,2.2-1.9,4-4.1,3.9c-2.2,0-3.9-1.8-3.9-3.9v-0.9
		c0-3.1-2.5-5.6-5.7-5.6c-2.6,0-4.9,1.8-5.5,4.4"/>
	<circle id="Ellipse_2" class="st1" cx="712.5" cy="428.4" r="4"/>
	<line id="Line_4" class="st1" x1="742.6" y1="324" x2="738.6" y2="330"/>
</g>
</svg>
