<?xml version="1.0" encoding="utf-8"?>
<!-- Generator: Adobe Illustrator 24.0.1, SVG Export Plug-In . SVG Version: 6.00 Build 0)  -->
<svg version="1.1" id="Capa_1" xmlns="http://www.w3.org/2000/svg" xmlns:xlink="http://www.w3.org/1999/xlink" x="0px" y="0px"
	 viewBox="0 0 290 220" style="enable-background:new 0 0 290 220;" xml:space="preserve">
<style type="text/css">
	.st0{fill:#30CA99;}
	.st1{opacity:0.5;fill:url(#Elipse_16_1_);enable-background:new    ;}
	.st2{fill:none;stroke:#FFFFFF;stroke-miterlimit:10;}
	.st3{fill:none;}
	.st4{fill:#DDCEA1;stroke:#ECDAAF;stroke-width:1.5;stroke-miterlimit:10;}
	.st5{fill:#D0C099;}
	.st6{fill:#593A2F;}
	.st7{fill:#DDCEA1;}
	.st8{fill:#ECDAAF;}
	.st9{fill:none;stroke:#ECDAAF;stroke-width:1.5;stroke-miterlimit:10;}
	.st10{fill:#65A83E;}
	.st11{fill:#52952C;}
	.st12{fill:none;stroke:#279428;stroke-miterlimit:10;}
	.st13{fill:none;stroke:#4B8C2C;stroke-width:0.25;stroke-miterlimit:10;}
	.st14{fill:none;stroke:#65A83E;stroke-width:0.2;stroke-miterlimit:10;}
	.st15{fill:none;stroke:#4B8C2C;stroke-width:0.2;stroke-miterlimit:10;}
	.st16{fill:none;stroke:#7BBF53;stroke-width:0.2;stroke-miterlimit:10;}
</style>
<g id="Grupo_147" transform="translate(-54.212 -4573)">
	<g id="Grupo_144" transform="translate(0 812)">
		<g id="Grupo_110" transform="translate(-32.322 3604.836)">
			<path id="Trazado_150" class="st0" d="M353,271c2.5,29.7-27.5,34.3-37.5,35.1c-10,0.9-28.4,2.9-37.1,12.9s-14.4,32.5-35.3,37.1
				s-50,10.4-63-18.8c-13-29.1-9.6-27.3-43.6-50.6c-34-23.3-20.8-46.2-16.5-52.7c4.3-6.5,12.9-19.9,26.6-18.7
				c13.7,1.3,41.3,7.4,50.7,0c9.4-7.4,1.6-26.8,22.5-38.2s42.7,0.4,46.1,13.2c3.4,12.8,15.4,29.1,35.4,37.7S349.7,231.1,353,271z"/>
			
				<radialGradient id="Elipse_16_1_" cx="-279.4166" cy="650.9653" r="1.169" gradientTransform="matrix(74.825 -13.5354 -4.2869 -23.6982 23947.9355 11918.7881)" gradientUnits="userSpaceOnUse">
				<stop  offset="0" style="stop-color:#138D50"/>
				<stop  offset="1" style="stop-color:#000000;stop-opacity:0"/>
			</radialGradient>
			<path id="Elipse_16" class="st1" d="M231.7,234.9c64.4-11.6,120.1-1.3,124.5,23.1s-44.2,53.7-108.6,65.3
				c-64.4,11.6-120.1,1.3-124.5-23.1C118.7,275.8,167.3,246.6,231.7,234.9z"/>
			<path id="Trazado_151" class="st2" d="M266.6,338.8"/>
			<g id="Grupo_115" transform="translate(140.235 249.018)">
				<path id="Trazado_152" class="st2" d="M45.7,32.1"/>
				<path id="Trazado_153" class="st3" d="M17.9,11.3c5.8,6.9,17.1,21.3,19.5,24.2c2.9,3.7,7.4,3.7,13.1,2.4
					c2.9-0.6,34.5-7.8,66.9-15.1c3.5-0.8,3.8-2.7,1.7-4.3S90.6-4.9,88.9-6.4s-4.3-2-9.1-1.2S24.7,2.8,21.2,3.6s-7.5,2.8-4.6,6.1
					L17.9,11.3z"/>
				<path id="Trazado_155" class="st4" d="M50.9,37.9c6-1.3,135.9-30.6,139.4-31.3s6.5-2.5,1.4-5.4s-34-20.4-35.5-21.4
					s-4.4-2.6-10.7-1.2S24.7,1.7,20.5,2.5s-7.9,2.6-5.1,5.4s19.5,23.9,22.4,27.6S45.2,39.2,50.9,37.9z"/>
				<path id="Trazado_159" class="st5" d="M191.6,1.2c-5.1-2.9-34-20.4-35.5-21.4c-0.9-0.6-1.9-1.1-3-1.4c-0.3-0.1-0.6,0-0.9,0.2
					c-1.6,11.8,6.5,26.9,18.2,32.5c11.3-2.5,18.9-4.2,19.8-4.4C193.8,5.9,196.7,4.1,191.6,1.2z"/>
				<path id="Trazado_166" class="st6" d="M160.2-10.2c-3.3-1.8-6.3-2.1-11.6-1.1S96,0,96,0l26.6,21.8l0.6,0.7
					c28-6.3,55.3-12.4,65.7-14.8C178.5,1.2,162.4-9,160.2-10.2z"/>
				<path id="Trazado_158" class="st5" d="M122.6,21.7c0.3-0.5,0.5-0.8,0.5-0.8L86.7-9c0,16.4,4.1,27.9,11.9,36.1L122.6,21.7z"/>
				<path id="Trazado_165" class="st6" d="M92.7,4.4C90,2.3,87.1,2,81.9,2.9c-4,0.7-44.2,8.5-62.8,12.1c6.4,7.8,15.6,19.5,17.7,22.2
					c3.1,3.8,7.8,3.8,13.8,2.5c2.9-0.6,32.9-7.4,65-14.6C108.5,18.6,94.8,6,92.7,4.4z"/>
				<path id="Trazado_154" class="st7" d="M190.3,6.5C186.7,7.2,56.6,36.6,50.5,37.9c-5.7,1.3-10.2,1.3-13.1-2.4S17.8,10.7,15,7.9
					c-0.5-0.5-0.9-1.1-1-1.8l0,0c0,8.6,3.8,29.2,13,42.7s16.5,8.8,34.2,4.6c17.7-4.2,106.6-25.7,111.7-26.8s13.4-2.9,16.6-7.7
					s4.9-9.4,4.9-14.6l0,0C194.1,5.3,192.3,6.1,190.3,6.5z"/>
				<path id="Trazado_156" class="st5" d="M37.4,35.5C34.5,31.9,17.8,10.7,15,7.9c-0.5-0.5-0.9-1.1-1-1.8c0,8.6,3.8,29.2,13,42.7
					c0.2,0.2,0.3,0.4,0.5,0.6C30.9,53.6,37.4,46.1,37.4,35.5z"/>
				<path id="Trazado_157" class="st5" d="M183.5,21.1c-5.5,1.2-100.2,24.2-119.2,28.6s-26.7,9.5-36.5-4.9
					c-7.5-11-11.6-26.6-13.2-37.3C14.3,7.1,14,6.6,14,6.1c0,8.6,3.8,29.2,13,42.7s16.5,8.8,34.2,4.6c17.7-4.2,106.5-25.7,111.7-26.8
					c4.7-1.1,12-2.6,15.7-6.6l1.6-2.1C188.2,19.5,186,20.6,183.5,21.1z"/>
				<path id="Trazado_160" class="st8" d="M77.9-7.3l19.8-3.9c0,0-12.3,0.9-6.6,5.3s27.6,22.4,30,24.4s6.8,2.1,10.4,1.3l-15.1,3.4
					c0,0,6.5-1.6,3.2-4.2S91.8-4.1,89.8-5.7S86.6-8.9,77.9-7.3z"/>
				<path id="Trazado_161" class="st9" d="M50.9,37.9c6-1.3,135.9-30.6,139.4-31.3s6.5-2.5,1.4-5.4s-34-20.4-35.5-21.4
					s-4.4-2.6-10.7-1.2S24.7,1.7,20.5,2.5s-7.9,2.6-5.1,5.4s19.5,23.9,22.4,27.6S45.2,39.2,50.9,37.9z"/>
			</g>
		</g>
		<g id="Grupo_140" transform="translate(-546.179 4595.864)">
			<g id="Grupo_134" transform="translate(678.361 -750.366)">
				<path id="Trazado_242" class="st10" d="M42.2,3c-0.7,1.9-1,3.9-0.8,5.9c0.3,3.5,0,8.8,0.8,11.1s1.2,8.9,1.2,8.9
					c-0.5,0.5-1.4,0.7-2.1,0.4c0,0-0.2-7.9-0.9-9.9S39.2,6.4,39.9,2.2S42.2,3,42.2,3z"/>
				<path id="Trazado_243" class="st10" d="M37.6,5.2c2.6,0.8,4.5,3.1,4.7,5.8c0.2,3.3-0.3,6.5-1.5,9.6c-0.7,2-4.6,6.6-5.3,7.5
					s-2.1,2.3-2.6,2.4s-5.1-1.6-6.1-2.9s-4.1-4.9-4.1-6.6s-0.4-7.1,0-8.8s3.1-4.3,3.5-4.9s2.4-2.9,3.5-3.4c1.3-0.4,2.6-0.6,3.9-0.4
					C34.9,3.9,36.3,4.4,37.6,5.2z"/>
				<path id="Trazado_244" class="st11" d="M42.7-9.2c1.8-1.2,4.1-1.3,5.9-0.3c3,1.9,4.8,3.8,4.9,5.5c0.2,1.7,0.1,3.5-0.4,5.2
					c-0.7,1.8-1.4,3.7-2.2,5.4c-0.4,0.7-1.8,3.1-2.4,3.3s-2.6-1.2-3.8-2c-1.1-0.9-2.1-1.8-3-2.8C41,4.6,40.8,4.7,39.9,4
					s-2.5-1.5-3.1-2.6c-0.8-1.1-1.3-2.3-1.4-3.6c0-1.3,0.8-6.6,3.5-7.4S42.7-9.2,42.7-9.2z"/>
				<path id="Trazado_245" class="st10" d="M38.8-9.6c0.1,0,0.1,0,0.2-0.1c-0.1-0.5-0.2-1.2-0.3-1.8c-0.1-1-0.2-2.1-0.5-3.1
					c-0.4-1.1-2-2-2.8-2.4c-0.8-0.4-1.4-0.9-2.1-1.5c-1.3-1-2.8-1.8-4.4-2.3c-1.4-0.3-3.9-1.3-5.7-1.2c-1.5,0-2.9,0.5-4.1,1.5
					c-1,0.9-3.2,2.5-3.6,3s-1.7,3.4-1.3,4.8s1.4,2.8,1.6,2.5s-0.3-1.2-0.1-1.6c0.4-0.5,1-0.8,1.6-0.9c1,0.1,2.1,0.3,3,0.8
					c0.8,0.4,1.2,2.1,2.3,2.4S26.2-8,27-8c1.3,0,2.5,0.1,3.8,0.3c0.8,0.3,1.6,0.4,2.4,0.4c0.4,0,2.5-0.6,3.7-0.8
					C37.3-8.8,38-9.4,38.8-9.6z"/>
				<path id="Trazado_246" class="st10" d="M69.9,12.9c0,0-0.5-2.4-0.7-3.4c0-1.3,0.2-2.7,0.4-4c0.1-0.8-1.2-3.8-1.8-5
					c-0.7-1.3-1.5-2.5-2.4-3.6c-0.4-0.4-3-1.8-3.6-2.2c-1.3-1-2.8-1.7-4.4-2.2c-1.9-0.1-3.9,0-5.8,0.2c1.1,0.8,1.8,2,2.1,3.4
					c0.2,1.7,0.1,3.5-0.4,5.2c-0.2,0.5-0.4,1.1-0.6,1.7C53.2,3.5,53.8,4,54,4.3c1.2,0.9,2.6,1.5,4.1,1.8c0.9,0.1,1.8,0.2,2.7,0.1
					c0.9,0,1.7,0.6,1.9,1.5c0.3,0.7,1.3,2.2,2,2.2c1.1,0.4,2,1.1,2.6,2c0.7,1,1.8,2.2,2.2,2.1S69.9,12.9,69.9,12.9z"/>
				<path id="Trazado_247" class="st11" d="M44.1-9.9c0.2-0.6,0.7-1.2,1.4-1.4c0.7-0.3,1.4-0.3,2.1-0.1c0.9,0.3,1.8,0.3,2.7,0
					c1.5-0.3,1-1.7,0.3-2.8s-3-0.5-5,0.6s-2.7,4.3-2.7,4.3C43.1-9.5,43.6-9.7,44.1-9.9L44.1-9.9z"/>
				<g id="Grupo_133" transform="translate(22.536 2.034)">
					<path id="Trazado_248" class="st11" d="M20.4-14.7c-0.7-1.7-1.7-4.1-2.5-4.9s-2.8-1.5-3-1.8S14-22.4,14-21.8s0.3,1.9,0.4,2.2
						c0.5,0.9,1.1,1.7,1.8,2.4c0.9,0.8,1.7,1.7,2.5,2.6c0.2,0.5,0.3,1.1,0.3,1.7c0,0.1,0,0.7,0.1,1.2c0.4,0.1,0.8,0.3,1.2,0.6
						c0.1-0.5,0.3-0.9,0.5-1.4C20.7-13.3,20.6-14,20.4-14.7z"/>
					<path id="Trazado_249" class="st11" d="M20.2-11.2c0,0,0,0,0.1-0.1C20.2-11.2,20.2-11.2,20.2-11.2z"/>
					<path id="Trazado_250" class="st11" d="M20.4-11.3L20.4-11.3L20.4-11.3z"/>
					<path id="Trazado_251" class="st11" d="M20.3-11.3L20.3-11.3L20.3-11.3z"/>
					<path id="Trazado_252" class="st11" d="M20.5-11.4L20.5-11.4L20.5-11.4z"/>
				</g>
				<path id="Trazado_253" class="st12" d="M42.7-9.2c0,0,0,0,0.1-0.1C42.8-9.2,42.7-9.2,42.7-9.2z"/>
				<path id="Trazado_254" class="st12" d="M42.9-9.3L42.9-9.3L42.9-9.3z"/>
				<path id="Trazado_255" class="st12" d="M42.9-9.3L42.9-9.3L42.9-9.3z"/>
				<path id="Trazado_256" class="st12" d="M43-9.4L43-9.4L43-9.4z"/>
				<path id="Trazado_257" class="st11" d="M42.2-14.5c0.6-0.5,1.2-0.8,2-0.8c1.1,0,1.2,0.1,1.5-0.2c0.6-0.6,1.5-0.9,2.3-0.7
					c0.8,0,1.6-0.2,2.4-0.5c0.5-0.1,2.3-0.5,3.3,0s3,2.9,3.5,3.6c0.5,0.6,1.1,1.2,1.8,1.6c0.2,0.2-0.6,2.7-1.3,4.1
					c-0.1,0-0.2,0-0.3-0.1c-1.9-0.1-3.9,0-5.8,0.2l0,0c-0.9-0.8-1.8-1.5-2.9-2.1c-1.4-0.9-3.1-1-4.6-0.4l0,0
					c0.2-0.6,0.7-1.2,1.4-1.4c0.7-0.3,1.4-0.3,2.1-0.1c0.9,0.3,1.8,0.3,2.7,0c1.5-0.3,1-1.7,0.3-2.8s-3-0.5-5,0.6
					c-1.1,0.7-1.9,1.7-2.3,2.9l0,0c0-0.7-0.1-1.4-0.3-2.1C42.7-13.2,42.4-13.8,42.2-14.5z M39.7-9.8c0.6-0.1,1.2-0.1,1.8,0.1
					c0-0.5-0.1-1-0.1-1.2c0-0.6-0.1-1.1-0.3-1.7c-0.1-0.1-0.2-0.2-0.3-0.3c-0.3,0.5-0.7,0.9-1,1.3C39.5-11.1,39.5-10.4,39.7-9.8z"/>
				<path id="Trazado_258" class="st10" d="M47-12.3c-0.6,0.2-1.1,0.5-1.6,1c0.7-0.3,1.4-0.3,2.1-0.1c0.9,0.3,1.8,0.3,2.7,0
					c1.2-0.2,1.1-1.2,0.6-2.2c-0.3,0.2-0.5,0.4-0.8,0.5C49.6-12.8,48.3-12.7,47-12.3z"/>
				<path id="Trazado_259" class="st10" d="M39.7-16c-0.5-0.8-1.5-2.3-2-3.2c-0.1-0.1-0.2-0.1-0.3-0.2c-0.2-0.3-0.9-0.9-0.8-0.4
					s0.3,1.9,0.4,2.2c0.5,0.9,1.1,1.7,1.8,2.4c0.8,0.7,1.5,1.4,2.2,2.2C40.6-14,40.2-15,39.7-16z"/>
				<path id="Trazado_260" class="st10" d="M59-11.5c-0.3-0.2-0.6-0.4-0.8-0.7c-0.4,0.5-0.8,1.2-1,1.3c-0.8,0.4-1.6,1-2.3,1.6
					c-0.6,0.8-1,1.4-2.2,1.5c-0.7,0-1.4-0.1-2-0.3c0.3,0.2,0.6,0.5,0.8,0.7l0,0c1.9-0.2,3.9-0.2,5.8-0.2c0.1,0,0.2,0,0.3,0.1
					C58.4-8.8,59.2-11.4,59-11.5z"/>
				<path id="Trazado_261" class="st11" d="M42.3,11c-0.2-2.7-2-5.1-4.7-5.8c-1.3-0.7-2.7-1.3-4.1-1.7c-0.3,0-0.5-0.1-0.8-0.1
					c-0.6,0.6-1,1.3-1.4,2.1c-0.9,1.9,0.6,2.5,1.6,3.2c1,0.6,2-1.2,3.2-1.2s2.1,1,4,3.7c1,1.7,1.6,3.6,1.8,5.5
					C42.3,14.8,42.4,12.9,42.3,11z"/>
				<path id="Trazado_262" class="st11" d="M60.9,6.2c0.3,0,0.7,0.1,1,0.3c-0.3-0.7-0.7-1.3-1.1-1.9c-0.8-1-1.5-3.1-2.6-3.5
					S56.1-1,55.9-1.2c-0.1-0.1-1.2-0.7-2.3-1.3c0.1,1.2-0.1,2.5-0.5,3.7c-0.2,0.5-0.4,1.1-0.6,1.7C53.2,3.5,53.8,4,54,4.3
					c1.2,0.9,2.6,1.5,4.1,1.8C59.1,6.2,60,6.3,60.9,6.2z"/>
				<path id="Trazado_263" class="st11" d="M38.8-9.6c0.1,0,0.1,0,0.2-0.1c-0.1-0.5-0.2-1.2-0.3-1.8c-0.1-0.9-0.2-1.7-0.4-2.6
					c-0.2,0.1-0.4,0.2-0.6,0.3c-0.6,0.3-1.3,2.2-1.6,2.6s-2.5,1.1-4.4,1.4c-1.3,0.4-2.6,1-3.7,1.8c0.9,0,1.9,0.1,2.8,0.2
					c0.8,0.3,1.6,0.4,2.4,0.4c0.4,0,2.5-0.6,3.7-0.8C37.4-8.8,38-9.4,38.8-9.6z"/>
				<path id="Trazado_264" class="st10" d="M52.3-6.5l-2.8,2.1C50.3-3,50.8-1.5,51.1,0c0.2,2.2-0.2,4.4-1.1,6.4
					c-0.7,1.2-1.5,2.2-2.5,3.2c0.3,0.2,0.6,0.3,1,0.3c0.6-0.1,1.9-2.6,2.4-3.3c0.8-1.8,1.6-3.6,2.2-5.4c0.5-1.7,0.7-3.4,0.4-5.2
					C53.4-4.9,53-5.8,52.3-6.5z"/>
			</g>
			<g id="Grupo_135" transform="translate(686.798 -722.972)">
				<path id="Trazado_265" class="st13" d="M18.7-0.7c-0.3-2.2-0.2-4.4,0.3-6.5c0.8-3.1,1.4-3.4,1.7-4.5s0.1-2.3,1.1-3.7
					s2.7-2.4,3.2-3.2s1.4-1.9,1.9-2c0.7,0.1,1.3-0.3,1.7-0.9"/>
				<path id="Trazado_266" class="st13" d="M28.5-5.7c-2-3.9-3.3-8-3.9-12.3"/>
				<path id="Trazado_267" class="st13" d="M24.6,0.6c-1.9-3.9-3.2-8-3.9-12.2"/>
				<path id="Trazado_268" class="st13" d="M14-9.1c1.8-2.2,4.2-3.8,7-4.5"/>
				<path id="Trazado_269" class="st13" d="M30.7-11.1c-0.1-2.1-0.7-4.1-1.7-5.9c-0.7-1.1-1.3-2.2-1.9-3.4"/>
				<path id="Trazado_270" class="st13" d="M25.5-19.3c-0.6,0-1.1-0.1-1.7-0.2c-1.3-0.2-4.1-0.4-5.8,0.6s-2.8,2.1-3.2,2.2"/>
				<path id="Trazado_271" class="st13" d="M26.1-19.9c-0.8-0.2-1.6-0.5-2.4-0.9c-1.2-0.5-2.8-1.2-4-0.8c1.4-0.4,2.7-0.5,4.1-0.5
					c1.1,0.1,2.1,0.4,3.2,0.7"/>
			</g>
			<g id="Grupo_141" transform="translate(701.808 -737.826)">
				<path id="Trazado_272" class="st14" d="M19.1-22.1c0,0,3.1,4.7,3.8,8.1c0.5,2.1,0.9,4.3,1.1,6.5c0,0.6,0,1.2,0.2,1.8
					c0.1,0.6,0.3,1.6,0.3,1.6"/>
				<path id="Trazado_273" class="st14" d="M18.6-11c0,0-1.4-3-0.6-5s2.1-2.9,2.4-3.7"/>
				<path id="Trazado_274" class="st14" d="M14.8-12.6c-0.4-1.2-0.7-2.4-0.8-3.6c0.1-1.5,0.8-2.9,1.8-3.9c1.1-0.7,2.4-1.1,3.7-1.1"
					/>
				<path id="Trazado_275" class="st14" d="M26.4-16.8c0,0-2.4-3.1-5.5-2.2"/>
				<path id="Trazado_276" class="st14" d="M27.2-10.6c-0.1-0.1-1.2-3.9-4.3-3.4"/>
				<path id="Trazado_277" class="st14" d="M25.7-7.6c-0.5-0.5-1.1-0.8-1.8-0.9"/>
				<path id="Trazado_278" class="st14" d="M20.8-6.4c0,0-0.1-2.7,3-3"/>
			</g>
			<g id="Grupo_137" transform="translate(717.239 -735.303)">
				<g id="Grupo_136" transform="translate(0 0)">
					<path id="Trazado_279" class="st15" d="M14.5-19.4c2.5,0,4.9,0.6,7.1,1.8c3.2,1.6,4.3,3.1,4.7,6.1s2.9,7.2,2.9,7.2"/>
					<path id="Trazado_280" class="st15" d="M14-20.7c0.6-0.2,0.7-1.3,3.1-1.3"/>
					<path id="Trazado_281" class="st14" d="M14.7-16.3c0.5,0.1,1.1,2.5,3,4.1"/>
					<path id="Trazado_282" class="st15" d="M21.9-17.5c0.8-0.6,1.8-1,2.8-0.9"/>
					<path id="Trazado_283" class="st15" d="M18.8-18.7c-0.1,1.6,0.6,3.2,1.7,4.3c1.4,1.5,0.5,3.6,0.9,4.7"/>
					<path id="Trazado_284" class="st15" d="M26-12.9c0.5-0.7,1.2-1.1,2.1-1.3"/>
				</g>
				<path id="Trazado_285" class="st15" d="M25.1-14.9c-0.8,0.5-1.2,1.5-1,2.4c0.2,1.6,1.3,2.4,1.6,4.8"/>
			</g>
			<path id="Trazado_286" class="st14" d="M721.6-759.9c-0.1-0.3,0.3-3.3,7-3.2"/>
			<path id="Trazado_287" class="st14" d="M721.4-759.7c-0.5-3.4-2.2-6.5-4.8-8.8"/>
			<g id="Grupo_138" transform="translate(715.063 -743.674)">
				<path id="Trazado_288" class="st14" d="M20.8-18.7c-2-0.9-4.2-1.3-6.4-1.2"/>
				<path id="Trazado_289" class="st14" d="M16.4-19.9c0.4-0.5,0.7-1.1,0.9-1.6"/>
				<path id="Trazado_290" class="st14" d="M14-20.9c0.2-0.4,0.4-0.8,0.4-1.2"/>
			</g>
			<g id="Grupo_139" transform="translate(679.901 -749.392)">
				<path id="Trazado_291" class="st15" d="M36.8-10.3c0,0-1.1-2.7-6.7-5.2s-5.9-4.6-9.9-3.1s-5,1.2-6.2,4.1"/>
				<path id="Trazado_292" class="st15" d="M34.4-13c-0.9-0.4-1.9-0.4-2.8-0.1c-1.2,0.5-4.3,0.6-5.3,1"/>
				<path id="Trazado_293" class="st15" d="M27.5-16.7c0,0-1.6-4.3-3.4-5.3"/>
				<path id="Trazado_294" class="st15" d="M32.9-14.1c0,0-0.1-3.1-1.3-4.5"/>
				<path id="Trazado_295" class="st15" d="M30-15.5c0,0-0.6-0.3-2.5,0.2s-4.3,1.4-5.8,1.2"/>
				<path id="Trazado_296" class="st15" d="M22.3-19.1c-1.1-0.6-2.2-1.1-3.3-1.5"/>
			</g>
		</g>
		<g id="Grupo_142" transform="translate(-226.055 3857.556)">
			<path id="Trazado_297" class="st10" d="M482.5-7.3c-1-0.4-2-0.7-3-0.9c-1.2-0.1-2.4,0.2-3.4,0.8c-0.4,0.4-0.7,1-0.7,1.6H475
				c-0.1,0-0.1,0.2,0,0.6c0,0.2,0.1,0.4,0.2,0.5c-0.1,0-0.2,0-0.3,0c-0.2-0.2-0.4-0.5-0.6-0.7c0-0.2,0.1-0.4,0.3-0.5
				c0.2,0,0.4-0.1,0.6-0.2c0.2-0.2,0.4-1.1-0.1-1.3c-0.5-0.3-1-0.4-1.6-0.5c-0.4-0.1-0.8-0.1-1.1,0c-0.1,0.1-0.3,0.2-0.4,0.3
				c0,0-0.3,0.1-0.4,0.2c-0.3,0.4-0.4,1-0.2,1.5c0.3,0.8,0.8,0.9,0.9,1c0,0.1,0,0.3,0,0.4c-0.5,0.2-0.9,0.5-1.2,0.9
				c-1,1.2-1.5,2.7-1.3,4.2c0.1,0.5,0.3,1,0.7,1.4c0.2,0.1,0.5,0.2,1.4-0.2c1.3-0.6,2.6-1.4,3.7-2.4c0,0.7,0.1,1.9,0.1,1.9
				c0.2,0.1,0.4,0,0.4,0c0-0.1,0-1-0.1-1.5c0.1,0.2,0.3,0.3,0.5,0.4c0.7,0.5,1.5,0.5,2.3,0.2c1.1-0.6,1.2-1,1.2-1.6s0-2-0.9-2
				s-1,0.5-1.1,0.7s-0.6,0.3-0.8,0.1c-0.1-0.2-0.5-0.6-0.8-0.8c0-0.2-0.1-0.4-0.2-0.6c0.2,0.1,0.4,0.3,0.5,0.4
				c0.1-0.2,0.1-0.5,0.1-0.7c0.3,0.4,1.7,0.5,2.8,0.3c1.1-0.1,2.1-0.6,2.8-1.4C482.7-5.8,482.8-6.6,482.5-7.3z M473.4-4.6
				c0-0.2,0.2-0.4,0.3-0.5c0.3,0,0.5,0.2,0.7,0.4C474-4.7,473.7-4.7,473.4-4.6z M476.3-2.7c0.2,0.2,0.3,0.3,0.4,0.5
				c0.1,0.3,0,0.3-0.2,0.4c-0.1,0-0.2,0-0.3-0.1C476.3-2.1,476.3-2.4,476.3-2.7L476.3-2.7z"/>
			<g id="Grupo_143">
				<path id="Trazado_298" class="st16" d="M470.7,1.5c0,0,0.2-3.7,4.8-5.8"/>
				<path id="Trazado_299" class="st16" d="M472.5,0.8c0.4-1,0.4-2,0-3"/>
				<path id="Trazado_300" class="st16" d="M473.7,0.2c0,0,1.1-2.8,0.7-4"/>
				<path id="Trazado_301" class="st16" d="M473.7-3.3c-0.9-0.4-2-0.2-2.7,0.6"/>
				<path id="Trazado_302" class="st16" d="M476.4-4.9c1.3-1.4,3.2-2.2,5.1-2.3"/>
				<path id="Trazado_303" class="st16" d="M481.6-5.3c-1.2-0.5-2.5-0.8-3.8-0.8"/>
				<path id="Trazado_304" class="st16" d="M482.2-6.2c-0.7-0.4-1.4-0.6-2.2-0.8"/>
				<path id="Trazado_305" class="st16" d="M480.4-4.5c0,0-3.1-0.3-3.9-0.5"/>
				<path id="Trazado_306" class="st16" d="M479.2-6.7c-0.3-0.3-0.6-0.6-0.9-0.9"/>
				<path id="Trazado_307" class="st16" d="M476.4-6.7c0.5,0.2,0.8,0.5,1,1"/>
			</g>
		</g>
	</g>
</g>
</svg>
