<?xml version="1.0" encoding="utf-8"?>
<!-- Generator: Adobe Illustrator 24.0.1, SVG Export Plug-In . SVG Version: 6.00 Build 0)  -->
<svg version="1.1" id="Capa_1" xmlns="http://www.w3.org/2000/svg" xmlns:xlink="http://www.w3.org/1999/xlink" x="0px" y="0px"
	 viewBox="0 0 100 100" style="enable-background:new 0 0 100 100;" xml:space="preserve">
<style type="text/css">
	.st0{fill:none;stroke:#A4A4A4;stroke-width:5;stroke-linecap:round;stroke-linejoin:round;}
</style>
<g id="Grupo_75" transform="translate(-373.346 -249.859)">
	<g id="Group_58">
		<g id="Group_58-2">
			<circle id="Ellipse_5" class="st0" cx="423.4" cy="299.9" r="45"/>
		</g>
	</g>
	<g id="Grupo_74">
		<g id="Grupo_73">
			<g id="Grupo_71">
				<path id="Trazado_126" class="st0" d="M434.1,309.7c-2.3,3.4-4.8,6.9-5,12.4h-11.6c-0.3-5.6-2.7-9-5-12.4
					c-2.4-3.5-4.7-6.9-4.7-12.5c0-8.1,5.3-16,15.5-16s15.5,7.9,15.5,16C438.8,302.8,436.5,306.2,434.1,309.7z"/>
			</g>
			<g id="Grupo_72">
				<path id="Trazado_127" class="st0" d="M416.7,298c0-4.1,2.7-8,7.8-8"/>
			</g>
			<line id="Línea_21" class="st0" x1="429.1" y1="331.7" x2="417.5" y2="331.7"/>
		</g>
		<line id="Línea_22" class="st0" x1="423.4" y1="273.2" x2="423.4" y2="266.1"/>
		<line id="Línea_23" class="st0" x1="447.4" y1="297.2" x2="454.5" y2="297.2"/>
		<line id="Línea_24" class="st0" x1="441.3" y1="280.1" x2="446.4" y2="275.1"/>
		<line id="Línea_25" class="st0" x1="399.3" y1="297.2" x2="392.2" y2="297.2"/>
		<line id="Línea_26" class="st0" x1="405.4" y1="280.1" x2="400.4" y2="275.1"/>
	</g>
</g>
</svg>
