<?xml version="1.0" encoding="utf-8"?>
<!-- Generator: Adobe Illustrator 24.0.1, SVG Export Plug-In . SVG Version: 6.00 Build 0)  -->
<svg version="1.1" id="Capa_1" xmlns="http://www.w3.org/2000/svg" xmlns:xlink="http://www.w3.org/1999/xlink" x="0px" y="0px"
	 viewBox="0 0 100 100" style="enable-background:new 0 0 100 100;" xml:space="preserve">
<style type="text/css">
	.st0{fill:none;stroke:#474747;stroke-width:5;stroke-linecap:round;stroke-linejoin:round;}
</style>
<g id="Grupo_79" transform="translate(-373.346 -249.859)">
	<g id="Group_58">
		<g id="Group_58-2">
			<circle id="Ellipse_5" class="st0" cx="423.4" cy="299.6" r="45"/>
		</g>
	</g>
	<g id="Grupo_78">
		<g id="Grupo_76">
			<circle id="Elipse_7" class="st0" cx="441.1" cy="317.1" r="10.1"/>
			<circle id="Elipse_8" class="st0" cx="405.6" cy="317.1" r="10.1"/>
			<path id="Trazado_128" class="st0" d="M405.6,317.1l7.3-22.9l5.2-0.5"/>
			<path id="Trazado_129" class="st0" d="M441.1,317.1l-8.4-16.7h-21.7l15.6,16.7H441.1z"/>
			<path id="Trazado_130" class="st0" d="M426.6,317.1"/>
			<path id="Trazado_131" class="st0" d="M432.6,300.4"/>
			<line id="Línea_27" class="st0" x1="430" y1="295.1" x2="437.2" y2="295.1"/>
			<line id="Línea_28" class="st0" x1="432.6" y1="300.4" x2="435.4" y2="295.1"/>
		</g>
		<g id="Grupo_77">
			<circle id="Elipse_9" class="st0" cx="423.4" cy="283.1" r="1.4"/>
			<path id="Trazado_132" class="st0" d="M415.9,275.7c4.1-4.1,10.8-4.1,14.9,0c0,0,0,0,0,0"/>
			<path id="Trazado_133" class="st0" d="M409.8,269.5c7.5-7.5,19.6-7.5,27.1,0"/>
		</g>
	</g>
</g>
</svg>
