<?xml version="1.0" encoding="utf-8"?>
<!-- Generator: Adobe Illustrator 24.0.1, SVG Export Plug-In . SVG Version: 6.00 Build 0)  -->
<svg version="1.1" id="Capa_1" xmlns="http://www.w3.org/2000/svg" xmlns:xlink="http://www.w3.org/1999/xlink" x="0px" y="0px"
	 viewBox="0 0 35 60" style="enable-background:new 0 0 35 60;" xml:space="preserve">
<style type="text/css">
	.st0{fill:#FFFFFF;}
</style>
<path class="st0" d="M0,33.7l5.8,0.4v15.5c0,2.5,2,4.5,4.4,4.5s4.4-2,4.4-4.5v-9l5.8,0.4v7.5c0,2.5,2,4.5,4.4,4.5s4.4-2,4.4-4.5
	V36.2l5.8,0.5v11.9C35,54.3,30.4,59,24.8,59c-2.6,0-5-1-6.8-2.6c-1.9,2.2-4.7,3.7-7.8,3.7C4.6,60,0,55.4,0,49.7V33.7z M0,26.7
	l5.8,0.5v-9.3C5.8,11.3,11,6,17.5,6s11.7,5.3,11.7,11.8L29,29.1l5.9,0.5V17.7C35,7.9,27.1,0,17.5,0S0,7.9,0,17.7L0,26.7z M35,48.6
	 M11.6,27.6l11.6,1v-6l-11.6-1V27.6z"/>
</svg>
