<?xml version="1.0" encoding="utf-8"?>
<!-- Generator: Adobe Illustrator 24.0.1, SVG Export Plug-In . SVG Version: 6.00 Build 0)  -->
<svg version="1.1" id="Capa_1" xmlns="http://www.w3.org/2000/svg" xmlns:xlink="http://www.w3.org/1999/xlink" x="0px" y="0px"
	 viewBox="0 0 327.6 100" style="enable-background:new 0 0 327.6 100;" xml:space="preserve">
<style type="text/css">
	.st0{fill:#FFFFFF;}
</style>
<path id="Trazado_54" class="st0" d="M0,82.9c0,10.9,5.1,16.4,15.3,16.4c10.4,0,15.5-5.5,15.5-16.4V17c0-10.9-5.2-16.4-15.5-16.4
	C5.1,0.6,0,6.1,0,17V82.9z M20.1,82.9c0,3.8-1.6,5.6-4.8,5.6c-3,0-4.5-1.9-4.5-5.6V17c0-3.7,1.5-5.5,4.5-5.5c3.2,0,4.8,1.8,4.8,5.5
	V82.9z M56.1,98.3V1.7H45.3v96.6H56.1z M100.7,98.3V87.3H81.2l19.4-75.8V1.7H70.8v10.5h19.1L70,87.3v11.1H100.7z"/>
</svg>
