<svg id="Capa_1" data-name="Capa 1" xmlns="http://www.w3.org/2000/svg" viewBox="0 0 416.9 407.75"><defs><style>.cls-1{fill:#f7b861;}.cls-2,.cls-3,.cls-4,.cls-5{fill:none;stroke-miterlimit:10;}.cls-2,.cls-3,.cls-5{stroke:#bfbfbf;stroke-width:50px;}.cls-2,.cls-8{opacity:0.66;}.cls-4{stroke:#f7b861;stroke-width:70px;}.cls-5,.cls-6{opacity:0.33;}.cls-7{fill:#bfbfbf;}</style></defs><title>onda_graphic</title><path class="cls-1" d="M439.405,160.162v-2.941l6-9.269q.66-1.02,1.245-1.951a10.586,10.586,0,0,0,.96-1.934,6.261,6.261,0,0,0,.375-2.205,3.725,3.725,0,0,0-.48-2.07,1.675,1.675,0,0,0-1.5-.72,2.022,2.022,0,0,0-1.5.54,2.8,2.8,0,0,0-.734,1.41,8.724,8.724,0,0,0-.2,1.92v1.019H439.5v-1.08a10.305,10.305,0,0,1,.645-3.795,5.335,5.335,0,0,1,2.055-2.564,6.6,6.6,0,0,1,3.69-.931,6.085,6.085,0,0,1,4.68,1.681,6.62,6.62,0,0,1,1.56,4.68,8.273,8.273,0,0,1-.42,2.715,11.55,11.55,0,0,1-1.11,2.325q-.69,1.11-1.5,2.28l-4.98,7.56h7.38v3.33Z" transform="translate(-50.525 -34.687)"/><path class="cls-1" d="M461.1,160.522a6.4,6.4,0,0,1-3.526-.9,5.572,5.572,0,0,1-2.1-2.491,8.944,8.944,0,0,1-.705-3.66V142.7a9.586,9.586,0,0,1,.674-3.736,5.4,5.4,0,0,1,2.071-2.5,7.6,7.6,0,0,1,7.17,0,5.4,5.4,0,0,1,2.07,2.5,9.585,9.585,0,0,1,.675,3.736v10.769a8.961,8.961,0,0,1-.7,3.66,5.574,5.574,0,0,1-2.1,2.491A6.4,6.4,0,0,1,461.1,160.522Zm0-3.57a1.648,1.648,0,0,0,1.38-.571,3.1,3.1,0,0,0,.6-1.38,8.71,8.71,0,0,0,.15-1.589V142.761a10.312,10.312,0,0,0-.135-1.665,2.981,2.981,0,0,0-.585-1.394,2.026,2.026,0,0,0-2.82,0,2.971,2.971,0,0,0-.585,1.394,10.312,10.312,0,0,0-.135,1.665v10.651A7.943,7.943,0,0,0,459.13,155a3.2,3.2,0,0,0,.615,1.38A1.613,1.613,0,0,0,461.1,156.952Z" transform="translate(-50.525 -34.687)"/><path class="cls-1" d="M236.222,261.051a9.755,9.755,0,0,1-5.488-1.312,6.715,6.715,0,0,1-2.691-3.718,19.182,19.182,0,0,1-.743-5.641h5.905a18.533,18.533,0,0,0,.241,3.171,4.043,4.043,0,0,0,.961,2.142,2.657,2.657,0,0,0,2.122.723,2.378,2.378,0,0,0,2.165-.984,6.24,6.24,0,0,0,.808-2.756q.174-1.771.176-4.133a23.352,23.352,0,0,0-.241-3.588,4.925,4.925,0,0,0-.939-2.383,2.669,2.669,0,0,0-2.187-.853,2.8,2.8,0,0,0-2.1.853,5.16,5.16,0,0,0-1.225,2.253h-5.2l.348-19.726h15.922v5.423H233.205l-.351,8.529a4.545,4.545,0,0,1,1.9-1.268,9.153,9.153,0,0,1,2.776-.569,6.838,6.838,0,0,1,4.55,1.18,7.6,7.6,0,0,1,2.58,3.807,18.909,18.909,0,0,1,.832,5.947,33.255,33.255,0,0,1-.373,5.162,11.682,11.682,0,0,1-1.377,4.09,6.966,6.966,0,0,1-2.822,2.689A10.022,10.022,0,0,1,236.222,261.051Z" transform="translate(-50.525 -34.687)"/><path class="cls-1" d="M258.573,261.051a9.309,9.309,0,0,1-5.14-1.312,8.109,8.109,0,0,1-3.061-3.631,13.011,13.011,0,0,1-1.029-5.335v-15.7a13.963,13.963,0,0,1,.984-5.445,7.854,7.854,0,0,1,3.018-3.652,11.061,11.061,0,0,1,10.454,0,7.856,7.856,0,0,1,3.019,3.652,13.963,13.963,0,0,1,.984,5.445v15.7a13.076,13.076,0,0,1-1.028,5.335,8.137,8.137,0,0,1-3.062,3.631A9.308,9.308,0,0,1,258.573,261.051Zm0-5.2a2.406,2.406,0,0,0,2.012-.832A4.514,4.514,0,0,0,261.46,253a12.882,12.882,0,0,0,.219-2.318V235.159a15.044,15.044,0,0,0-.2-2.428,4.335,4.335,0,0,0-.853-2.033,2.956,2.956,0,0,0-4.112,0,4.323,4.323,0,0,0-.851,2.033,14.711,14.711,0,0,0-.2,2.428v15.527a11.626,11.626,0,0,0,.24,2.318,4.688,4.688,0,0,0,.9,2.011A2.355,2.355,0,0,0,258.573,255.847Z" transform="translate(-50.525 -34.687)"/><path class="cls-2" d="M111.6,268.747a139.228,139.228,0,0,1,42.341-129.006" transform="translate(-50.525 -34.687)"/><path class="cls-3" d="M328.872,355.145a139.046,139.046,0,0,1-205.146-50.861q1.992,3.969,4.223,7.79A138.149,138.149,0,0,1,111.6,268.747" transform="translate(-50.525 -34.687)"/><path class="cls-4" d="M265.04,98.051a139.009,139.009,0,0,1,80.832,252.094" transform="translate(-50.525 -34.687)"/><path class="cls-5" d="M153.945,139.741a138.5,138.5,0,0,1,94.1-36.69" transform="translate(-50.525 -34.687)"/><g class="cls-6"><path class="cls-7" d="M175.825,55.437a4.651,4.651,0,0,1-4.762-3.263,10.046,10.046,0,0,1-.538-3.387v-7.1a13.057,13.057,0,0,1,.45-3.562,4.8,4.8,0,0,1,1.6-2.513,5.024,5.024,0,0,1,3.225-.925,6.174,6.174,0,0,1,2.888.587,3.63,3.63,0,0,1,1.637,1.713,6.541,6.541,0,0,1,.525,2.774,1.193,1.193,0,0,0,.012.163,1.076,1.076,0,0,1,.013.162H177.55a4.867,4.867,0,0,0-.325-2.024,1.394,1.394,0,0,0-1.4-.676,1.419,1.419,0,0,0-1.05.4,2.565,2.565,0,0,0-.587,1.312A12.617,12.617,0,0,0,174,41.537v2.424a2.4,2.4,0,0,1,1.063-.912,3.841,3.841,0,0,1,1.662-.338,3.993,3.993,0,0,1,2.6.726,4.12,4.12,0,0,1,1.363,2.074,10.22,10.22,0,0,1,.412,3.026,11.6,11.6,0,0,1-.5,3.537,4.532,4.532,0,0,1-4.775,3.363Zm.025-2.676a1.35,1.35,0,0,0,1.1-.449,2.709,2.709,0,0,0,.525-1.25,10.284,10.284,0,0,0,.15-1.875q0-1.1-.087-1.963a2.777,2.777,0,0,0-.463-1.375,1.445,1.445,0,0,0-1.25-.513,1.89,1.89,0,0,0-.787.164,2.177,2.177,0,0,0-.625.412,2.422,2.422,0,0,0-.413.5v3.174a7.162,7.162,0,0,0,.163,1.576,2.422,2.422,0,0,0,.574,1.162A1.455,1.455,0,0,0,175.85,52.761Z" transform="translate(-50.525 -34.687)"/></g><g class="cls-8"><path class="cls-7" d="M55.8,189.437a5.55,5.55,0,0,1-3.1-.775,4.229,4.229,0,0,1-1.675-2.162,9.451,9.451,0,0,1-.5-3.213,7.462,7.462,0,0,1,.163-1.613,5.382,5.382,0,0,1,.474-1.338,4.532,4.532,0,0,1,.763-1.062,4,4,0,0,1,1.025-.763,5.05,5.05,0,0,1-1.512-1.712,5.74,5.74,0,0,1-.638-2.762,7.029,7.029,0,0,1,.537-2.863A3.874,3.874,0,0,1,53,169.324a5.611,5.611,0,0,1,2.8-.637,5.455,5.455,0,0,1,2.8.649,3.982,3.982,0,0,1,1.637,1.851,6.677,6.677,0,0,1,.513,2.85,5.948,5.948,0,0,1-.613,2.775,4.842,4.842,0,0,1-1.487,1.7,4.022,4.022,0,0,1,1.025.763,4.532,4.532,0,0,1,.763,1.062,5.422,5.422,0,0,1,.474,1.338,7.462,7.462,0,0,1,.163,1.613,8.906,8.906,0,0,1-.488,3.213,4.314,4.314,0,0,1-1.675,2.162A5.538,5.538,0,0,1,55.8,189.437Zm0-2.625a1.511,1.511,0,0,0,1.237-.5,2.6,2.6,0,0,0,.538-1.263,9.675,9.675,0,0,0,.125-1.562,7.594,7.594,0,0,0-.125-1.638,2.808,2.808,0,0,0-.563-1.287,1.479,1.479,0,0,0-1.212-.5,1.45,1.45,0,0,0-1.188.5,2.909,2.909,0,0,0-.575,1.274,8.068,8.068,0,0,0-.162,1.651,8.972,8.972,0,0,0,.137,1.575,2.547,2.547,0,0,0,.563,1.262A1.537,1.537,0,0,0,55.8,186.812Zm0-9.676a1.316,1.316,0,0,0,.987-.437,2.438,2.438,0,0,0,.513-1.137,8.185,8.185,0,0,0,.15-1.65,4.076,4.076,0,0,0-.375-1.875,1.318,1.318,0,0,0-1.275-.725,1.377,1.377,0,0,0-1.288.725,3.7,3.7,0,0,0-.412,1.849,7.776,7.776,0,0,0,.162,1.663,2.472,2.472,0,0,0,.538,1.15A1.357,1.357,0,0,0,55.8,177.136Z" transform="translate(-50.525 -34.687)"/></g><path class="cls-7" d="M157.125,442.161V425.736a5.749,5.749,0,0,1-.587.225c-.292.1-.613.2-.963.288s-.671.179-.962.262a6.049,6.049,0,0,0-.613.2v-2.575q.35-.125.875-.35c.35-.15.721-.32,1.113-.513a8.647,8.647,0,0,0,1.1-.637,4.329,4.329,0,0,0,.838-.725h2.65v20.25Z" transform="translate(-50.525 -34.687)"/><path class="cls-7" d="M169.825,442.437a4.651,4.651,0,0,1-4.762-3.263,10.056,10.056,0,0,1-.538-3.388v-7.1a13.064,13.064,0,0,1,.45-3.563,4.8,4.8,0,0,1,1.6-2.513,5.024,5.024,0,0,1,3.225-.924,6.187,6.187,0,0,1,2.888.586,3.63,3.63,0,0,1,1.637,1.713,6.543,6.543,0,0,1,.525,2.775,1.2,1.2,0,0,0,.012.163,1.057,1.057,0,0,1,.013.162H171.55a4.867,4.867,0,0,0-.325-2.024,1.393,1.393,0,0,0-1.4-.676,1.422,1.422,0,0,0-1.05.4,2.568,2.568,0,0,0-.587,1.313,12.605,12.605,0,0,0-.188,2.437v2.425a2.393,2.393,0,0,1,1.063-.912,3.826,3.826,0,0,1,1.662-.338,3.987,3.987,0,0,1,2.6.726,4.12,4.12,0,0,1,1.363,2.074,10.213,10.213,0,0,1,.412,3.025,11.59,11.59,0,0,1-.5,3.537,4.534,4.534,0,0,1-4.775,3.364Zm.025-2.676a1.353,1.353,0,0,0,1.1-.449,2.709,2.709,0,0,0,.525-1.25,10.3,10.3,0,0,0,.15-1.875q0-1.1-.087-1.963a2.77,2.77,0,0,0-.463-1.375,1.445,1.445,0,0,0-1.25-.513,1.905,1.905,0,0,0-.787.163,2.177,2.177,0,0,0-.625.412,2.422,2.422,0,0,0-.413.5v3.175a7.152,7.152,0,0,0,.163,1.575,2.417,2.417,0,0,0,.574,1.162A1.456,1.456,0,0,0,169.85,439.761Z" transform="translate(-50.525 -34.687)"/></svg>