<?xml version="1.0" encoding="utf-8"?>
<!-- Generator: Adobe Illustrator 24.0.1, SVG Export Plug-In . SVG Version: 6.00 Build 0)  -->
<svg version="1.1" id="Capa_1" xmlns="http://www.w3.org/2000/svg" xmlns:xlink="http://www.w3.org/1999/xlink" x="0px" y="0px"
	 viewBox="0 0 327.6 100" style="enable-background:new 0 0 327.6 100;" xml:space="preserve">
<style type="text/css">
	.st0{fill:#FFFFFF;}
</style>
<path id="Trazado_55" class="st0" d="M0,82.9c0,10.9,5.1,16.4,15.3,16.4c10.4,0,15.5-5.5,15.5-16.4V17c0-10.9-5.2-16.4-15.5-16.4
	C5.1,0.6,0,6.1,0,17V82.9z M20.1,82.9c0,3.8-1.6,5.6-4.8,5.6c-3,0-4.5-1.9-4.5-5.6V17c0-3.7,1.5-5.5,4.5-5.5c3.2,0,4.8,1.8,4.8,5.5
	V82.9z M78.5,98.3V1.7h-9.3v55.8c0,3.4,0.1,6.6,0.2,9.7l-12-65.5H44.8v96.6H54v-41c0-4,0-8-0.1-12c0-4-0.1-8-0.2-11.9L68,98.3H78.5z
	 M108.6,98.3c10.4,0,15.5-5.5,15.5-16.5V18.2c0-5.2-1.3-9.3-3.9-12.2s-6.5-4.3-11.7-4.3H93.3v96.6H108.6z M113.4,81.8
	c0,3.8-1.6,5.6-4.8,5.6h-4.4V12.6h4.4c3.2,0,4.8,1.9,4.8,5.6V81.8z M170.9,98.3L159,1.7h-12.6l-12.6,96.6h10.6l1.8-14.9h11.9
	l1.8,14.9H170.9z M147.4,73.4c0.9-7.2,1.8-14.4,2.6-21.6s1.6-14.7,2.3-22.3c0.7,7.6,1.5,14.9,2.3,22.1s1.6,14.4,2.5,21.8H147.4z"/>
</svg>
