<?xml version="1.0" encoding="utf-8"?>
<!-- Generator: Adobe Illustrator 24.0.1, SVG Export Plug-In . SVG Version: 6.00 Build 0)  -->
<svg version="1.1" id="Capa_1" xmlns="http://www.w3.org/2000/svg" xmlns:xlink="http://www.w3.org/1999/xlink" x="0px" y="0px"
	 viewBox="0 0 407.6 100" style="enable-background:new 0 0 407.6 100;" xml:space="preserve">
<style type="text/css">
	.st0{fill:#FFFFFF;}
</style>
<path id="Trazado_55" class="st0" d="M0,82.9c0,10.9,5.1,16.4,15.3,16.4c10.4,0,15.5-5.5,15.5-16.4V17c0-10.9-5.2-16.4-15.5-16.4
	C5.1,0.6,0,6.1,0,17V82.9z M20.1,82.9c0,3.8-1.6,5.6-4.8,5.6c-3,0-4.5-1.9-4.5-5.6V17c0-3.7,1.5-5.5,4.5-5.5c3.2,0,4.8,1.8,4.8,5.5
	V82.9z M78.5,98.3V1.7h-9.3v55.8c0,3.4,0.1,6.6,0.2,9.7l-12-65.5H44.8v96.6H54v-41c0-4,0-8-0.1-12c0-4-0.1-8-0.2-11.9L68,98.3H78.5z
	 M108.6,98.3c10.4,0,15.5-5.5,15.5-16.5V18.2c0-5.2-1.3-9.3-3.9-12.2s-6.5-4.3-11.7-4.3H93.3v96.6H108.6z M113.4,81.8
	c0,3.8-1.6,5.6-4.8,5.6h-4.4V12.6h4.4c3.2,0,4.8,1.9,4.8,5.6V81.8z M170.9,98.3L159,1.7h-12.6l-12.6,96.6h10.6l1.8-14.9h11.9
	l1.8,14.9C159.9,98.3,170.9,98.3,170.9,98.3z M147.4,73.4c0.9-7.2,1.8-14.4,2.6-21.6s1.6-14.7,2.3-22.3c0.7,7.6,1.5,14.9,2.3,22.1
	s1.6,14.4,2.5,21.8C157.1,73.4,147.4,73.4,147.4,73.4z"/>
<path id="Trazado_56" class="st0" d="M216.6,98.3c5.4,0,9.4-1.3,11.9-3.9c2.6-2.6,3.9-6.8,3.9-12.5V58.3c0-3.1-0.6-5.4-1.9-7
	c-1.1-1.5-2.7-2.5-4.5-3c3.4-1.3,5.1-4.7,5.1-10.3V18.5c0-5.9-1.1-10.1-3.2-12.8s-5.9-4-11.3-4h-15.7v96.6H216.6z M221.1,39.1
	c0,3.3-1.5,5-4.4,5h-4.9V12.6h4.8c1.3-0.1,2.5,0.3,3.5,1.2c0.7,0.8,1,2.2,1,4.3V39.1z M221.3,81.8c0,3.8-1.6,5.6-4.8,5.6h-4.8V53.7
	h4.9c1.3-0.1,2.6,0.3,3.6,1.2c0.7,0.8,1,2.3,1,4.4L221.3,81.8z M272.5,98.3V87.4h-15.8V54.5h10.2v-11h-10.2V12.6H272V1.7h-26.2v96.6
	H272.5z M318.9,98.3V1.7h-9.3v55.8c0,3.4,0.1,6.6,0.2,9.7l-12-65.5h-12.6v96.6h9.2v-41c0-4,0-8-0.1-12c0-4-0.1-8-0.2-11.9l14.3,64.8
	L318.9,98.3z M353.2,82.9c0,3.8-1.5,5.6-4.5,5.6s-4.5-1.9-4.5-5.6V17c0-3.7,1.5-5.5,4.5-5.5c1.3-0.1,2.6,0.4,3.5,1.3
	c0.8,1.2,1.2,2.7,1,4.2v17.1h9.8V17c0-10.9-4.8-16.4-14.3-16.4c-10.4,0-15.5,5.5-15.5,16.6V83c0,10.8,5.2,16.3,15.5,16.3
	c5.1,0,8.8-1.3,11-4c2.2-2.7,3.3-6.8,3.3-12.5V62.9h-9.8V82.9z M407.6,98.3V1.7h-10.8v42h-9.2v-42h-10.9v96.6h10.9V54.5h9.2v43.8
	C396.8,98.3,407.6,98.3,407.6,98.3z"/>
</svg>
