<?xml version="1.0" encoding="utf-8"?>
<!-- Generator: Adobe Illustrator 24.0.1, SVG Export Plug-In . SVG Version: 6.00 Build 0)  -->
<svg version="1.1" id="Capa_1" xmlns="http://www.w3.org/2000/svg" xmlns:xlink="http://www.w3.org/1999/xlink" x="0px" y="0px"
	 viewBox="0 0 327.6 100" style="enable-background:new 0 0 327.6 100;" xml:space="preserve">
<style type="text/css">
	.st0{fill:#FFFFFF;}
</style>
<path id="Trazado_53" class="st0" d="M0,82.9c0,10.9,5.1,16.4,15.3,16.4c10.4,0,15.5-5.5,15.5-16.4V17c0-10.9-5.2-16.4-15.5-16.4
	C5.1,0.6,0,6.1,0,17V82.9z M20.1,82.9c0,3.8-1.6,5.6-4.8,5.6c-3,0-4.5-1.9-4.5-5.6V17c0-3.7,1.5-5.5,4.5-5.5c3.2,0,4.8,1.8,4.8,5.5
	V82.9z M77.8,98.3c-1.1-7.7-2.2-15.2-3.3-22.7s-2.3-15.2-3.8-23c2.1-1.2,3.7-3,4.8-5.1c1.2-2.8,1.7-5.8,1.6-8.8V19.1
	c0-6.4-1.4-10.8-4.3-13.5C69.9,3,65.7,1.7,60,1.7H45v96.6h11V54.8h4.4c1.1,7.4,2.1,14.7,3,21.8c0.9,7.1,1.7,14.3,2.6,21.8L77.8,98.3
	z M65.9,38.8c0,4.2-2,6.2-5.9,6.2h-4.2V12.6h4c2.6,0,4.3,0.7,5,2.1c0.8,2.1,1.2,4.4,1,6.6L65.9,38.8z M106.3,98.3
	c5.4,0,9.4-1.3,11.9-3.9c2.6-2.6,3.9-6.8,3.9-12.5V58.3c0-3.1-0.6-5.4-1.9-7c-1.1-1.5-2.7-2.5-4.5-3c3.4-1.3,5.1-4.7,5.1-10.3V18.5
	c0-5.9-1.1-10.1-3.2-12.8c-2.2-2.7-5.9-4-11.3-4H90.6v96.6H106.3z M110.8,39.1c0,3.3-1.5,5-4.4,5h-4.9V12.6h4.8
	c1.3-0.1,2.5,0.3,3.5,1.2c0.7,0.8,1,2.2,1,4.3V39.1z M111,81.8c0,3.8-1.6,5.6-4.8,5.6h-4.8V53.7h4.9c1.3-0.1,2.6,0.3,3.6,1.2
	c0.7,0.8,1,2.3,1,4.4v22.5H111z M162.2,98.3V87.4h-15.8V54.5h10.2v-11h-10.2V12.6h15.3V1.7h-26.2v96.6H162.2z M209.1,98.3L197.3,1.7
	h-12.6l-12.6,96.6h10.6l1.8-14.9h11.9l1.8,14.9H209.1z M185.7,73.4c0.9-7.2,1.8-14.4,2.6-21.6s1.6-14.7,2.3-22.3
	c0.7,7.6,1.5,14.9,2.3,22.1c0.8,7.1,1.6,14.4,2.5,21.8H185.7z"/>
</svg>
