<?xml version="1.0" encoding="utf-8"?>
<!-- Generator: Adobe Illustrator 24.0.1, SVG Export Plug-In . SVG Version: 6.00 Build 0)  -->
<svg version="1.1" id="Capa_1" xmlns="http://www.w3.org/2000/svg" xmlns:xlink="http://www.w3.org/1999/xlink" x="0px" y="0px"
	 viewBox="0 0 290 220" style="enable-background:new 0 0 290 220;" xml:space="preserve">
<style type="text/css">
	.st0{fill:#30CA99;}
	.st1{opacity:0.5;fill:url(#Elipse_16_1_);enable-background:new    ;}
	.st2{fill:none;stroke:#FFFFFF;stroke-miterlimit:10;}
	.st3{fill:none;}
	.st4{fill:#DDCEA1;stroke:#ECDAAF;stroke-width:1.5;stroke-miterlimit:10;}
	.st5{fill:#D0C099;}
	.st6{fill:#593A2F;}
	.st7{fill:#DDCEA1;}
	.st8{fill:#ECDAAF;}
	.st9{fill:none;stroke:#ECDAAF;stroke-width:1.5;stroke-miterlimit:10;}
	.st10{fill:none;stroke:#FFFFFF;stroke-width:0.9998;stroke-miterlimit:9.9979;}
	.st11{opacity:0.6;fill:#FFFFFF;enable-background:new    ;}
	.st12{opacity:0.5;fill:#11B471;enable-background:new    ;}
	.st13{fill:#B9AC85;}
	.st14{opacity:0.3;fill:#FFFFFF;enable-background:new    ;}
	.st15{opacity:0.5;fill:#FFFFFF;enable-background:new    ;}
	.st16{opacity:0.5;}
	.st17{fill:#11A96A;}
	.st18{fill:#2E1D17;}
	.st19{fill:#E0B697;}
	.st20{fill:#D0A78B;}
	.st21{opacity:0.751;}
	.st22{opacity:0.75;fill:#D0A78B;enable-background:new    ;}
</style>
<g id="Grupo_148" transform="translate(-53 -4370.211)">
	<g id="Grupo_132" transform="translate(-10 812)">
		<g id="Grupo_109" transform="translate(-51.163 3365.245)">
			<path id="Trazado_150" class="st0" d="M294.4,239.4c26.5,17.5,10.5,51.2,10.5,51.2s13.4,5.4,17.7,18s19,6,23.1,31.3
				s-9,58-40.7,54.7s-51.4-31.1-74.8-30s-53,13.2-62.4,9.7s-21.1-17.9-20.6-32.1s27.2-28.6,25.4-40.4s-30.2-33.3-29.6-57.1
				s21.7-36.8,34.5-33.3s35.9,27.5,52.7,30.3S264.1,223,294.4,239.4z"/>
			
				<radialGradient id="Elipse_16_1_" cx="-259.3947" cy="690.4186" r="1.169" gradientTransform="matrix(-74.8338 -13.4998 4.2757 -23.7015 -22126.1211 13176.3535)" gradientUnits="userSpaceOnUse">
				<stop  offset="0" style="stop-color:#138D50"/>
				<stop  offset="1" style="stop-color:#000000;stop-opacity:0"/>
			</radialGradient>
			<path id="Elipse_16" class="st1" d="M239.7,363.4c-64.4-11.6-113-40.8-108.6-65.2c4.4-24.4,60.2-34.8,124.5-23.2
				s113,40.8,108.6,65.2C359.8,364.7,304.1,375,239.7,363.4z"/>
			<path id="Trazado_151" class="st2" d="M261.6,378.8"/>
			<g id="Grupo_107" transform="translate(144.075 248.608)">
				<path id="Trazado_152" class="st2" d="M157.6,72.1"/>
				<path id="Trazado_153" class="st3" d="M185.4,51.3c-5.8,6.9-17.1,21.3-19.5,24.2c-2.9,3.7-7.4,3.7-13.1,2.4
					c-2.9-0.6-34.5-7.8-66.9-15.1c-3.5-0.8-3.8-2.7-1.7-4.3s28.5-23.4,30.2-24.9s4.3-2,9.1-1.2s55.1,10.4,58.6,11.2s7.5,2.8,4.6,6.1
					L185.4,51.3z"/>
				<path id="Trazado_155" class="st4" d="M152.5,77.9c-6-1.3-135.9-30.6-139.4-31.3s-6.5-2.5-1.4-5.4s34-20.4,35.5-21.4
					s4.4-2.6,10.7-1.2s120.8,23.2,124.9,24s7.9,2.6,5.1,5.4s-19.5,23.9-22.4,27.6S158.2,79.2,152.5,77.9z"/>
				<path id="Trazado_159" class="st5" d="M11.7,41.2c5.1-2.9,34-20.4,35.5-21.4c0.9-0.6,1.9-1.1,3-1.4c0.3-0.1,0.6,0,0.9,0.2
					c1.6,11.8-6.5,26.9-18.2,32.5c-11.3-2.5-18.9-4.2-19.8-4.4C9.5,45.8,6.6,44.1,11.7,41.2z"/>
				<path id="Trazado_166" class="st6" d="M47.6,27.8c3.3-1.8,4.7-2.2,10-1.2S112,37.4,112,37.4L80.8,61.8l-0.6,0.7
					c-28-6.3-54-11.9-64.4-14.2C26.1,41.8,45.4,29,47.6,27.8z"/>
				<path id="Trazado_158" class="st5" d="M80.7,61.7c-0.3-0.5-0.5-0.8-0.5-0.8L116.6,31c0,16.4-4.1,27.9-11.9,36.1L80.7,61.7z"/>
				<path id="Trazado_165" class="st6" d="M112.8,42.2c2.7-2.2,6-3,11.2-2c4,0.7,62.1,11.8,62.1,11.8s-17.6,22.6-19.8,25.3
					c-3.1,3.8-7.8,3.8-13.8,2.5c-2.9-0.6-32.9-7.4-65-14.6C94.8,58.6,110.8,43.8,112.8,42.2z"/>
				<path id="Trazado_154" class="st7" d="M13.1,46.5c3.5,0.7,133.7,30.1,139.7,31.4c5.7,1.3,10.2,1.3,13.1-2.4s19.6-24.8,22.4-27.7
					c0.5-0.5,0.9-1.1,1-1.8l0,0c0,8.6-3.8,29.2-13,42.7s-16.5,8.8-34.2,4.6S35.6,67.7,30.5,66.5s-13.4-2.9-16.6-7.7S9,49.4,9,44.2
					l0,0C9.2,45.3,11,46.1,13.1,46.5z"/>
				<path id="Trazado_156" class="st5" d="M166,75.5c2.9-3.7,19.6-24.8,22.4-27.7c0.5-0.5,0.9-1.1,1-1.8c0,8.6-3.8,29.2-13,42.7
					c-0.2,0.2-0.3,0.4-0.5,0.6C172.5,93.6,166,86.1,166,75.5z"/>
				<path id="Trazado_157" class="st5" d="M19.8,61.1c5.5,1.2,100.2,24.2,119.2,28.6s26.7,9.5,36.5-4.9c7.5-11,11.6-26.6,13.2-37.3
					c0.4-0.4,0.6-0.9,0.7-1.4c0,8.6-3.8,29.2-13,42.7s-16.5,8.8-34.2,4.6S35.6,67.7,30.5,66.5c-4.7-1.1-12-2.6-15.7-6.6l-1.6-2.1
					C15.1,59.5,17.4,60.6,19.8,61.1z"/>
				<path id="Trazado_160" class="st8" d="M125.5,32.7l-19.8-3.9c0,0,12.3,0.9,6.6,5.3s-27.6,22.4-30,24.4s-6.8,2.1-10.4,1.3
					L87,63.2c0,0-6.5-1.6-3.2-4.2s27.8-23.1,29.8-24.6S116.7,31.1,125.5,32.7z"/>
				<path id="Trazado_161" class="st9" d="M152.5,77.9c-6-1.3-135.9-30.6-139.4-31.3s-6.5-2.5-1.4-5.4s34-20.4,35.5-21.4
					s4.4-2.6,10.7-1.2s120.8,23.2,124.9,24s7.9,2.6,5.1,5.4s-19.5,23.9-22.4,27.6S158.2,79.2,152.5,77.9z"/>
			</g>
			<g id="Grupo_116" transform="translate(-360.039 -238.69)">
				<g id="Grupo_123" transform="matrix(0.996, -0.087, 0.087, 0.996, 545.329, 555.267)">
					<path id="Trazado_200" class="st10" d="M16.6,65.4"/>
					<path id="Trazado_201" class="st11" d="M71.4,31.5L56.4,53.8L10.5,38.5l-3.2-3.1L23,18.7l5.4,0.3L71.4,31.5z"/>
					<g id="Grupo_121" transform="translate(20.125 13.582)">
						<path id="Trazado_202" class="st12" d="M11.7,21.1c-0.6-0.1-1.1-0.4-1.5-0.9c-0.3-0.4-0.4-0.8-0.3-1.3c0-0.2,0.7-0.5,1.8,0.4
							s1,1.3,1,1.4S12.5,21.1,11.7,21.1z"/>
						<path id="Trazado_203" class="st12" d="M14.9,22.3c0.5-0.3,1.1-0.4,1.7-0.2c0.1,0,0.1,0,0.2,0h0c0,0,0.1,0,0.1,0l0,0
							c0,0,0.1,0,0.1,0.1l0,0c0.1,0.1,0.2,0.2,0.2,0.3c0,0.1,0.1,0.2,0,0.3c0,0.6-0.7,1-1.6,1.3c-0.6,0.2-1.3,0.1-1.9-0.3
							C13.8,23.3,14.2,22.6,14.9,22.3z"/>
						<path id="Trazado_204" class="st12" d="M8.4,21.8L8.4,21.8c0.1,0,0.1-0.1,0.2-0.1C8.4,20.8,9,20,9.8,19.9
							c0.8-0.2,1.6,0.4,1.8,1.2c0.1,0.6-0.2,1.3-0.8,1.6c0.3,0,0.7,0,1,0c0.1,0,0.1,0,0.2,0l0,0c0.1,0,0.1,0,0.2,0.1l0,0
							c0.1,0,0.1,0,0.2,0.1l0,0c0.1,0,0.1,0.1,0.2,0.1l0,0c0.1,0,0.1,0.1,0.2,0.1l0,0c0.1,0,0.1,0.1,0.2,0.2l0,0
							c0.1,0.1,0.1,0.1,0.2,0.2l0,0c0,0.1,0.1,0.1,0.1,0.2c0,0,0,0,0,0s0,0,0,0c0.1,0.2,0.1,0.5,0.1,0.7c-0.2,1.1-1.9,0.6-2.4,0.3
							c-0.6-0.3-1-0.9-1-1.6c-0.2,0.2-0.5,0.3-0.7,0.4c-0.7,0.4-1.6,0.3-2.1-0.3C7.3,23.1,7.4,22.3,8.4,21.8z"/>
						<path id="Trazado_205" class="st12" d="M14.5,21.9c-1.1-0.4-1.3-1.2-1.2-1.6v0c0,0,0-0.1,0-0.1l0,0c0,0,0-0.1,0-0.1
							c0.6-0.3,1.3-0.3,2-0.1c0.7,0.2,1.4,0.7,1.7,1.4C16.3,22,15.3,22.2,14.5,21.9z"/>
					</g>
					<g id="Grupo_122" transform="translate(20.125 13.007)">
						<path id="Trazado_206" class="st13" d="M9.9,18.9c-0.1,0.5,0.1,0.9,0.3,1.3c0.4,0.5,0.9,0.8,1.5,0.9c0.8,0.1,1-0.3,1-0.4
							s0.1-0.6-1-1.4S10,18.7,9.9,18.9z"/>
						<path id="Trazado_207" class="st7" d="M11.7,19.2c1.1,0.8,1,1.3,1,1.4c-0.4,0.3-1.1,0.2-1.8-0.4c-0.4-0.3-0.8-0.8-1-1.3
							C10,18.7,10.7,18.4,11.7,19.2z"/>
						<path id="Trazado_208" class="st13" d="M10.2,22.8c0.6-0.1,1.1-0.1,1.7-0.1c0.6,0.1,2,0.6,1.8,1.8c-0.2,1.1-1.9,0.6-2.4,0.3
							C10.5,24.5,10,23.7,10.2,22.8z"/>
						<path id="Trazado_209" class="st7" d="M13.6,23.9c0.2,1-1.2,1-2.3,0.4c-0.6-0.2-1-0.7-1.1-1.4c0,0,0,0,0-0.1
							c0.6-0.1,1.1-0.1,1.7-0.1C12.6,22.8,13.2,23.2,13.6,23.9z"/>
						<path id="Trazado_210" class="st13" d="M14.9,22.3c-0.7,0.3-1.1,0.9-1.2,1.7c0.6,0.3,1.3,0.4,1.9,0.3c0.9-0.3,1.6-0.7,1.6-1.3
							c0-0.4-0.2-0.8-0.7-0.8c0,0,0,0,0,0C16,22,15.4,22,14.9,22.3z"/>
						<path id="Trazado_211" class="st7" d="M14.9,22.3c0.5-0.3,1.1-0.4,1.7-0.2c0.1,0,0.1,0,0.2,0c0.3,0.1,0.9,0.6-0.3,1.2
							c-0.9,0.4-1.8,0.6-2.7,0.6C13.8,23.3,14.2,22.6,14.9,22.3z"/>
						<path id="Trazado_212" class="st13" d="M11.6,21.6c-1-0.4-2.1-0.3-3,0.1c-1.2,0.5-1.3,1.4-1.2,1.7c0.5,0.6,1.4,0.7,2.1,0.3
							C10.4,23.3,11.2,22.5,11.6,21.6z"/>
						<path id="Trazado_213" class="st7" d="M9.4,23.3c-0.5,0.2-1.7-0.1-1-1.5l0,0c0.1,0,0.1-0.1,0.2-0.1c1-0.4,2-0.4,3-0.1
							C11.1,22.4,10.3,23,9.4,23.3z"/>
						<path id="Trazado_214" class="st13" d="M15.3,20c-0.6-0.2-1.4-0.2-2,0.1c-0.2,0.2-0.2,1.3,1.2,1.8c0.9,0.3,1.8,0.2,2.5-0.4
							C16.7,20.8,16,20.3,15.3,20z"/>
						<path id="Trazado_215" class="st7" d="M15.3,20c0.7,0.2,1.4,0.7,1.7,1.4c-0.7,0.2-1.5,0.2-2.1-0.1c-1.2-0.4-1.6-0.7-1.6-1
							c0-0.1,0-0.2,0.1-0.2C13.9,19.8,14.7,19.8,15.3,20z"/>
					</g>
					<path id="Trazado_216" class="st14" d="M71.4,31.5L56.4,53.8L13.2,39.4C17.5,29,30.7,19.6,30.7,19.6L71.4,31.5z"/>
					<path id="Trazado_217" class="st14" d="M71.4,31.5L56.4,53.8c0,0-31.9-15.3-33.2-18.5c2-5.5,4.5-10.7,7.5-15.7L71.4,31.5z"/>
					<path id="Rectángulo_33" class="st15" d="M23.9,22L11.7,35.3c-0.5,0.5-1.4,0.6-1.9,0.1l0,0c-0.5-0.5-0.6-1.4-0.1-1.9
						l12.3-13.3c0.5-0.5,1.4-0.6,1.9-0.1l0,0C24.4,20.6,24.4,21.5,23.9,22z"/>
				</g>
				<g id="Grupo_116-2" transform="translate(537.202 556.883)" class="st16">
					<path id="Trazado_167" class="st17" d="M14.4,21.5c0.6-0.1,1.1-0.4,1.5-0.9c0.3-0.4,0.4-0.8,0.3-1.3c0-0.2-0.7-0.4-1.8,0.4
						s-1,1.3-1,1.4S13.7,21.6,14.4,21.5z"/>
					<path id="Trazado_168" class="st17" d="M11.3,22.8c-0.5-0.3-1.1-0.4-1.7-0.2c-0.1,0-0.1,0-0.2,0h0c0,0-0.1,0-0.1,0l0,0
						c0,0-0.1,0-0.1,0.1l0,0C9.1,22.8,9,22.9,9,23.1c0,0.1,0,0.2,0,0.3c0,0.6,0.7,1,1.6,1.3c0.6,0.2,1.3,0.1,1.9-0.3
						C12.4,23.7,11.9,23.1,11.3,22.8z"/>
					<path id="Trazado_169" class="st17" d="M18.8,23.8c0.1-0.3,0-1-1-1.6l0,0c-0.1,0-0.1-0.1-0.2-0.1c-0.3-0.1-0.5-0.2-0.8-0.3
						c-0.7-0.1-1.5-0.1-2.2,0.2c0.2,0.4,0.5,0.8,0.8,1.1c-0.3,0-0.7,0-1,0c-0.1,0-0.1,0-0.2,0l0,0c-0.1,0-0.1,0-0.2,0.1l0,0
						c-0.1,0-0.1,0-0.2,0.1l0,0c-0.1,0-0.1,0.1-0.2,0.1l0,0c-0.1,0-0.1,0.1-0.2,0.1l0,0c-0.1,0-0.1,0.1-0.2,0.2l0,0
						c-0.1,0.1-0.1,0.1-0.2,0.2l0,0c0,0.1-0.1,0.1-0.1,0.2c0,0,0,0,0,0s0,0,0,0c-0.1,0.2-0.1,0.5-0.1,0.7c0.2,1.1,1.9,0.6,2.4,0.3
						c0.6-0.3,1-0.9,1-1.6c0.2,0.2,0.5,0.3,0.7,0.4C17.4,24.6,18.2,24.4,18.8,23.8z"/>
					<path id="Trazado_170" class="st17" d="M11.7,22.3c1.1-0.4,1.3-1.2,1.2-1.6v0c0,0,0-0.1,0-0.1c0,0,0,0,0,0c0,0,0-0.1,0-0.1
						c-0.6-0.3-1.3-0.3-2-0.1c-0.5,0.2-0.9,0.4-1.3,0.8c-0.2,0.2-0.3,0.4-0.4,0.6l0,0C9.8,22.5,10.8,22.7,11.7,22.3z"/>
					<path id="Trazado_171" class="st17" d="M23.6,24.5c0.6-0.1,1.1-0.4,1.5-0.9c0.3-0.4,0.4-0.8,0.3-1.3c0-0.2-0.7-0.4-1.8,0.4
						s-1,1.3-1,1.4S22.8,24.6,23.6,24.5z"/>
					<path id="Trazado_172" class="st17" d="M25.3,25.6c-0.1-0.1-0.2-0.2-0.2-0.3c-0.2-0.1-0.3-0.3-0.5-0.3
						c-0.5-0.3-1.1-0.4-1.7-0.2c-0.1,0-0.1,0-0.2,0h0c0,0-0.1,0-0.1,0l0,0c0,0-0.1,0-0.1,0.1l0,0c-0.1,0.1-0.2,0.2-0.2,0.3
						c0,0.1,0,0.2,0,0.3c0,0.6,0.7,1,1.6,1.3c0.6,0.2,1.3,0.1,1.9-0.3C25.7,26.2,25.6,25.9,25.3,25.6L25.3,25.6z"/>
					<path id="Trazado_173" class="st17" d="M22,24.6L22,24.6c0,0,0-0.1,0-0.1l0,0c0,0,0-0.1,0-0.1c-0.6-0.3-1.3-0.3-2-0.1
						c-0.7,0.2-1.4,0.7-1.7,1.4c0.7,0.6,1.7,0.8,2.5,0.4C21.9,25.7,22.1,25,22,24.6L22,24.6z"/>
					<path id="Trazado_174" class="st17" d="M18.6,21.9c0.6,0.2,1.3,0.1,1.9-0.3c-0.1-0.7-0.5-1.3-1.2-1.7c-0.5-0.3-1.1-0.4-1.7-0.2
						c-0.1,0-0.1,0-0.2,0h0c0,0-0.1,0-0.1,0l0,0c0,0-0.1,0-0.1,0.1l0,0c-0.1,0.1-0.2,0.2-0.2,0.3c0,0.1,0,0.2,0,0.3
						C17,21.2,17.7,21.6,18.6,21.9z"/>
					<path id="Trazado_175" class="st17" d="M25.8,19.4L25.8,19.4c-0.1,0-0.1-0.1-0.2-0.1c-0.8-0.3-1.6-0.4-2.4-0.2
						c0.1-0.2,0.2-0.5,0.2-0.7v0c0,0,0-0.1,0-0.1l0,0c0,0,0-0.1,0-0.1c0,0-0.1-0.1-0.1-0.1C23.1,18,22.9,18,22.8,18
						c-0.1,0-0.2,0-0.3,0s-0.2,0-0.3,0c-0.3,0-0.6,0.1-0.9,0.1c-0.1,0-0.3,0.1-0.4,0.2c-0.1,0.1-0.2,0.1-0.3,0.2
						c-0.3,0.2-0.5,0.4-0.7,0.7c-0.1,0.1-0.2,0.3-0.3,0.4c0.7,0.6,1.7,0.8,2.5,0.4c0.2-0.1,0.4-0.2,0.6-0.3c0.2,0.3,0.4,0.5,0.6,0.8
						c-0.3,0-0.7,0-1,0c-0.1,0-0.1,0-0.2,0l0,0c-0.1,0-0.1,0-0.2,0.1l0,0c-0.1,0-0.1,0-0.2,0.1l0,0c-0.1,0-0.1,0.1-0.2,0.1l0,0
						c-0.1,0-0.1,0.1-0.2,0.1l0,0C21.1,20.9,21,21,21,21l0,0c-0.1,0.1-0.1,0.1-0.2,0.2l0,0c0,0.1-0.1,0.1-0.1,0.2c0,0,0,0,0,0
						s0,0,0,0c-0.1,0.2-0.1,0.5-0.1,0.7c0.2,1.1,1.9,0.6,2.4,0.3c0.6-0.3,1-0.9,1-1.6c0.2,0.2,0.5,0.3,0.7,0.4
						c0.7,0.4,1.5,0.3,2.1-0.3C26.9,20.8,26.8,20,25.8,19.4z"/>
				</g>
				<g id="Grupo_117" transform="translate(537.202 557.626)">
					<path id="Trazado_176" class="st13" d="M16.2,18.1c0.1,0.5-0.1,0.9-0.3,1.3c-0.4,0.5-0.9,0.8-1.5,0.9c-0.8,0.1-1-0.3-1-0.4
						s-0.1-0.6,1-1.4S16.2,18,16.2,18.1z"/>
					<path id="Trazado_177" class="st7" d="M14.4,18.5c-1.1,0.8-1,1.3-1,1.4c0.4,0.3,1.1,0.2,1.8-0.4c0.4-0.3,0.8-0.8,1-1.3
						C16.2,18,15.5,17.7,14.4,18.5z"/>
					<path id="Trazado_178" class="st13" d="M16,22.1C15.4,22,14.8,22,14.3,22c-0.6,0.1-2,0.6-1.8,1.8c0.2,1.1,1.9,0.6,2.4,0.3
						C15.7,23.7,16.1,22.9,16,22.1z"/>
					<path id="Trazado_179" class="st7" d="M12.6,23.1c-0.2,1,1.2,1,2.3,0.4c0.6-0.2,1-0.7,1.1-1.3c0,0,0,0,0-0.1
						C15.4,22,14.8,22,14.3,22C13.6,22.1,12.9,22.5,12.6,23.1z"/>
					<path id="Trazado_180" class="st13" d="M11.3,21.6c0.7,0.3,1.1,0.9,1.2,1.7c-0.6,0.3-1.2,0.4-1.9,0.3C9.7,23.2,9,22.8,9,22.2
						c0-0.4,0.2-0.8,0.7-0.8c0,0,0,0,0,0C10.2,21.2,10.8,21.3,11.3,21.6z"/>
					<path id="Trazado_181" class="st7" d="M11.3,21.6c-0.5-0.3-1.1-0.4-1.7-0.2c-0.1,0-0.1,0-0.2,0c-0.3,0.1-0.9,0.6,0.3,1.2
						c0.9,0.4,1.8,0.6,2.7,0.6C12.4,22.5,11.9,21.9,11.3,21.6z"/>
					<path id="Trazado_182" class="st13" d="M14.5,20.9c1-0.4,2-0.3,3,0.1c1.2,0.5,1.3,1.4,1.2,1.7c-0.5,0.6-1.4,0.7-2.1,0.3
						C15.7,22.6,15,21.8,14.5,20.9z"/>
					<path id="Trazado_183" class="st7" d="M16.7,22.5c0.5,0.1,1.7-0.1,1-1.5l0,0c-0.1,0-0.1-0.1-0.2-0.1c-1-0.4-2-0.4-3-0.1
						C15.1,21.7,15.8,22.2,16.7,22.5z"/>
					<path id="Trazado_184" class="st13" d="M10.9,19.3c0.6-0.2,1.3-0.2,2,0.1c0.2,0.2,0.2,1.3-1.1,1.8c-0.9,0.3-1.8,0.2-2.5-0.4
						C9.5,20,10.1,19.5,10.9,19.3z"/>
					<path id="Trazado_185" class="st7" d="M10.9,19.3c-0.7,0.2-1.4,0.7-1.7,1.4c0.7,0.2,1.5,0.2,2.1-0.1c1.2-0.4,1.6-0.7,1.6-1
						c0-0.1,0-0.2-0.1-0.2C12.2,19.1,11.5,19.1,10.9,19.3z"/>
				</g>
				<g id="Grupo_118" transform="translate(546.518 560.587)">
					<path id="Trazado_186" class="st13" d="M16.1,18.1c0.1,0.5-0.1,0.9-0.3,1.3c-0.4,0.5-0.9,0.8-1.5,0.9c-0.8,0.1-1-0.3-1-0.4
						s-0.1-0.6,1-1.4S16.1,18,16.1,18.1z"/>
					<path id="Trazado_187" class="st7" d="M14.3,18.5c-1.1,0.8-1,1.3-1,1.4c0.4,0.3,1.1,0.2,1.8-0.4c0.4-0.3,0.8-0.8,1-1.3
						C16.1,18,15.4,17.7,14.3,18.5z"/>
					<path id="Trazado_188" class="st13" d="M15.3,20.8c0.7,0.3,1.1,0.9,1.2,1.7c-0.6,0.3-1.2,0.4-1.9,0.3C13.7,22.4,13,22,13,21.4
						c0-0.4,0.2-0.8,0.7-0.8c0,0,0,0,0,0C14.2,20.5,14.8,20.6,15.3,20.8z"/>
					<path id="Trazado_189" class="st7" d="M15.3,20.8c-0.5-0.3-1.1-0.4-1.7-0.2c-0.1,0-0.1,0-0.2,0c-0.3,0.1-0.9,0.6,0.3,1.2
						c0.9,0.4,1.8,0.6,2.7,0.6C16.4,21.8,15.9,21.1,15.3,20.8z"/>
					<path id="Trazado_190" class="st13" d="M10.7,20.1c0.6-0.2,1.3-0.2,2,0.1c0.2,0.2,0.2,1.3-1.1,1.8c-0.9,0.3-1.8,0.2-2.5-0.4
						C9.3,20.9,9.9,20.4,10.7,20.1z"/>
					<path id="Trazado_191" class="st7" d="M10.7,20.1c-0.7,0.2-1.4,0.7-1.7,1.4c0.7,0.2,1.5,0.2,2.1-0.1c1.2-0.4,1.6-0.7,1.6-1
						c0-0.1,0-0.2-0.1-0.2C12,19.9,11.3,19.9,10.7,20.1z"/>
				</g>
				<g id="Grupo_119" transform="translate(545.256 556.445)">
					<path id="Trazado_198" class="st13" d="M13.3,18.1c0.6-0.2,1.3-0.2,2,0.1c0.2,0.2,0.2,1.3-1.1,1.8c-0.9,0.3-1.8,0.2-2.5-0.4
						C11.9,18.8,12.5,18.3,13.3,18.1z"/>
					<path id="Trazado_199" class="st7" d="M13.3,18.1c-0.7,0.2-1.4,0.7-1.7,1.4c0.7,0.2,1.5,0.2,2.1-0.1c1.2-0.4,1.6-0.7,1.6-1
						c0-0.1,0-0.2-0.1-0.2C14.6,17.9,13.9,17.9,13.3,18.1z"/>
					<path id="Trazado_192" class="st13" d="M16,20.5c-0.6-0.1-1.1-0.1-1.7-0.1c-0.6,0.1-2,0.6-1.8,1.8c0.2,1.1,1.9,0.6,2.4,0.3
						C15.7,22.1,16.1,21.3,16,20.5z"/>
					<path id="Trazado_193" class="st7" d="M12.6,21.5c-0.2,1,1.2,1,2.3,0.4c0.6-0.2,1-0.7,1.1-1.4c0,0,0,0,0-0.1
						c-0.6-0.1-1.1-0.1-1.7-0.1C13.6,20.5,12.9,20.9,12.6,21.5z"/>
					<path id="Trazado_194" class="st13" d="M11.3,20c0.7,0.3,1.1,0.9,1.2,1.7c-0.6,0.3-1.2,0.4-1.9,0.3C9.7,21.6,9,21.2,9,20.6
						c0-0.4,0.2-0.8,0.7-0.8c0,0,0,0,0,0C10.2,19.6,10.8,19.7,11.3,20z"/>
					<path id="Trazado_195" class="st7" d="M11.3,20c-0.5-0.3-1.1-0.4-1.7-0.2c-0.1,0-0.1,0-0.2,0c-0.3,0.1-0.9,0.6,0.3,1.2
						c0.9,0.4,1.8,0.6,2.7,0.6C12.4,20.9,11.9,20.3,11.3,20z"/>
					<path id="Trazado_196" class="st13" d="M14.5,19.3c1-0.4,2-0.3,3,0.1c1.2,0.5,1.3,1.4,1.2,1.7c-0.5,0.6-1.4,0.7-2.1,0.3
						C15.7,21,15,20.2,14.5,19.3z"/>
					<path id="Trazado_197" class="st7" d="M16.7,20.9c0.5,0.1,1.7-0.1,1-1.5l0,0c-0.1,0-0.1-0.1-0.2-0.1c-1-0.4-2-0.4-3-0.1
						C15.1,20.1,15.8,20.6,16.7,20.9z"/>
				</g>
			</g>
			<g id="Grupo_120" transform="translate(-272.039 -270.69)">
				<g id="Grupo_116-3" transform="translate(537.202 556.883)" class="st16">
					<path id="Trazado_169-2" class="st18" d="M18.8,23.8c0.1-0.3,0-1-1-1.6l0,0c-0.1,0-0.1-0.1-0.2-0.1c-0.3-0.1-0.5-0.2-0.8-0.3
						c-0.7-0.1-1.5-0.1-2.2,0.2c0.2,0.4,0.5,0.8,0.8,1.1c0.3,0.2,0.4,0.4,0.7,0.6c0.2,0.2,0.5,0.3,0.7,0.4
						C17.4,24.6,18.2,24.4,18.8,23.8z"/>
					<path id="Trazado_174-2" class="st18" d="M18.6,21.9c0.6,0.2,1.3,0.1,1.9-0.3c-0.1-0.7-0.5-1.3-1.2-1.7
						c-0.5-0.3-1.1-0.4-1.7-0.2c-0.1,0-0.1,0-0.2,0h0c0,0-0.1,0-0.1,0l0,0c0,0-0.1,0-0.1,0.1l0,0c-0.1,0.1-0.2,0.2-0.2,0.3
						c0,0.1,0,0.2,0,0.3C17,21.2,17.7,21.6,18.6,21.9z"/>
					<path id="Trazado_175-2" class="st18" d="M23.2,19.1c0.1-0.2,0.2-0.5,0.2-0.7v0c0,0,0-0.1,0-0.1l0,0c0,0,0-0.1,0-0.1
						c0,0-0.1-0.1-0.1-0.1C23.1,18,22.9,18,22.8,18c-0.1,0-0.2,0-0.3,0s-0.2,0-0.3,0c-0.3,0-0.6,0.1-0.9,0.1c-0.1,0-0.3,0.1-0.4,0.2
						c-0.1,0.1-0.2,0.1-0.3,0.2c-0.3,0.2-0.5,0.4-0.7,0.7c-0.1,0.1-0.2,0.3-0.3,0.4c0.7,0.6,1.7,0.8,2.5,0.4
						c0.2-0.1,0.4-0.2,0.6-0.3L23.2,19.1l0.4,1l-0.2,0.3c-0.3,0-0.7,0-1,0c-0.1,0-0.1,0-0.2,0l0,0c-0.1,0-0.1,0-0.2,0.1l0,0
						c-0.1,0-0.1,0-0.2,0.1l0,0c-0.1,0-0.1,0.1-0.2,0.1l0,0c-0.1,0-0.1,0.1-0.2,0.1l0,0C21.1,20.9,21,21,21,21l0,0
						c-0.1,0.1-0.1,0.1-0.2,0.2l0,0c0,0.1-0.1,0.1-0.1,0.2c0,0,0,0,0,0s0,0,0,0c-0.1,0.2-0.1,0.5-0.1,0.7c0.2,1.1,1.9,0.6,2.4,0.3
						c0.6-0.3,1-0.9,1-1.6l-0.5-0.8L23.2,19.1z"/>
				</g>
				<g id="Grupo_117-2" transform="translate(537.202 557.626)">
					<path id="Trazado_182-2" class="st13" d="M14.5,20.9c1-0.4,2-0.3,3,0.1c1.2,0.5,1.3,1.4,1.2,1.7c-0.5,0.6-1.4,0.7-2.1,0.3
						C15.7,22.6,15,21.8,14.5,20.9z"/>
					<path id="Trazado_183-2" class="st7" d="M16.7,22.5c0.5,0.1,1.7-0.1,1-1.5l0,0c-0.1,0-0.1-0.1-0.2-0.1c-1-0.4-2-0.4-3-0.1
						C15.1,21.7,15.8,22.2,16.7,22.5z"/>
				</g>
				<g id="Grupo_119-2" transform="translate(545.256 556.445)">
					<path id="Trazado_198-2" class="st13" d="M13.3,18.1c0.6-0.2,1.3-0.2,2,0.1c0.2,0.2,0.2,1.3-1.1,1.8c-0.9,0.3-1.8,0.2-2.5-0.4
						C11.9,18.8,12.5,18.3,13.3,18.1z"/>
					<path id="Trazado_199-2" class="st7" d="M13.3,18.1c-0.7,0.2-1.4,0.7-1.7,1.4c0.7,0.2,1.5,0.2,2.1-0.1c1.2-0.4,1.6-0.7,1.6-1
						c0-0.1,0-0.2-0.1-0.2C14.6,17.9,13.9,17.9,13.3,18.1z"/>
					<path id="Trazado_192-2" class="st13" d="M16,20.5c-0.6-0.1-1.1-0.1-1.7-0.1c-0.6,0.1-2,0.6-1.8,1.8c0.2,1.1,1.9,0.6,2.4,0.3
						C15.7,22.1,16.1,21.3,16,20.5z"/>
					<path id="Trazado_193-2" class="st7" d="M12.6,21.5c-0.2,1,1.2,1,2.3,0.4c0.6-0.2,1-0.7,1.1-1.4c0,0,0,0,0-0.1
						c-0.6-0.1-1.1-0.1-1.7-0.1C13.6,20.5,12.9,20.9,12.6,21.5z"/>
					<path id="Trazado_194-2" class="st13" d="M11.3,20c0.7,0.3,1.1,0.9,1.2,1.7c-0.6,0.3-1.2,0.4-1.9,0.3C9.7,21.6,9,21.2,9,20.6
						c0-0.4,0.2-0.8,0.7-0.8c0,0,0,0,0,0C10.2,19.6,10.8,19.7,11.3,20z"/>
					<path id="Trazado_195-2" class="st7" d="M11.3,20c-0.5-0.3-1.1-0.4-1.7-0.2c-0.1,0-0.1,0-0.2,0c-0.3,0.1-0.9,0.6,0.3,1.2
						c0.9,0.4,1.8,0.6,2.7,0.6C12.4,20.9,11.9,20.3,11.3,20z"/>
				</g>
			</g>
		</g>
		<g id="Grupo_128">
			<g id="Grupo_127" transform="translate(649.124 3329.579)">
				<path id="Trazado_236" class="st19" d="M-308.7,279.5c0,0-5,4.3-6.9,5.8s-8.8,7-10.4,8.4s-7.7,7-9.6,8.8
					c-4.1,3.3-8.5,6.2-13,8.8c-4.5,2.1-9.3,3.6-14.1,4.7c-3.9,0.8-7.7,1.8-10.1,2.4s-7,2.3-11.6,4.1c-2.4,1-5.1-0.1-6.2-2.5
					c0-0.1-0.1-0.2-0.1-0.3c0,0-8.7,1.5-15.1,2.9s-5.3-4.7-5.3-4.7s-3.6,2-4.4,2.2s-3.9,1.3-5.4-2.9s4.3-8.6,4.3-8.6
					c5.5-4.7,14.9-7.5,14.9-7.5c6.6-3.2,11.7-2.3,11.7-2.3s0.3-0.1,3.4-1.6c1.9-0.9,3.8-1.6,5.8-2.1c0.4-1.2,2.3-2.2,2.3-2.2
					s-0.1-0.6-0.2-1.2c0.3-1.2,0.7-2.3,1.1-3.5c-0.2-0.2-0.4-0.5-0.6-0.8c-0.3-0.5-2.2,0-4,0.3s-10.4,2.2-11.7,2.3
					s-7.2-0.1-10.9-0.1s-5.7-3.6-5.9-5.3s0.2-5.7,7-7s15.8-1.2,18.7-1.9s7.5-3.1,9.6-3.5s14.6-3.3,20.1-3.9s7.6,1.2,9,1.3
					c1.4,0.1,4.1-1.5,5.8-2.2c3.2-1.6,6.1-3.7,8.6-6.2c3.5-3.6,11.5,0.2,13.2,7.2C-316.2,277.9-308.7,279.5-308.7,279.5z"/>
				<path id="Trazado_237" class="st20" d="M-314,276.4l-8.6,9.7c0,0,2-3.9-0.2-10c0,0-3.5,8.8-7.2,13.9s-10.4,12.5-14.7,14.5
					s-20.5,8.4-23.1,9.1s-9.7,2.9-11,3.3s-3.4,1.9-5,2.4s-4.5,1.2-5,0.6c-0.6-0.7-0.9-1.5-0.8-2.4c0.3-1,0.8-1.9,1.5-2.7
					c0.5-0.5,1.1-1,1.8-1.3c0.7-0.3,3-1.3,3-1.3s-3.7,1.3-4.6,1.7c-0.9,0.4-1.7,1.1-2.3,1.9c-0.4,0.6-1.1,1-2.5,1.4
					s-5.7,2.2-7.5,2.6c-2.5,0.6-5.1,1-7.7,1.3c-0.9,0-1.8-0.6-2.2-1.4c-0.3-0.9-0.8-2-0.3-2.7c0.5-1,1.1-1.9,1.8-2.7
					c0.8-0.5,1.6-1,2.5-1.4c0.4-0.1,2.8-0.6,3.4-0.8s3.7-1.1,4.3-1.2c-1.5,0.2-3,0.5-4.4,0.8c-2,0.6-3.1,0.7-3.5,0.9
					s-2.5,1.1-2.9,1.3s-2.6,1.7-3.7,2.2c-1.4,0.6-2.9,1-4.4,1.1c-1.1,0-2.2-0.5-2.9-1.3c-0.4-0.8-0.6-1.7-0.7-2.7l0,0
					c-0.1,0.1-0.1,0.3-0.2,0.4c0,0,0,0.1,0,0.1c0,0.1-0.1,0.2-0.1,0.4c0,0,0,0.1,0,0.1c0,0.1-0.1,0.3-0.1,0.4c0,0,0,0,0,0.1
					c0,0.2-0.1,0.3-0.1,0.5c0,0,0,0,0,0c0,0.1,0,0.3,0,0.4c0,0,0,0.1,0,0.1c0,0.1,0,0.2,0,0.3c0,0.1,0,0.1,0,0.2
					c0,0.1,0,0.2,0.1,0.3c0,0,0,0.1,0,0.1c0,0.2,0.1,0.3,0.1,0.4c1.6,4.2,4.7,3.2,5.4,2.9s4.4-2.2,4.4-2.2s-1.1,6.2,5.3,4.7
					s15.1-2.9,15.1-2.9c0.9,2.4,3.5,3.7,6,2.9c0.1,0,0.2-0.1,0.3-0.1c4.6-1.7,9.3-3.5,11.6-4.1s6.2-1.6,10.1-2.4
					c4.9-1,9.6-2.6,14.1-4.7c4.6-2.6,8.9-5.5,13-8.8c1.9-1.7,8.1-7.3,9.6-8.8s8.5-6.9,10.4-8.4s6.9-5.8,6.9-5.8
					C-310.7,279.1-312.6,278-314,276.4z"/>
				<path id="Trazado_238" class="st20" d="M-404.6,289.6c3.7,0,9.6,0.2,10.9,0.1s9.9-2,11.7-2.3s3.7-0.8,4-0.3
					c-0.2-0.6-0.7-1.1-1.2-1.4c-1-0.9-1.3-2.2-0.9-3.5c0,0-7,3.1-12,1.4c0,0-7.8,3.8-18.5,0.2c0,0.2,0,0.3,0,0.5
					C-410.3,286-408.3,289.6-404.6,289.6z"/>
			</g>
		</g>
		<g id="Grupo_129" transform="translate(226 3614.438)" class="st21">
			<path id="Trazado_171-2" class="st20" d="M23.6,24.5c0.6-0.1,1.1-0.4,1.5-0.9c0.3-0.4,0.4-0.8,0.3-1.3c0-0.2-0.7-0.4-1.8,0.4
				s-1,1.3-1,1.4S22.8,24.6,23.6,24.5z"/>
			<path id="Trazado_172-2" class="st20" d="M25.3,25.6c-0.1-0.1-0.2-0.2-0.2-0.3c-0.2-0.1-0.3-0.3-0.5-0.3
				c-0.5-0.3-1.1-0.4-1.7-0.2c-0.1,0-0.1,0-0.2,0h0c0,0-0.1,0-0.1,0l0,0c0,0-0.1,0-0.1,0.1l0,0c-0.1,0.1-0.2,0.2-0.2,0.3
				c0,0.1,0,0.2,0,0.3c0,0.6,0.7,1,1.6,1.3c0.6,0.2,1.3,0.1,1.9-0.3C25.7,26.2,25.6,25.9,25.3,25.6L25.3,25.6z"/>
			<path id="Trazado_173-2" class="st20" d="M22,24.6L22,24.6c0,0,0-0.1,0-0.1l0,0c0,0,0-0.1,0-0.1c-0.6-0.3-1.3-0.3-2-0.1
				c-0.7,0.2-1.4,0.7-1.7,1.4c0.7,0.6,1.7,0.8,2.5,0.4C21.9,25.7,22.1,25,22,24.6L22,24.6z"/>
		</g>
		<g id="Grupo_130" transform="translate(235.316 3618.142)">
			<path id="Trazado_186-2" class="st13" d="M16.1,18.1c0.1,0.5-0.1,0.9-0.3,1.3c-0.4,0.5-0.9,0.8-1.5,0.9c-0.8,0.1-1-0.3-1-0.4
				s-0.1-0.6,1-1.4S16.1,18,16.1,18.1z"/>
			<path id="Trazado_187-2" class="st7" d="M14.3,18.5c-1.1,0.8-1,1.3-1,1.4c0.4,0.3,1.1,0.2,1.8-0.4c0.4-0.3,0.8-0.8,1-1.3
				C16.1,18,15.4,17.7,14.3,18.5z"/>
			<path id="Trazado_188-2" class="st13" d="M15.3,20.8c0.7,0.3,1.1,0.9,1.2,1.7c-0.6,0.3-1.2,0.4-1.9,0.3C13.7,22.4,13,22,13,21.4
				c0-0.4,0.2-0.8,0.7-0.8c0,0,0,0,0,0C14.2,20.5,14.8,20.6,15.3,20.8z"/>
			<path id="Trazado_189-2" class="st7" d="M15.3,20.8c-0.5-0.3-1.1-0.4-1.7-0.2c-0.1,0-0.1,0-0.2,0c-0.3,0.1-0.9,0.6,0.3,1.2
				c0.9,0.4,1.8,0.6,2.7,0.6C16.4,21.8,15.9,21.1,15.3,20.8z"/>
			<path id="Trazado_190-2" class="st13" d="M10.7,20.1c0.6-0.2,1.3-0.2,2,0.1c0.2,0.2,0.2,1.3-1.1,1.8c-0.9,0.3-1.8,0.2-2.5-0.4
				C9.3,20.9,9.9,20.4,10.7,20.1z"/>
			<path id="Trazado_191-2" class="st7" d="M10.7,20.1c-0.7,0.2-1.4,0.7-1.7,1.4c0.7,0.2,1.5,0.2,2.1-0.1c1.2-0.4,1.6-0.7,1.6-1
				c0-0.1,0-0.2-0.1-0.2C12,19.9,11.3,19.9,10.7,20.1z"/>
		</g>
		<g id="Grupo_131" transform="translate(92 -65)">
			<path id="Trazado_239" class="st22" d="M140.6,3705.6c1,0,2,0.2,3,0.6c1.2,0.5,1.3,0.9,1.3,1.2c-0.5,0.6-1.4,0.7-2.1,0.3
				C141.8,3707.2,141,3706.5,140.6,3705.6z"/>
			<path id="Trazado_241" class="st13" d="M140.5,3705.1c1-0.4,2-0.3,3,0.1c1.2,0.5,1.3,1.4,1.2,1.7c-0.5,0.6-1.4,0.7-2.1,0.3
				C141.7,3706.7,141,3706,140.5,3705.1z"/>
			<path id="Trazado_240" class="st7" d="M142.7,3706.7c0.5,0.1,1.7-0.1,1-1.5l0,0c-0.1,0-0.1-0.1-0.2-0.1c-1-0.4-2-0.4-3-0.1
				C141.1,3705.8,141.8,3706.4,142.7,3706.7z"/>
		</g>
	</g>
</g>
</svg>
