<?xml version="1.0" encoding="utf-8"?>
<!-- Generator: Adobe Illustrator 24.0.1, SVG Export Plug-In . SVG Version: 6.00 Build 0)  -->
<svg version="1.1" id="Capa_1" xmlns="http://www.w3.org/2000/svg" xmlns:xlink="http://www.w3.org/1999/xlink" x="0px" y="0px"
	 viewBox="0 0 100 100" style="enable-background:new 0 0 100 100;" xml:space="preserve">
<style type="text/css">
	.st0{fill:none;stroke:#F3C376;stroke-width:5;stroke-linecap:round;stroke-linejoin:round;}
</style>
<g id="Grupo_87" transform="translate(-373.346 -142.721)">
	<g id="Group_58">
		<g id="Group_58-2">
			<circle id="Ellipse_5" class="st0" cx="423.4" cy="192.5" r="45"/>
		</g>
	</g>
	<g id="Grupo_86">
		<path id="Trazado_143" class="st0" d="M407.8,183.6H439c2.9,0,5.2,2.3,5.2,5.2c0,0,0,0,0,0V214c0,2.9-2.3,5.2-5.2,5.2c0,0,0,0,0,0
			h-31.2c-2.9,0-5.2-2.3-5.2-5.2v0v-25.2C402.6,185.9,404.9,183.6,407.8,183.6C407.8,183.6,407.8,183.6,407.8,183.6z"/>
		<path id="Trazado_144" class="st0" d="M436.5,183.6v-8.4c0-7.4-6-13.4-13.4-13.4s-13.4,6-13.4,13.4c0,0,0,0,0,0v8.4"/>
		<circle id="Elipse_14" class="st0" cx="423.3" cy="199.2" r="6.2"/>
		<line id="Línea_32" class="st0" x1="423.3" y1="210.3" x2="423.3" y2="205.4"/>
	</g>
</g>
</svg>
