<?xml version="1.0" encoding="utf-8"?>
<!-- Generator: Adobe Illustrator 24.0.1, SVG Export Plug-In . SVG Version: 6.00 Build 0)  -->
<svg version="1.1" id="Capa_1" xmlns="http://www.w3.org/2000/svg" xmlns:xlink="http://www.w3.org/1999/xlink" x="0px" y="0px"
	 viewBox="0 0 100 100" style="enable-background:new 0 0 100 100;" xml:space="preserve">
<style type="text/css">
	.st0{fill:none;stroke:#474747;stroke-width:5;stroke-linecap:round;stroke-linejoin:round;}
</style>
<g id="Grupo_83" transform="translate(-373.346 -249.859)">
	<g id="Group_58">
		<g id="Group_58-2">
			<circle id="Ellipse_5" class="st0" cx="423.4" cy="299.6" r="45"/>
		</g>
	</g>
	<path id="Trazado_135" class="st0" d="M409,320.8h28.8c0-6.1-3.7-13.3-9-16.4c4.1-3,5.1-8.7,2.1-12.8c-3-4.1-8.7-5.1-12.8-2.1
		c-4.1,3-5.1,8.7-2.1,12.8c0.6,0.8,1.3,1.5,2.1,2.1C412.8,307.5,409,314.7,409,320.8z"/>
	<g id="Grupo_82">
		<path id="Trazado_136" class="st0" d="M434,293.9c-0.5,0.3-1.1,0.7-1.5,1.1c0.8,3.6-0.6,7.3-3.6,9.4c2.4,1.5,4.4,3.5,5.8,5.9h19.1
			c0-6.1-3.7-13.3-9-16.4c4.1-3,5.1-8.7,2.1-12.8c-3-4.1-8.7-5.1-12.8-2.1c-4.1,3-5.1,8.7-2.1,12.8
			C432.4,292.6,433.1,293.3,434,293.9z"/>
		<path id="Trazado_137" class="st0" d="M393.2,310.3h19.1c1.4-2.4,3.4-4.4,5.8-5.9c-3-2.1-4.4-5.9-3.6-9.4c-0.5-0.4-1-0.7-1.5-1.1
			c4.1-3,5.1-8.7,2.1-12.8c-3-4.1-8.7-5.1-12.8-2.1c-4.1,3-5.1,8.7-2.1,12.8c0.6,0.8,1.3,1.5,2.1,2.1
			C396.9,297,393.2,304.2,393.2,310.3z"/>
	</g>
</g>
</svg>
