<?xml version="1.0" encoding="utf-8"?>
<!-- Generator: Adobe Illustrator 24.0.1, SVG Export Plug-In . SVG Version: 6.00 Build 0)  -->
<svg version="1.1" id="Capa_1" xmlns="http://www.w3.org/2000/svg" xmlns:xlink="http://www.w3.org/1999/xlink" x="0px" y="0px"
	 viewBox="0 0 445.4 100" style="enable-background:new 0 0 445.4 100;" xml:space="preserve">
<style type="text/css">
	.st0{fill:#FFFFFF;}
</style>
<path id="Trazado_50" class="st0" d="M19.8,83.4c0,3.4-1.6,5.1-4.8,5.1c-3.1,0-4.6-1.7-4.6-5.1V62.9H0v20.5c0,5.1,1.2,9.1,3.6,11.8
	s6.3,4.1,11.8,4.1c5.4,0,9.3-1.4,11.6-4.1c2.4-2.7,3.5-6.7,3.5-11.8V69.6c0-1.7-0.1-3.4-0.2-5.1c-0.1-1.3-0.4-2.6-0.7-3.9
	c-0.3-1.1-0.7-2.2-1.2-3.2c-0.6-1.1-1.2-2.1-1.9-3.1c-0.9-1.2-2-2.6-3.3-4.2c-1.3-1.6-2.6-3.2-4-4.8c-1.3-1.6-2.6-3.1-3.8-4.4
	c-1-1.1-1.8-2.2-2.6-3.4c-0.7-0.9-1.2-1.9-1.5-2.9c-0.3-1.2-0.4-2.4-0.4-3.5V16.5c0-3.3,1.5-5,4.6-5c1.3-0.1,2.6,0.4,3.5,1.3
	c0.8,1.1,1.1,2.4,1,3.8v17.5h10.2V16.5c0-5.4-1.1-9.4-3.4-12c-2.1-2.6-5.9-3.9-11.3-3.9C5.2,0.6,0,5.9,0,16.5v14.6
	c-0.1,2.3,0.2,4.6,0.6,6.9c0.5,1.9,1.2,3.6,2.3,5.2c0.7,1.1,1.7,2.5,2.9,4s2.5,3.1,3.9,4.7c1.3,1.6,2.6,3.1,3.9,4.6s2.2,2.6,2.8,3.4
	c1.2,1.4,2.1,2.9,2.8,4.6c0.5,1.6,0.7,3.4,0.7,5.1L19.8,83.4z M55.3,98.3v-46h4.5c5.7,0,9.9-1.4,12.7-4.1c2.7-2.7,4.1-7.2,4.1-13.3
	V19.2c0-6.1-1.3-10.6-4-13.3c-2.7-2.8-7-4.2-12.8-4.2H44.4v96.6H55.3z M65.8,35.3c0,4.3-2,6.5-6,6.5h-4.5V12.6h4.4
	c2.2,0,3.8,0.5,4.7,1.6c1,1.4,1.5,3.1,1.4,4.9V35.3z M100,98.3V1.7H89.2v96.6C89.2,98.3,100,98.3,100,98.3z M148.7,98.3V1.7h-9.3
	v55.8c0,3.4,0.1,6.6,0.2,9.7l-12-65.5H115v96.6h9.2v-41c0-4,0-8-0.1-12c0-4-0.1-8-0.2-11.9l14.3,64.8L148.7,98.3L148.7,98.3z"/>
<path id="Trazado_51" class="st0" d="M199.6,98.3V12.6h10.2V1.7h-31.1v10.9h10.2v85.7C188.9,98.3,199.6,98.3,199.6,98.3z
	 M254.4,98.3c-1.1-7.7-2.2-15.2-3.3-22.7c-1.1-7.5-2.3-15.2-3.8-23c2.1-1.2,3.7-3,4.8-5.1c1.2-2.8,1.7-5.8,1.6-8.8V19.1
	c0-6.4-1.4-10.8-4.3-13.5c-2.9-2.6-7.1-3.9-12.8-3.9h-15v96.6h11V54.8h4.4c1.1,7.4,2.1,14.7,3,21.8s1.7,14.3,2.6,21.8L254.4,98.3
	C254.4,98.4,254.4,98.3,254.4,98.3z M242.5,38.8c0,4.2-2,6.2-5.9,6.2h-4.2V12.6h4c2.6,0,4.3,0.7,5,2.1c0.8,2.1,1.2,4.4,1,6.6
	L242.5,38.8z M266.6,82.9c0,10.9,5.1,16.4,15.3,16.4c10.4,0,15.5-5.5,15.5-16.4V17c0-10.9-5.2-16.4-15.5-16.4
	c-10.2,0-15.3,5.5-15.3,16.4V82.9z M286.7,82.9c0,3.8-1.6,5.6-4.8,5.6c-3,0-4.5-1.9-4.5-5.6V17c0-3.7,1.5-5.5,4.5-5.5
	c3.2,0,4.8,1.8,4.8,5.5V82.9z M355.7,98.3l11.5-96.6h-11.4c-0.8,8.5-1.6,16.7-2.4,24.7c-0.8,8-1.5,15.2-2.1,21.7
	c-0.6,6.5-1.1,11.9-1.6,16.5s-0.7,7.4-0.8,8.7c-0.1-1.4-0.3-4.3-0.7-8.7c-0.4-4.4-0.9-9.9-1.5-16.4c-0.6-6.5-1.3-13.7-2-21.7
	c-0.7-8-1.5-16.2-2.2-24.7h-10.1c-1,8.5-1.9,16.7-2.8,24.7c-0.9,8-1.7,15.2-2.3,21.7c-0.7,6.5-1.2,11.9-1.7,16.4
	c-0.4,4.4-0.7,7.4-0.8,8.7c-0.1-1.4-0.3-4.3-0.7-8.7c-0.4-4.4-0.9-9.9-1.5-16.4c-0.6-6.5-1.2-13.7-1.9-21.7
	c-0.7-8-1.3-16.2-1.8-24.7h-11.4l10,96.6h13c0.8-8.1,1.6-15.9,2.4-23.4s1.4-14.3,2-20.4c0.6-6,1.1-11.1,1.5-15.2s0.7-6.8,0.7-8
	c0,1.2,0.2,3.9,0.5,8c0.3,4.1,0.8,9.2,1.3,15.2c0.5,6.1,1.2,12.9,1.9,20.4s1.5,15.3,2.3,23.4L355.7,98.3L355.7,98.3z M405.8,98.3
	V87.4H390V54.5h10.2v-11H390V12.6h15.3V1.7h-26.2v96.6C379.1,98.3,405.8,98.3,405.8,98.3z M445.4,98.3V87.4h-15.7V1.7h-10.9v96.6
	C418.8,98.3,445.4,98.3,445.4,98.3z"/>
</svg>
