<?xml version="1.0" encoding="utf-8"?>
<!-- Generator: Adobe Illustrator 24.0.1, SVG Export Plug-In . SVG Version: 6.00 Build 0)  -->
<svg version="1.1" id="Capa_1" xmlns="http://www.w3.org/2000/svg" xmlns:xlink="http://www.w3.org/1999/xlink" x="0px" y="0px"
	 viewBox="0 0 327.6 100" style="enable-background:new 0 0 327.6 100;" xml:space="preserve">
<style type="text/css">
	.st0{fill:#FFFFFF;}
</style>
<path id="Trazado_50" class="st0" d="M19.8,83.4c0,3.4-1.6,5.1-4.8,5.1c-3.1,0-4.6-1.7-4.6-5.1V62.9H0v20.5c0,5.1,1.2,9.1,3.6,11.8
	s6.3,4.1,11.8,4.1c5.4,0,9.3-1.4,11.6-4.1c2.4-2.7,3.5-6.7,3.5-11.8V69.6c0-1.7-0.1-3.4-0.2-5.1c-0.1-1.3-0.4-2.6-0.7-3.9
	c-0.3-1.1-0.7-2.2-1.2-3.2c-0.6-1.1-1.2-2.1-1.9-3.1c-0.9-1.2-2-2.6-3.3-4.2c-1.3-1.6-2.6-3.2-4-4.8c-1.3-1.6-2.6-3.1-3.8-4.4
	c-1-1.1-1.8-2.2-2.6-3.4c-0.7-0.9-1.2-1.9-1.5-2.9c-0.3-1.2-0.4-2.4-0.4-3.5V16.5c0-3.3,1.5-5,4.6-5c1.3-0.1,2.6,0.4,3.5,1.3
	c0.8,1.1,1.1,2.4,1,3.8v17.5h10.2V16.5c0-5.4-1.1-9.4-3.4-12c-2.1-2.6-5.9-3.9-11.3-3.9C5.2,0.6,0,5.9,0,16.5v14.6
	c-0.1,2.3,0.2,4.6,0.6,6.9c0.5,1.9,1.2,3.6,2.3,5.2c0.7,1.1,1.7,2.5,2.9,4s2.5,3.1,3.9,4.7c1.3,1.6,2.6,3.1,3.9,4.6s2.2,2.6,2.8,3.4
	c1.2,1.4,2.1,2.9,2.8,4.6c0.5,1.6,0.7,3.4,0.7,5.1L19.8,83.4z M55.3,98.3v-46h4.5c5.7,0,9.9-1.4,12.7-4.1c2.7-2.7,4.1-7.2,4.1-13.3
	V19.2c0-6.1-1.3-10.6-4-13.3c-2.7-2.8-7-4.2-12.8-4.2H44.4v96.6H55.3z M65.8,35.3c0,4.3-2,6.5-6,6.5h-4.5V12.6h4.4
	c2.2,0,3.8,0.5,4.7,1.6c1,1.4,1.5,3.1,1.4,4.9V35.3z M100,98.3V1.7H89.2v96.6H100z M148.7,98.3V1.7h-9.3v55.8c0,3.4,0.1,6.6,0.2,9.7
	l-12-65.5H115v96.6h9.2v-41c0-4,0-8-0.1-12c0-4-0.1-8-0.2-11.9l14.3,64.8L148.7,98.3L148.7,98.3z"/>
</svg>
