<?xml version="1.0" encoding="utf-8"?>
<!-- Generator: Adobe Illustrator 24.0.1, SVG Export Plug-In . SVG Version: 6.00 Build 0)  -->
<svg version="1.1" id="Capa_1" xmlns="http://www.w3.org/2000/svg" xmlns:xlink="http://www.w3.org/1999/xlink" x="0px" y="0px"
	 viewBox="0 0 100 100" style="enable-background:new 0 0 100 100;" xml:space="preserve">
<style type="text/css">
	.st0{fill:none;stroke:#474747;stroke-width:5;stroke-linecap:round;stroke-linejoin:round;}
</style>
<g id="Grupo_81" transform="translate(-373.346 -249.859)">
	<g id="Group_58_1_">
		<g id="Group_58-2_1_">
			<circle id="Ellipse_5_1_" class="st0" cx="423.4" cy="299.6" r="45"/>
		</g>
	</g>
	<g id="Grupo_80">
		<path id="Rectángulo_17" class="st0" d="M407.6,267.2h31.5c2.9,0,5.3,2.4,5.3,5.3v54.2c0,2.9-2.4,5.3-5.3,5.3h-31.5
			c-2.9,0-5.3-2.4-5.3-5.3v-54.2C402.3,269.6,404.7,267.2,407.6,267.2z"/>
		<line id="Línea_29" class="st0" x1="444.4" y1="277.7" x2="402.3" y2="277.7"/>
		<line id="Línea_30" class="st0" x1="402.3" y1="321.5" x2="444.4" y2="321.5"/>
		<circle id="Elipse_10" class="st0" cx="417.7" cy="272.4" r="0.1"/>
		<circle id="Elipse_11" class="st0" cx="429" cy="272.4" r="0.1"/>
		<circle id="Elipse_12" class="st0" cx="423.4" cy="272.4" r="0.1"/>
		<circle id="Elipse_13" class="st0" cx="423.4" cy="296" r="5.1"/>
		<path id="Trazado_134" class="st0" d="M423.4,314.2c0,0,11.4-11.7,11.4-18.2c0-6.3-5.1-11.4-11.4-11.4S412,289.7,412,296
			C412,302.5,423.4,314.2,423.4,314.2z"/>
	</g>
</g>
</svg>
