<?xml version="1.0" encoding="utf-8"?>
<!-- Generator: Adobe Illustrator 24.0.1, SVG Export Plug-In . SVG Version: 6.00 Build 0)  -->
<svg version="1.1" id="Capa_1" xmlns="http://www.w3.org/2000/svg" xmlns:xlink="http://www.w3.org/1999/xlink" x="0px" y="0px"
	 viewBox="0 0 327.6 100" style="enable-background:new 0 0 327.6 100;" xml:space="preserve">
<style type="text/css">
	.st0{fill:#FFFFFF;}
</style>
<path id="Trazado_51" class="st0" d="M20.9,98.3V12.6h10.2V1.7H0v10.9h10.2v85.7H20.9z M75.7,98.3c-1.1-7.7-2.2-15.2-3.3-22.7
	c-1.1-7.5-2.3-15.2-3.8-23c2.1-1.2,3.7-3,4.8-5.1c1.2-2.8,1.7-5.8,1.6-8.8V19.1c0-6.4-1.4-10.8-4.3-13.5C67.8,3,63.6,1.7,57.9,1.7
	h-15v96.6h11V54.8h4.4c1.1,7.4,2.1,14.7,3,21.8c0.9,7.1,1.7,14.3,2.6,21.8h11.8V98.3z M63.8,38.8c0,4.2-2,6.2-5.9,6.2h-4.2V12.6h4
	c2.6,0,4.3,0.7,5,2.1c0.8,2.1,1.2,4.4,1,6.6L63.8,38.8z M87.9,82.9c0,10.9,5.1,16.4,15.3,16.4c10.4,0,15.5-5.5,15.5-16.4V17
	c0-10.9-5.2-16.4-15.5-16.4C93,0.6,87.9,6.1,87.9,17V82.9z M108,82.9c0,3.8-1.6,5.6-4.8,5.6c-3,0-4.5-1.9-4.5-5.6V17
	c0-3.7,1.5-5.5,4.5-5.5c3.2,0,4.8,1.8,4.8,5.5V82.9z M177,98.3l11.5-96.6h-11.4c-0.8,8.5-1.6,16.7-2.4,24.7
	c-0.8,8-1.5,15.2-2.1,21.7S171.5,60,171,64.6s-0.7,7.4-0.8,8.7c-0.1-1.4-0.3-4.3-0.7-8.7s-0.9-9.9-1.5-16.4s-1.3-13.7-2-21.7
	s-1.5-16.2-2.2-24.7h-10.1c-1,8.5-1.9,16.7-2.8,24.7c-0.9,8-1.7,15.2-2.3,21.7c-0.7,6.5-1.2,11.9-1.7,16.4c-0.4,4.4-0.7,7.4-0.8,8.7
	c-0.1-1.4-0.3-4.3-0.7-8.7s-0.9-9.9-1.5-16.4s-1.2-13.7-1.9-21.7s-1.3-16.2-1.8-24.7h-11.4l10,96.6h13c0.8-8.1,1.6-15.9,2.4-23.4
	s1.4-14.3,2-20.4c0.6-6,1.1-11.1,1.5-15.2s0.7-6.8,0.7-8c0,1.2,0.2,3.9,0.5,8s0.8,9.2,1.3,15.2c0.5,6.1,1.2,12.9,1.9,20.4
	s1.5,15.3,2.3,23.4H177z M227.1,98.3V87.4h-15.8V54.5h10.2v-11h-10.2V12.6h15.3V1.7h-26.2v96.6H227.1z M266.7,98.3V87.4H251V1.7
	h-10.9v96.6H266.7z"/>
</svg>
