<?xml version="1.0" encoding="utf-8"?>
<!-- Generator: Adobe Illustrator 24.0.1, SVG Export Plug-In . SVG Version: 6.00 Build 0)  -->
<svg version="1.1" id="Capa_1" xmlns="http://www.w3.org/2000/svg" xmlns:xlink="http://www.w3.org/1999/xlink" x="0px" y="0px"
	 viewBox="0 0 100 100" style="enable-background:new 0 0 100 100;" xml:space="preserve">
<style type="text/css">
	.st0{fill:none;stroke:#30CA99;stroke-width:5;stroke-linecap:round;stroke-linejoin:round;}
</style>
<g id="Grupo_65" transform="translate(-4773.693 1824.439)">
	<g id="Grupo_64">
		<g id="Group_58">
			<g id="Group_58-2">
				<circle id="Ellipse_5" class="st0" cx="4823.7" cy="-1774.4" r="45"/>
			</g>
		</g>
		<path id="Trazado_119" class="st0" d="M4803.7-1747.2c5.9,0,7.7-4.5,9.8-5.6s4.3-0.7,4.9-0.2c0.4,0.3,0.9,0.6,1.4,0.7v-10.8
			c-30.7-0.5-26.1-25.7-26.1-25.7c20.2-6.3,27.9,9.9,27.9,9.9c2.7-28.8,32.2-20.8,32.2-20.8c3.9,32.9-25.9,30.4-25.9,30.4v17.1
			c0.6,0,2.2-0.9,3.5-0.9c3,0,5.8,3,7.1,3s2.7-0.9,3.7-0.9c1.5,0.2,2.9,0.8,4.2,1.7c0,0-8.6,8.6-21.3,8.6
			C4817.3-1740.7,4809.9-1743,4803.7-1747.2z"/>
	</g>
	<path id="Trazado_120" class="st0" d="M4827.7-1769.2c0-3.7,2.6-18.1,16.1-22.3"/>
	<path id="Trazado_121" class="st0" d="M4819.8-1763.1c0-7.2-8.1-16.8-17.1-18.6"/>
</g>
</svg>
