<?xml version="1.0" encoding="utf-8"?>
<!-- Generator: Adobe Illustrator 24.0.1, SVG Export Plug-In . SVG Version: 6.00 Build 0)  -->
<svg version="1.1" id="Capa_1" xmlns="http://www.w3.org/2000/svg" xmlns:xlink="http://www.w3.org/1999/xlink" x="0px" y="0px"
	 viewBox="0 0 100 100" style="enable-background:new 0 0 100 100;" xml:space="preserve">
<style type="text/css">
	.st0{fill:none;stroke:#30CA99;stroke-width:5;stroke-linecap:round;stroke-linejoin:round;}
</style>
<g id="Grupo_58" transform="translate(-288.244 -147.428)">
	<g id="Grupo_58-2" transform="translate(290.744 149.928)">
		<circle id="Elipse_5" class="st0" cx="47.5" cy="47.5" r="45"/>
	</g>
	<g id="Grupo_62" transform="translate(305.259 165.019)">
		<g id="Grupo_59" transform="translate(11.346)">
			<path id="Trazado_111" class="st0" d="M3.1,61.1c3.1,2.1,14.9-8,23.3-16.6s12-13,12-16.4s-2.8-5.8-5.9-7.9S24.8,16,21.5,18
				S12.6,32.2,11,35.6S0,59.1,3.1,61.1z"/>
			<line id="Línea_12" class="st0" x1="22.9" y1="26.2" x2="17.7" y2="22.6"/>
			<line id="Línea_13" class="st0" x1="23.8" y1="39.3" x2="27.7" y2="42.8"/>
			<line id="Línea_14" class="st0" x1="12.4" y1="53" x2="14.7" y2="54.3"/>
			<path id="Trazado_112" class="st0" d="M29,17.9c0-1.5,0.3-3.1,0.8-4.5c-1.6-1.1-4.2-4.6-1-7.8s7.3,0.1,7.3,0.1s3.9-5.7,9.5-1.8
				s0,9.5,0,9.5c1.5,0.4,3.6,4.6,0.6,7.6s-7.7-0.5-7.7-0.5c-0.8,1-1.9,1.6-3.1,1.7"/>
		</g>
		<g id="Grupo_61" transform="translate(0 2.221)">
			<line id="Línea_15" class="st0" x1="21.6" y1="38.1" x2="23.7" y2="39.7"/>
			<path id="Trazado_113" class="st0" d="M48.1,21.7c10.4,2.2,17.2,12.4,15,22.8c-2.2,10.4-12.4,17.2-22.8,15
				c-4.9-1-9.3-3.9-12.1-8.1"/>
			<path id="Trazado_114" class="st0" d="M48.9,29c6.4,2.6,9.5,10,6.9,16.4c-2.6,6.4-10,9.5-16.4,6.9c-2.6-1.1-4.8-3-6.2-5.5"/>
			<path id="Trazado_115" class="st0" d="M44.9,34.6c3.3,0.4,5.7,3.5,5.3,6.8c-0.4,3.3-3.5,5.7-6.8,5.3c-2.6-0.3-4.7-2.3-5.2-4.8"/>
			<path id="Trazado_116" class="st0" d="M21.1,14l0.5-10.5l-4.5,5.1l-3.1-6.2L5.8,4.2L13,15.6"/>
			<g id="Grupo_60" transform="translate(0 11.526)">
				<path id="Trazado_117" class="st0" d="M22.4,21.8c1.3-2.7,5.1-11.2,8.3-15.4c-3.8-3.4-9-4.7-13.9-3.6C3,5.7,1.4,21.4,3,28.9
					c1,5,5.6,10.2,11.6,12.5C16.4,34.6,21.3,24.1,22.4,21.8z"/>
				<path id="Trazado_118" class="st0" d="M37.8,30.7c-3.8,4-7.9,7.7-12.2,11.2c6.7-1.9,11.8-6.9,13.6-12.6
					C38.7,29.8,38.3,30.3,37.8,30.7z"/>
			</g>
		</g>
	</g>
</g>
</svg>
