<?xml version="1.0" encoding="utf-8"?>
<!-- Generator: Adobe Illustrator 24.0.1, SVG Export Plug-In . SVG Version: 6.00 Build 0)  -->
<svg version="1.1" id="Capa_1" xmlns="http://www.w3.org/2000/svg" xmlns:xlink="http://www.w3.org/1999/xlink" x="0px" y="0px"
	 viewBox="0 0 290 220" style="enable-background:new 0 0 290 220;" xml:space="preserve">
<style type="text/css">
	.st0{fill:#30CA99;}
	.st1{opacity:0.5;fill:url(#Elipse_16_1_);enable-background:new    ;}
	.st2{fill:none;stroke:#FFFFFF;stroke-miterlimit:10;}
	.st3{fill:none;}
	.st4{fill:#DDCEA1;stroke:#ECDAAF;stroke-width:1.5;stroke-miterlimit:10;}
	.st5{fill:#D0C099;}
	.st6{fill:#593A2F;}
	.st7{fill:#704937;}
	.st8{fill:#DDCEA1;}
	.st9{fill:#ECDAAF;}
	.st10{fill:none;stroke:#ECDAAF;stroke-width:1.5;stroke-miterlimit:10;}
	.st11{fill:#13C079;}
	.st12{fill:#FFFFFF;}
	.st13{fill:#D0A78B;}
	.st14{opacity:0.5;fill:#FFFFFF;enable-background:new    ;}
	.st15{opacity:0.6;fill:none;stroke:#FFFFFF;stroke-width:1.9992;stroke-miterlimit:9.9962;enable-background:new    ;}
	.st16{opacity:0.5;}
	.st17{fill:#E0B697;}
	.st18{opacity:0.3;fill:#FFFFFF;enable-background:new    ;}
	.st19{opacity:0.4;fill:#FFFFFF;enable-background:new    ;}
</style>
<g id="Grupo_149" transform="translate(-42.195 -4089.62)">
	<g id="Grupo_126" transform="translate(29.587 812)">
		<g id="Grupo_108" transform="translate(-38.322 3118.271)">
			<path id="Trazado_150" class="st0" d="M284.9,178.3c27,12.7,16.8,44.1,12.6,53.3s-18.2,22.1-13.9,34.7
				c4.3,12.6,32.9,15.9,37,41.2s-18.4,64.9-50.2,61.6s-40.7-17.6-77.8,0.2s-58.3-1.4-61.8-8.3s-10.8-21.1-2.9-32.3
				s31.4-18,29.6-29.8s-26.7-28.9-26.1-52.7s21.7-36.8,34.5-33.3s43,14.5,60.4,1.5S248.7,161.2,284.9,178.3z"/>
			
				<radialGradient id="Elipse_16_1_" cx="-315.297" cy="653.3604" r="1.169" gradientTransform="matrix(74.825 -13.5354 -4.2869 -23.6982 26625.6602 11512.3525)" gradientUnits="userSpaceOnUse">
				<stop  offset="0" style="stop-color:#138D50"/>
				<stop  offset="1" style="stop-color:#000000;stop-opacity:0"/>
			</radialGradient>
			<path id="Elipse_16" class="st1" d="M214.4,257.4c64.4-11.6,120.1-1.3,124.5,23.1s-44.2,53.7-108.6,65.3
				c-64.4,11.6-120.1,1.3-124.5-23.1C101.4,298.3,150,269,214.4,257.4z"/>
			<path id="Trazado_151" class="st2" d="M249.4,361.2"/>
			<g id="Grupo_107" transform="translate(139.924 248.608)">
				<path id="Trazado_152" class="st2" d="M28.5,54.6"/>
				<path id="Trazado_153" class="st3" d="M0.6,33.7C6.4,40.7,17.7,55,20.1,58c2.9,3.7,7.4,3.7,13.1,2.4c2.9-0.6,34.5-7.8,66.9-15.1
					c3.5-0.8,3.8-2.7,1.7-4.3S73.3,17.6,71.6,16.1s-4.3-2-9.1-1.2S7.4,25.3,3.9,26.1s-7.5,2.8-4.6,6.1L0.6,33.7z"/>
				<path id="Trazado_155" class="st4" d="M33.6,60.4c6-1.3,135.9-30.6,139.4-31.3s6.5-2.5,1.4-5.4s-34-20.4-35.5-21.4
					s-4.4-2.6-10.7-1.2C121.8,2.3,7.4,24.2,3.2,25s-7.9,2.6-5.1,5.4S17.6,54.3,20.5,58S27.9,61.6,33.6,60.4z"/>
				<g id="Grupo_114" transform="matrix(0.985, 0.174, -0.174, 0.985, -120.863, -76.444)">
					<path id="Trazado_162" class="st5" d="M179,106.7c0,0,1.3,6,13.1,6s21.4-2.8,21.4-6.2c0,0,0.2-9.9-1.1-10.7
						c-1.4-0.9-39.4-0.7-39.4-0.7s-2.1,0.8-2,5.5S179,106.7,179,106.7z"/>
					<path id="Trazado_164" class="st6" d="M171.2,98.6c0.1,3.8,10.7,6.9,23.9,6.9s23.9-3.1,23.9-6.9c0,0,0.2-11.1-1.2-11.9
						c-1.5-1-43.8-0.7-43.8-0.7s-3.8,1.9-3.8,5.5S171.1,92.8,171.2,98.6z"/>
					
						<ellipse id="Elipse_17" transform="matrix(3.701420e-02 0.9993 -0.9993 3.701420e-02 275.7129 -109.4384)" class="st7" cx="194.6" cy="88.3" rx="6.9" ry="23.2"/>
				</g>
				<path id="Trazado_154" class="st8" d="M173,29C169.4,29.7,39.3,59,33.2,60.4C27.5,61.6,23,61.6,20.1,58S0.5,33.1-2.3,30.3
					c-0.5-0.5-0.9-1.1-1-1.8l0,0c0,8.6,3.8,29.2,13,42.7s16.5,8.8,34.2,4.6S150.4,50.1,155.6,49s13.4-2.9,16.6-7.7s4.9-9.4,4.9-14.6
					l0,0C176.8,27.8,175,28.5,173,29z"/>
				<path id="Trazado_156" class="st5" d="M20.1,58C17.2,54.3,0.5,33.1-2.3,30.3c-0.5-0.5-0.9-1.1-1-1.8c0,8.6,3.8,29.2,13,42.7
					c0.2,0.2,0.3,0.4,0.5,0.6C13.6,76.1,20.1,68.5,20.1,58z"/>
				<path id="Trazado_157" class="st5" d="M166.2,43.6C160.8,44.8,66,67.8,47.1,72.2s-26.7,9.5-36.5-4.9C3,56.3-1.1,40.8-2.6,30
					c-0.4-0.4-0.6-0.9-0.7-1.4c0,8.6,3.8,29.2,13,42.7s16.5,8.8,34.2,4.6S150.4,50.1,155.6,49c4.7-1.1,12-2.6,15.7-6.6l1.6-2.1
					C171,41.9,168.7,43.1,166.2,43.6z"/>
				<path id="Trazado_158" class="st5" d="M105.3,44.2c0.3-0.5,0.5-0.8,0.5-0.8L69.4,13.4c0,16.4,4.1,27.9,11.9,36.1L105.3,44.2z"/>
				<path id="Trazado_159" class="st5" d="M174.4,23.6c-5.1-2.9-34-20.4-35.5-21.4c-0.9-0.6-1.9-1.1-3-1.4c-0.3-0.1-0.6,0-0.9,0.2
					c-1.6,11.8,6.5,26.9,18.2,32.5c11.3-2.5,18.9-4.2,19.8-4.4C176.5,28.3,179.5,26.5,174.4,23.6z"/>
				<path id="Trazado_160" class="st9" d="M60.6,15.2l19.8-3.9c0,0-12.3,0.9-6.6,5.3s27.6,22.4,30,24.4s6.8,2.1,10.4,1.3l-15.1,3.4
					c0,0,6.5-1.6,3.2-4.2S74.5,18.3,72.5,16.8S69.3,13.6,60.6,15.2z"/>
				<path id="Trazado_161" class="st10" d="M33.6,60.4c6-1.3,135.9-30.6,139.4-31.3s6.5-2.5,1.4-5.4s-34-20.4-35.5-21.4
					s-4.4-2.6-10.7-1.2C121.8,2.3,7.4,24.2,3.2,25s-7.9,2.6-5.1,5.4S17.6,54.3,20.5,58S27.9,61.6,33.6,60.4z"/>
			</g>
		</g>
		<g id="Grupo_113" transform="translate(44.747 3348.361)">
			<path id="Trazado_162-2" class="st6" d="M171,98c0.1,3.8,10.7,6.9,23.9,6.9s23.9-3.1,23.9-6.9c0,0,0.2-11.1-1.2-11.9
				c-1.5-1-43.8-0.7-43.8-0.7s-3.8,1.9-3.8,5.5S170.9,92.2,171,98z"/>
			
				<ellipse id="Elipse_17-2" transform="matrix(0.9993 -3.701166e-02 3.701166e-02 0.9993 -3.1152 7.2596)" class="st7" cx="194.5" cy="87.8" rx="23.2" ry="6.9"/>
		</g>
		<g id="Grupo_124" transform="translate(457.936 -815.515) rotate(7)">
			<g id="Grupo_125" transform="translate(41 4116)">
				<path id="Trazado_218" class="st11" d="M101.2,79.3l-2.9,2.3c0,0-7.1-5.1-15.8-20.3s-9.4-17.8-10.9-18.9s-2,6.5,0.4,12.2
					s9.5,18.3,14.5,22.9s7.7,6.8,10.3,6c0,0-1.7,1.9-4.9-0.4c-3.3-2.3-8.6-6.3-15-17.7s-8-13.1-8.1-18.1c-0.1-5,0.6-5.6,1.3-6
					l10.5-5.1c0,0-1.9,1.4-2.7,2.1s-0.8,2.1,0,2.3c0.5,0.1,0.9,0.2,1.4,0.1c-0.2,1.3-0.3,2.6-0.2,3.9c0.2,1.4,3.7,10.7,3.7,10.7
					l4.8,9.1l4.7,6.9L101.2,79.3z"/>
				<path id="Trazado_219" class="st12" d="M118.2,68.6l-6.5-9.2l0-9.6c0,0,3.2,0.1,4.6,1.4s9.3,14.1,9.3,14.1L118.2,68.6z
					 M111.5,72.1c0,0-18.3-25.1-18.7-25.1s-3.2,0-3.2,0S104,67.8,104.2,68s5.6,5.1,5.6,5.1L111.5,72.1z M90.3,59.4
					c4,8.3,13,18.1,13,18.1l1.4-1.1L90.3,59.4z M91.2,68.4c-6-8.2-11-21.4-11.4-22.7c-0.6-1.2-1.5-2.1-2.7-2.6
					c-0.7-0.2,0.4,1.1,0.9,1.7S82.9,59,89.6,68.6s11.6,10.7,11.6,10.7l1.2-1.1C98.4,76.2,96.5,75.6,91.2,68.4L91.2,68.4z"/>
				<path id="Trazado_220" class="st13" d="M71.7,42.4c0.3,0.4,1.8,4.9,2.9,7.7c1.1,2.7,8.2,15.7,9.4,17.3s0.2,1.3,0.7,2.3
					s4.9,7.2,4.4,8S82,72.3,75.5,61.3s-4.8-19.5-4.8-19.5C71.1,41.9,71.4,42.1,71.7,42.4z M79.8,43.9c0,0,2.9,9.7,6.7,15.9
					c3.8,6.2,8.6,12.7,9,12.3s-3.7-5.9-6.1-10.1s-6.8-14.1-8.2-16.1L79.8,43.9z M84.3,46c0.1,0.2,7.5,12.5,10.3,16.3
					c2.7,3.8,11.6,12.4,12.1,12.8l3.7-2.4c-2.8-2.4-5.4-5.1-7.6-8.2C98.5,59,89.9,46.4,89.9,46.4L84.3,46z M91.9,46.7l5.9,8.4
					c1.4,1,2.5,2.3,3.4,3.8c2,3.5,4.1,6.8,6.5,10c0.9,1,1.9,2.6,3.9,3.2l6.7-3.5L110.6,58l-13.7-11L91.9,46.7z M83.6,35.7
					c0,0,0.5,3.6,0.6,4.4s2.8,2.6,4.4,3.2c1.6,0.6,6.9,0.5,6.9,0.5C93.1,38.7,83.6,35.7,83.6,35.7L83.6,35.7z"/>
				<path id="Trazado_221" class="st13" d="M132.1,51.2c0,0,1.5,2.7,0,1.6c0,0,3.8,5.7,1.4,4.4l2.3,4.1l-10.3,4.1
					c0,0-7.1-11.7-9.3-14.1c0,0,6.1,0.7,1.1-1.1c-5-1.9,9.6,1.3,7.4,0s1.7-1.1,4.6,0L132.1,51.2z"/>
				<path id="Trazado_222" class="st13" d="M116.7,8.9c0,0,5.9,1.4,11.2,9v-1.7c0,0,7.3,9,9.7,12.7c-0.4,1.9-2.1,3.2-4,3.3
					c-3.3,0.1-6.8-4.3-9.1-6.4s-7.1-5.9-8.6-6.1s-5.7,0.1-6.9-0.5c0,0-0.1,1.1,1.6,2c3,1.8,5.8,4,8.1,6.6
					c2.5,2.9,11.9,17.5,11.9,17.5s-8.8,0.4-9.7,0c-2.8-1.9-5.4-4.2-7.6-6.8c-2-2.6-5.8-5.1-7.4-6.2c-1.6-1.1-4.9-3.9-5.9-3.4
					c-1,0.6-1.3,2.4-1.3,2.4l-2.9-5.4l1.5-2c0,0,9.5-7.6,12-10c0,0-3.3,6.4-3,6.9s9.6-8,9.9-9.9L116.7,8.9z"/>
				<path id="Trazado_223" class="st14" d="M137.5,28.8C128.3,15.2,118.7,5.7,116,7.5c-0.1,0.1-0.2,0.2-0.3,0.3
					c-2.8,2.7-27.8,26.6-46.1,33.6c-2.1,0.8-4.8,9.9,6.1,25.5s17.1,20.1,19.9,18.9c2.8-1.2,0.7-12.2,53.1-29.1
					c0.2,0,0.5-0.1,0.7-0.2C152.1,54.8,146.8,42.3,137.5,28.8z"/>
				<path id="Trazado_224" class="st14" d="M146.9,57.3c-2.4-1.7-12.2-6-19.1-7.6s-12.4-1.4-17.5-1.9c-5.1-0.5-19.7-1.6-23.5-1.8
					c-3.9-0.2-9.8-1.7-7.5-4.3c1.4-1.6,3.9,1.3,8.4,1.8c4.5,0.5,20.9,1.2,26.5,1.2c5.6,0.1,10.9-0.5,20.4,0.6
					c9.5,1.1,16.1,2.4,18.9,5.3c2.7,3,8.8,8.9,12.7,22.4s4,17.4,4,17.4s-1.7-8-10-19.3S150.2,59.6,146.9,57.3z"/>
				
					<ellipse id="Elipse_18" transform="matrix(-0.8263 0.5632 -0.5632 -0.8263 260.4278 -16.1774)" class="st15" cx="132.7" cy="32.1" rx="5.8" ry="29.7"/>
				<g id="Grupo_124-2" transform="translate(70.953 6.732)" class="st16">
					<path id="Trazado_225" class="st14" d="M45,0.8c-0.1,0-0.1,0.1-0.2,0.2C44.9,0.9,45,0.9,45,0.8z"/>
					<path id="Trazado_226" class="st14" d="M56.9,28.6c-8.9-13-14.1-25.1-12.2-27.6l0,0C42,3.8,16.9,27.7-1.3,34.7
						c-2.1,0.8-4.8,9.9,6.1,25.5s17.1,20.1,19.9,18.9C27.5,78,25.4,67,77.8,50.1l0,0C74.5,50.4,65.5,41.2,56.9,28.6z"/>
					<path id="Trazado_227" class="st14" d="M78.5,49.9c-0.1,0-0.1,0.1-0.2,0.1C78.3,50,78.4,49.9,78.5,49.9z"/>
					<path id="Trazado_228" class="st14" d="M78.2,50c-0.1,0-0.1,0-0.2,0C78,50.1,78.1,50.1,78.2,50z"/>
				</g>
				<path id="Trazado_229" class="st13" d="M37.2,33.3c3.6-1.4,4.8-0.2,6.4,0.9s4.5,1.9,5.9,2.8s3,2.6,6.2,2.8
					c3.2,0.2,5.6-0.4,7.8-0.1c1.3,0.2,4.4,1,6.6,1.5l7.8-3.8l-3.5-11.8l-38.5,0L37.2,33.3z"/>
				<path id="Trazado_230" class="st13" d="M109.4,13.7c0,0-8.5,7.5-14.2,12s0.7-12,0.7-12L109.4,13.7z"/>
				<path id="Trazado_231" class="st17" d="M115.7,7.8c0,0-8-0.7-11-0.9c-3-0.2-7.3-2.4-9.4-2.4c-2.1,0-4.3,0.9-9,1
					c-4.8,0.2-17.6-0.3-21.9-0.8S51.5,1.4,47.7,0.9s-15.6,0.7-24,1.8l0,0c0,0-4.3,9.1-3.7,17.6c0.5,8.5,9.3,10.4,12.3,15.9
					c6.7-2.4,4.9-3,10.2-4.2c5.3-1.2,7.1-0.2,10.2,1.4c0,0,5.2,2.2,8.9,1.8c4.9-0.6,11.7,1.2,14.3,1.8s10.7,2.1,14.2,4.2
					c3.5,2.1,5.1,4,5.8,5.5s0.8,3.4,3.1,6.8c2.3,3.4,5.7,7.3,9.2,7.7c3.5,0.4,5.9-3.5,6.1-4.6s0.2-3.3-1.9-7.2s-4.6-8.2-5.9-9.8
					s-7.9-9.6-8.3-10.7s-1.8-4.2-0.2-7.1s2.6-4.2,4-4.8c1.4-0.7,5.2-1.4,6.1-2.3L115.7,7.8z"/>
				<path id="Trazado_232" class="st18" d="M104.5,54.6c2.1-1.1,4-2.4,5.8-4c0,0,4.1,3.5,3.9,7s-4.6,4.4-5.5,3.8
					C106.6,59.7,105.1,57.3,104.5,54.6z"/>
				<path id="Trazado_233" class="st12" d="M109.4,13.7l-3,6.9c0,0,6.1-4.6,8.4-7.6c1.3-1.6,2.1-3.6,2.1-5.7
					C116.8,7.3,116.7,6.5,109.4,13.7z"/>
				<path id="Trazado_234" class="st17" d="M137.5,28.8c0,0-0.5-4.6-5.7-10.1c-3.3-3.4-6.8-6.4-10.6-9.1v0
					C125.5,13,131.6,20.1,137.5,28.8z"/>
				<path id="Trazado_235" class="st19" d="M170.1,90.5c-0.3-1.1-0.6-2.2-1-3.2c-0.1-0.2-0.1-0.4-0.2-0.6l0-0.1
					c-0.1-0.2-0.1-0.4-0.2-0.5l-0.1-0.2c-0.1-0.2-0.2-0.4-0.3-0.6l0-0.1c-0.1-0.3-0.2-0.5-0.3-0.8c0,0,0-0.1,0-0.1
					c-0.1-0.2-0.2-0.5-0.3-0.7c0-0.1-0.1-0.2-0.1-0.2c-0.1-0.2-0.2-0.4-0.3-0.6l-0.1-0.3c-0.1-0.2-0.2-0.4-0.3-0.7l-0.1-0.2
					c-0.2-0.3-0.3-0.6-0.5-0.9c0,0-0.1-0.1-0.1-0.2c-0.1-0.3-0.3-0.5-0.4-0.8c-0.1-0.1-0.1-0.2-0.2-0.3c-0.1-0.2-0.3-0.5-0.4-0.7
					l-0.2-0.4c-0.1-0.2-0.3-0.5-0.4-0.7c-0.1-0.1-0.1-0.2-0.2-0.3c-0.2-0.4-0.4-0.7-0.7-1.1l-0.1-0.1c-0.2-0.3-0.4-0.7-0.6-1
					c-0.1-0.1-0.2-0.2-0.2-0.4c-0.2-0.3-0.3-0.5-0.5-0.8l-0.3-0.4c-0.2-0.3-0.4-0.5-0.6-0.8c-0.1-0.1-0.2-0.2-0.3-0.4
					c-0.3-0.4-0.6-0.8-0.9-1.2c-0.3-0.3-0.5-0.7-0.8-1l-0.3-0.4l-0.4-0.6l-0.3-0.4l-0.4-0.5l-0.3-0.4l-0.4-0.5l-0.3-0.4l-0.3-0.4
					l-0.3-0.3c-0.1-0.1-0.2-0.3-0.3-0.4l-0.3-0.3l-0.3-0.4l-0.3-0.3l-0.3-0.3c-0.1-0.1-0.2-0.2-0.2-0.3c-0.1-0.1-0.2-0.2-0.3-0.3
					l-0.2-0.3c-0.1-0.1-0.2-0.2-0.2-0.3l-0.2-0.3c-0.1-0.1-0.2-0.2-0.2-0.3l-0.2-0.2l-0.2-0.2l-0.2-0.2l-0.2-0.2l-0.2-0.2
					c-0.1-0.1-0.1-0.1-0.2-0.2s-0.1-0.1-0.2-0.2l-0.2-0.2l-0.2-0.2l-0.2-0.2l-0.2-0.2l-0.2-0.2l-0.1-0.1c-0.1-0.1-0.1-0.1-0.2-0.2
					l-0.1-0.1c-0.1-0.1-0.1-0.1-0.2-0.2l-0.1-0.1l-0.2-0.2l-0.1-0.1l-0.2-0.1l-0.1-0.1c-0.1,0-0.1-0.1-0.2-0.1l-0.1-0.1l-0.2-0.1
					l-0.1-0.1l-0.2-0.1l-0.1,0l-0.2-0.2l0,0l-0.2-0.2l0,0c-0.5-0.3-1-0.7-1.5-1l-0.9,0.3c0,0,10.1,6.9,19.2,31
					C167.7,94.8,171.1,99.9,170.1,90.5z"/>
			</g>
		</g>
	</g>
</g>
</svg>
