<?xml version="1.0" encoding="utf-8"?>
<!-- Generator: Adobe Illustrator 24.0.1, SVG Export Plug-In . SVG Version: 6.00 Build 0)  -->
<svg version="1.1" id="Capa_1" xmlns="http://www.w3.org/2000/svg" xmlns:xlink="http://www.w3.org/1999/xlink" x="0px" y="0px"
	 viewBox="0 0 100 100" style="enable-background:new 0 0 100 100;" xml:space="preserve">
<style type="text/css">
	.st0{fill:none;stroke:#A4A4A4;stroke-width:5;stroke-linecap:round;stroke-linejoin:round;}
</style>
<g id="Grupo_70" transform="translate(-373.346 -249.859)">
	<g id="Group_58_1_">
		<g id="Group_58-2_1_">
			<circle id="Ellipse_5_1_" class="st0" cx="423.4" cy="299.9" r="45"/>
		</g>
	</g>
	<g id="Grupo_69">
		<path id="Trazado_125" class="st0" d="M434.1,326.7v-10.5l4-9.8v-24.3c-0.1-7.1-5.9-12.9-13-12.8c-7,0.1-12.7,5.8-12.8,12.8v18.3
			l0-8.8c0-2.3-1.9-4.1-4.2-4.1c-2.3,0-4.1,1.9-4.1,4.1v8.8l2.9,10.7l7.4,5.4v10.2"/>
		<line id="Línea_16" class="st0" x1="440.1" y1="318.4" x2="451.1" y2="318.4"/>
		<line id="Línea_17" class="st0" x1="442.7" y1="312.2" x2="446.6" y2="310.8"/>
		<line id="Línea_18" class="st0" x1="442.7" y1="324.6" x2="446.6" y2="326"/>
		<line id="Línea_19" class="st0" x1="406.6" y1="318.4" x2="395.6" y2="318.4"/>
		<line id="Línea_20" class="st0" x1="404" y1="324.6" x2="400.1" y2="326"/>
		<circle id="Elipse_6" class="st0" cx="424.1" cy="319.4" r="3.9"/>
	</g>
</g>
</svg>
