<?xml version="1.0" encoding="utf-8"?>
<!-- Generator: Adobe Illustrator 24.0.1, SVG Export Plug-In . SVG Version: 6.00 Build 0)  -->
<svg version="1.1" id="Capa_1" xmlns="http://www.w3.org/2000/svg" xmlns:xlink="http://www.w3.org/1999/xlink" x="0px" y="0px"
	 viewBox="0 0 327.6 100" style="enable-background:new 0 0 327.6 100;" xml:space="preserve">
<style type="text/css">
	.st0{fill:#333333;}
</style>
<path id="Trazado_57" class="st0" d="M39.9,99.5L26.2,46.4L37.8,0.9H26.3c-0.5,3.1-1.1,6.3-1.8,9.7s-1.3,6.7-1.9,9.8
	s-1.2,5.9-1.7,8.4c-0.4,1.7-0.7,3.4-0.9,5.2c-0.2-1.7-0.5-3.5-0.9-5.2c-0.5-2.5-1.1-5.2-1.7-8.4c-0.6-3.1-1.2-6.4-1.9-9.8
	c-0.6-3.4-1.2-6.7-1.7-9.7H2.1l11.4,45.9L0,99.5h11.2c0.8-4,1.7-8.2,2.6-12.5c0.9-4.3,1.8-8.4,2.6-12.2c0.8-3.8,1.5-7.2,2.1-10.1
	c0.6-3,1-5.1,1.1-6.4c0.2,1.3,0.6,3.5,1.2,6.4c0.6,3,1.4,6.4,2.2,10.2c0.8,3.8,1.7,7.9,2.6,12.2c0.9,4.3,1.8,8.4,2.5,12.4H39.9z
	 M86.2,99.5L74,0.9H61.2L48.3,99.5h10.9c0.3-2.7,0.6-5.2,0.9-7.7c0.2-2.5,0.6-5,1-7.6h12.1l1.9,15.2L86.2,99.5z M62.2,74
	c0.9-7.3,1.8-14.7,2.7-22.2c0.9-7.5,1.6-15,2.3-22.7c0.7,7.7,1.5,15.2,2.3,22.6s1.6,14.8,2.6,22.3H62.2z M114.5,99.5
	c5.4,0,9.5-1.3,12.1-4c2.7-2.7,4-6.9,4-12.7V58.7c0-3.2-0.6-5.6-1.9-7.2c-1.1-1.5-2.7-2.6-4.6-3.1c3.5-1.4,5.2-4.9,5.2-10.5v-20
	c0-6-1.1-10.4-3.4-13.1c-2.2-2.7-6.1-4.1-11.5-4.1h-16v98.7h16.1V99.5z M119.1,39.1c0,3.4-1.5,5.1-4.5,5.1h-5V12h4.9
	c1.3-0.1,2.6,0.3,3.6,1.2c0.7,0.8,1.1,2.3,1.1,4.4L119.1,39.1z M119.4,82.7c0,3.8-1.6,5.7-4.9,5.7h-4.9V54h5
	c1.4-0.1,2.7,0.3,3.7,1.3c0.7,0.8,1.1,2.3,1.1,4.5L119.4,82.7z M155.9,99.5V0.9h-11.1v98.7H155.9z M187,99.5
	c10.6,0,15.9-5.6,15.9-16.9v-65c0-5.3-1.3-9.5-3.9-12.4c-2.6-3-6.6-4.4-11.9-4.4h-15.6v98.7L187,99.5z M191.9,82.7
	c0,3.8-1.6,5.7-4.9,5.7h-4.5V12h4.5c3.2,0,4.9,1.9,4.9,5.7V82.7z M233.5,99.5c5.4,0,9.5-1.3,12.1-4c2.7-2.7,4-6.9,4-12.7V58.7
	c0-3.2-0.6-5.6-1.9-7.2c-1.1-1.5-2.7-2.6-4.6-3.1c3.5-1.4,5.2-4.9,5.2-10.5v-20c0-6-1.1-10.4-3.4-13.1c-2.2-2.7-6.1-4.1-11.5-4.1
	h-16v98.7L233.5,99.5z M238.1,39.1c0,3.4-1.5,5.1-4.5,5.1h-5V12h4.9c1.3-0.1,2.6,0.3,3.6,1.2c0.7,0.8,1.1,2.3,1.1,4.4L238.1,39.1z
	 M238.3,82.7c0,3.8-1.6,5.7-4.9,5.7h-4.9V54h5c1.4-0.1,2.7,0.3,3.7,1.3c0.7,0.8,1.1,2.3,1.1,4.5L238.3,82.7z"/>
</svg>
