<svg xmlns="http://www.w3.org/2000/svg" viewBox="0 0 250.45 149.21"><defs><style>.cls-1,.cls-4{fill:none;stroke:#ccc;stroke-miterlimit:10;}.cls-1{stroke-width:0.35px;}.cls-2{opacity:0.8;}.cls-3{fill:#fff;}.cls-4{stroke-dasharray:4 4;}.cls-5{font-size:9.93px;font-family:MyriadPro-Regular, Myriad Pro;}.cls-5,.cls-6{fill:#ccc;}</style></defs><title>Recurso 1</title><g id="Capa_2" data-name="Capa 2"><g id="Capa_1-2" data-name="Capa 1"><line class="cls-1" x1="31.32" y1="19.85" x2="11.19" y2="19.85"/><line class="cls-1" x1="31.32" y1="102.71" x2="11.19" y2="102.71"/><line class="cls-1" x1="51.45" y1="73.7" x2="16.16" y2="73.7"/><line class="cls-1" x1="31.32" y1="93.12" x2="16.16" y2="93.12"/><g class="cls-2"><path class="cls-3" d="M229.6,84H52.5c-.43,0-.78-.25-.78-.55s.35-.55.78-.55H229.6c.43,0,.78.24.78.55S230,84,229.6,84Z"/></g><g class="cls-2"><path class="cls-3" d="M60.89,101.64c-.14.61-.45.91-.92.91a.63.63,0,0,1-.53-.28l-.33-.64a2.43,2.43,0,0,1-1.83,1,1.41,1.41,0,0,1-.56-.12,1.25,1.25,0,0,1-.51-.39,2.2,2.2,0,0,1-.37-.72,3.78,3.78,0,0,1-.14-1.1A2.19,2.19,0,0,1,57,98.07a4.08,4.08,0,0,1,.85-.41,3.62,3.62,0,0,0,.71-.29A1.41,1.41,0,0,0,59,96.9a1.89,1.89,0,0,0,.17-.94v-.37c0-.1,0-.17,0-.21l-.35-.92a1,1,0,0,0-.39-.45,1,1,0,0,0-.58-.14.47.47,0,0,0-.4.22,3,3,0,0,0-.32.49,5.26,5.26,0,0,1-.3.49.41.41,0,0,1-.35.22.34.34,0,0,1-.25-.15.49.49,0,0,1-.12-.32,1,1,0,0,1,.2-.58,2.48,2.48,0,0,1,.52-.5,3.27,3.27,0,0,1,.7-.35,2.28,2.28,0,0,1,.75-.13,2.51,2.51,0,0,1,1,.16,1.31,1.31,0,0,1,.62.49,2.33,2.33,0,0,1,.34.89,6.82,6.82,0,0,1,.11,1.29c0,.08,0,.21,0,.39s0,.36,0,.54,0,.37,0,.54,0,.3,0,.38,0,.35,0,.61,0,.45,0,.6v.64c0,.11,0,.21,0,.29s0,.16,0,.22a4.32,4.32,0,0,0,.06.87.72.72,0,0,0,.15.34.28.28,0,0,0,.19.07A.42.42,0,0,1,60.89,101.64Zm-1.75-2.59c0-.54,0-1-.07-1.47a2.51,2.51,0,0,1-.33.23l-.33.2-.42.25c-.16.09-.37.22-.62.39s-.57,1-.57,2.07a1,1,0,0,0,.12.44,2.31,2.31,0,0,0,.28.48,2.16,2.16,0,0,0,.37.37.56.56,0,0,0,.34.15C58.73,102.16,59.14,101.12,59.14,99.05Z"/><path class="cls-3" d="M67.23,94.13a.82.82,0,0,1-.11.42.35.35,0,0,1-.3.18.49.49,0,0,1-.17-.06l-.26-.11-.26-.12a.43.43,0,0,0-.17-.06.75.75,0,0,0-.56.27,2.31,2.31,0,0,0-.41.67,4.53,4.53,0,0,0-.26.9,5.21,5.21,0,0,0-.09.93c0,.2,0,.4,0,.62s0,.45,0,.69,0,.68,0,1,0,.59,0,.86c0,.48,0,.89,0,1.24a2.23,2.23,0,0,0,.22.84c0,.17-.18.25-.45.25a2.17,2.17,0,0,1-1.07-.19,3,3,0,0,0,.13-.3.79.79,0,0,0,0-.15V94.37a2.18,2.18,0,0,0-.17-.21c0-.06-.09-.1-.12-.14s0-.12.15-.19a1.22,1.22,0,0,1,.41-.18l.72-.2a.35.35,0,0,1,.07.22c0,.1,0,.22,0,.35a2.56,2.56,0,0,0,0,.39.9.9,0,0,0,.09.35,1.45,1.45,0,0,0,.16-.27,3.22,3.22,0,0,1,.33-.53,3.37,3.37,0,0,1,.49-.51,1,1,0,0,1,.62-.22.52.52,0,0,1,.28.08.94.94,0,0,1,.28.21,1.23,1.23,0,0,1,.22.29A.68.68,0,0,1,67.23,94.13Z"/><path class="cls-3" d="M75,97.73a14.16,14.16,0,0,1-.17,2.35,4.53,4.53,0,0,1-.52,1.56,2.11,2.11,0,0,1-.91.89,3.14,3.14,0,0,1-1.36.27c-.8,0-1.37-.49-1.7-1.46a15,15,0,0,1-.49-4.41,5.36,5.36,0,0,1,0-.59c0-.25.08-.55.15-.89a2.77,2.77,0,0,1,.13-.48,3,3,0,0,1,.2-.4c.08-.12.17-.25.28-.39l.39-.47a.75.75,0,0,1,.19-.14,4.5,4.5,0,0,1,.42-.19,5.6,5.6,0,0,1,.57-.17,3,3,0,0,1,.67-.08.55.55,0,0,1,.19.06l.3.12.3.13a1,1,0,0,1,.2.12,1.76,1.76,0,0,1,.48.64,5.31,5.31,0,0,1,.35,1,10.3,10.3,0,0,1,.21,1.22C75,96.84,75,97.28,75,97.73Zm-1.1.67a13.18,13.18,0,0,0-.12-1.83,9.87,9.87,0,0,0-.34-1.5,3.28,3.28,0,0,0-.49-1,.82.82,0,0,0-.62-.38.88.88,0,0,0-.64.23,1.38,1.38,0,0,0-.36.63,4.79,4.79,0,0,0-.16,1c0,.37-.05.77-.08,1.21,0,.06,0,.18-.06.35a2.41,2.41,0,0,0,0,.4c0,.05,0,.14,0,.25a3.6,3.6,0,0,1,0,.36c0,.12,0,.24,0,.35s0,.2,0,.26v.37c0,.27,0,.48,0,.61a2.66,2.66,0,0,0,0,.35l.09.31a2.74,2.74,0,0,1,.12.45,2.73,2.73,0,0,0,.47,1.12,1,1,0,0,0,.81.36.91.91,0,0,0,.66-.19,1.32,1.32,0,0,0,.28-.7l.1-.59a8.49,8.49,0,0,0,.17-1.19C73.87,99.22,73.88,98.82,73.88,98.4Z"/><path class="cls-3" d="M84.39,102.57a1.62,1.62,0,0,1-.41.06l-.22,0-.47-.09.11-.18a1.26,1.26,0,0,0,.09-.26c0-.11,0-.28.06-.5s0-.52,0-.92c0-.07,0-.19,0-.34s0-.32,0-.49,0-.34,0-.49,0-.27,0-.35,0-.32,0-.54v-2c0-1.69-.31-2.54-.93-2.54s-.77.87-.77,2.61c0,.09,0,.24,0,.44s0,.35,0,.45v2.2c0,.09,0,.23,0,.42s0,.38,0,.58,0,.39,0,.57,0,.32,0,.41a3.58,3.58,0,0,0,.26.92.69.69,0,0,1-.47.13l-.4,0-.68-.09.11-.31a.64.64,0,0,0,.08-.27V95.73a3.47,3.47,0,0,0-.25-1.3,1.41,1.41,0,0,0-.29-.43.5.5,0,0,0-.36-.16c-.28,0-.49.26-.64.78a8.67,8.67,0,0,0-.22,2.4v3.07c0,.25,0,.51,0,.81s0,.62,0,1l.2.56a.74.74,0,0,1-.42.17,2.58,2.58,0,0,1-1.13-.17l.14-.42a1.17,1.17,0,0,0,.08-.25,1.62,1.62,0,0,0,0-.18V94.52c0-.12-.11-.28-.32-.48,0-.16.17-.27.42-.34l.87-.25a.41.41,0,0,1,.07.13l.13.32.17-.11a2.61,2.61,0,0,1,.32-.2,3.61,3.61,0,0,1,.44-.21,1.32,1.32,0,0,1,.48-.09.69.69,0,0,1,.35.13c.12.09.23.19.33.28l.26.28c.08.09.12.14.15.14s.08-.07.18-.21l.17-.21A1.62,1.62,0,0,1,83,93.23c1.12,0,1.67.91,1.67,2.73,0,.13,0,.31,0,.54s0,.48,0,.74,0,.51,0,.74,0,.41,0,.51,0,.21,0,.37,0,.33,0,.52,0,.36,0,.53,0,.29,0,.36v.25c0,.1,0,.21,0,.32s0,.21,0,.31v.25a4.73,4.73,0,0,0,.11,1.06Z"/><path class="cls-3" d="M92.75,101.64c-.15.61-.45.91-.93.91a.62.62,0,0,1-.52-.28l-.33-.64a2.46,2.46,0,0,1-1.84,1,1.45,1.45,0,0,1-.56-.12,1.32,1.32,0,0,1-.51-.39,2,2,0,0,1-.36-.72,3.46,3.46,0,0,1-.14-1.1,2.18,2.18,0,0,1,1.27-2.26,3.91,3.91,0,0,1,.86-.41,3.51,3.51,0,0,0,.7-.29,1.25,1.25,0,0,0,.47-.47A1.88,1.88,0,0,0,91,96c0-.16,0-.28,0-.37a.91.91,0,0,0,0-.21l-.35-.92a1,1,0,0,0-.38-.45,1.08,1.08,0,0,0-.59-.14.49.49,0,0,0-.4.22,3.78,3.78,0,0,0-.32.49,3.73,3.73,0,0,1-.29.49.42.42,0,0,1-.35.22.36.36,0,0,1-.26-.15.49.49,0,0,1-.12-.32,1,1,0,0,1,.21-.58,2.26,2.26,0,0,1,.52-.5,3.05,3.05,0,0,1,.7-.35,2.24,2.24,0,0,1,.75-.13,2.45,2.45,0,0,1,1,.16,1.31,1.31,0,0,1,.62.49,2.33,2.33,0,0,1,.34.89,6.82,6.82,0,0,1,.11,1.29c0,.08,0,.21,0,.39s0,.36,0,.54,0,.37,0,.54,0,.3,0,.38,0,.35,0,.61,0,.45,0,.6v.64a2.53,2.53,0,0,1,0,.29v.22a4.32,4.32,0,0,0,.06.87.64.64,0,0,0,.14.34.28.28,0,0,0,.19.07A.49.49,0,0,1,92.75,101.64ZM91,99.05a13.18,13.18,0,0,0-.07-1.47,2,2,0,0,1-.33.23c-.1.06-.21.12-.32.2l-.42.25a7,7,0,0,0-.62.39c-.39.29-.58,1-.58,2.07a1,1,0,0,0,.12.44,2.36,2.36,0,0,0,.29.48,1.81,1.81,0,0,0,.36.37.58.58,0,0,0,.34.15C90.58,102.16,91,101.12,91,99.05Z"/><path class="cls-3" d="M98.29,102.1a.77.77,0,0,1-.16.11l-.3.17-.3.16a.62.62,0,0,1-.18.07h-.41a1.35,1.35,0,0,1-.52-.23,1.9,1.9,0,0,1-.54-.45,1.71,1.71,0,0,1-.29-.53,2.07,2.07,0,0,1-.12-.61c0-.22,0-.46,0-.71V98.16c0-.23,0-.43,0-.61s0-.33,0-.47,0-.53,0-.78,0-.41,0-.62,0-.36,0-.47v-.09a2.62,2.62,0,0,0,0-.37c0-.14,0-.3-.05-.48a.26.26,0,0,0-.13-.06l-.18,0-.18,0a.2.2,0,0,1-.13-.08,1.2,1.2,0,0,1,.2-.21,3.87,3.87,0,0,1,.37-.28,1.62,1.62,0,0,0,.51-.5,3.65,3.65,0,0,0,.34-.6,5.37,5.37,0,0,0,.22-.59,3.7,3.7,0,0,1,.18-.46c0,.16.07.84.11,2l.08.06.16.09.16.08.1,0h.55l0,.36c-.06.1-.12.14-.17.14l-.16,0-.13,0h-.19c-.33,0-.49.24-.49.72v.69c0,.31,0,.63,0,1s0,.67,0,1v.71a2.22,2.22,0,0,1,0,.54c0,.12,0,.24.06.38s0,.29,0,.43,0,.28,0,.5,0,.37,0,.47v.35a.92.92,0,0,0,.11.34,2,2,0,0,0,.24.42,2.08,2.08,0,0,0,.29.35.42.42,0,0,0,.26.15l.09,0,.18-.11.18-.1.1-.05h.21Z"/><path class="cls-3" d="M102.2,102.44a1.44,1.44,0,0,1-.59.19l-.36,0-.59-.1a1.84,1.84,0,0,0,.22-.56c0-.32,0-.69,0-1.11s0-.85,0-1.29,0-.85,0-1.27,0-.78,0-1.1,0-.57,0-.76,0-.29,0-.28c0-.2,0-.41,0-.63s0-.43,0-.62a3.64,3.64,0,0,0-.09-.53.85.85,0,0,0-.15-.33,1.13,1.13,0,0,1,.61-.37l.67-.2a1.2,1.2,0,0,1,.08.36c0,.14,0,.31,0,.49s0,.41,0,.65,0,.53.06.85v.35c0,.14,0,.26,0,.35s0,.19,0,.3,0,.24,0,.41,0,.4,0,.71,0,.71,0,1.2,0,1.1,0,1.85c0,0,0,.12,0,.27s0,.3,0,.48,0,.33.06.47A1.17,1.17,0,0,0,102.2,102.44Zm0-10.9c0,.57-.24.86-.71.86s-.6-.28-.6-.84.21-1,.63-1a.58.58,0,0,1,.48.29A1.16,1.16,0,0,1,102.17,91.54Z"/><path class="cls-3" d="M109.46,94.7c0,.26-.09.39-.26.39s-.19-.07-.26-.2l-.23-.43a1.5,1.5,0,0,0-.33-.43.91.91,0,0,0-1.16,0,2,2,0,0,0-.43.62,4.42,4.42,0,0,0-.3.87,7.94,7.94,0,0,0-.2,1c-.05.33-.09.64-.11,1s0,.56,0,.78a1.76,1.76,0,0,0,0,.19l0,.25c0,.09,0,.18,0,.26a1.91,1.91,0,0,1,0,.2,5.13,5.13,0,0,0,.16,1.13,3.56,3.56,0,0,0,.38.95,2.06,2.06,0,0,0,.54.65,1.08,1.08,0,0,0,.67.24.75.75,0,0,0,.33-.09,1.41,1.41,0,0,0,.34-.22,2.5,2.5,0,0,0,.32-.33,2.28,2.28,0,0,0,.27-.39.24.24,0,0,1,.11.08,1,1,0,0,1-.24.54,2.63,2.63,0,0,1-.49.51,3.13,3.13,0,0,1-.6.37,1.48,1.48,0,0,1-.55.14,1.75,1.75,0,0,1-.56-.1,2,2,0,0,1-.63-.32,3,3,0,0,1-.59-.63,3.21,3.21,0,0,1-.46-1l-.15-.9a6.14,6.14,0,0,1-.19-1.38c0-.06,0-.37.11-.93v-.55a1.32,1.32,0,0,1,0-.3c.47-2.15,1.38-3.23,2.74-3.23a2.08,2.08,0,0,1,.6.09,1.76,1.76,0,0,1,.53.27,1.24,1.24,0,0,1,.38.41A.94.94,0,0,1,109.46,94.7Z"/><path class="cls-3" d="M122.38,98.43a7.93,7.93,0,0,1-.16,1.56,5.68,5.68,0,0,1-.44,1.32,3,3,0,0,1-.67.91,1.24,1.24,0,0,1-.85.35,1.56,1.56,0,0,1-1.34-1,.28.28,0,0,0-.16.29,3,3,0,0,0,0,.39,3.37,3.37,0,0,1,0,.5,6.92,6.92,0,0,1,0,.89c0,.23-.05.35-.05.36a2,2,0,0,0,.27,1,.4.4,0,0,1-.26.14,1.81,1.81,0,0,1-.32,0,1.45,1.45,0,0,0-.33-.06.66.66,0,0,0-.22.06,1,1,0,0,1-.23,0l-.17,0-.16,0,.17-.28a1.54,1.54,0,0,1,.1-.19.16.16,0,0,0,0-.09V96.09c0-.22,0-.41,0-.56v-.41a2.35,2.35,0,0,0,0-.28,1.28,1.28,0,0,0,0-.27,3.11,3.11,0,0,0-.12-.3l-.19-.37.81-.34a1.21,1.21,0,0,1,.4-.13h.25c0,.13.06.24.08.34s0,.19,0,.27l.19-.19a2.5,2.5,0,0,1,.28-.22,1.82,1.82,0,0,1,.37-.18,1.73,1.73,0,0,1,.48-.07l.21,0,.29.06.27.08a.26.26,0,0,1,.15.08,4.64,4.64,0,0,1,.52.92,7.42,7.42,0,0,1,.41,1.18,13.08,13.08,0,0,1,.25,1.33A9.12,9.12,0,0,1,122.38,98.43Zm-1.2.89a15.28,15.28,0,0,0-.11-1.93,11.93,11.93,0,0,0-.33-1.7,5.14,5.14,0,0,0-.48-1.2c-.19-.3-.38-.45-.59-.45a.54.54,0,0,0-.5.31,4.44,4.44,0,0,0-.33.86v.3c0,.15,0,.33,0,.52s0,.41,0,.65a.64.64,0,0,1,0,.15.61.61,0,0,0,0,.16c0,.06,0,.15,0,.27s0,.23,0,.35,0,.23,0,.34,0,.2,0,.28v.53a.71.71,0,0,1,0,.14V99a1.58,1.58,0,0,1,0,.28c0,.11,0,.2,0,.26a3.34,3.34,0,0,0,.11.89,2.87,2.87,0,0,0,.3.76,1.93,1.93,0,0,0,.46.55.87.87,0,0,0,.56.21.52.52,0,0,0,.42-.24,1.93,1.93,0,0,0,.3-.61,4,4,0,0,0,.19-.85A7.42,7.42,0,0,0,121.18,99.32Z"/><path class="cls-3" d="M125.87,102.52a2,2,0,0,1-.44,0l-.36-.07a1.4,1.4,0,0,0,.22-.8,3.51,3.51,0,0,0,0-.37,3.46,3.46,0,0,1,0-.38c0-.1,0-.26,0-.46s0-.43,0-.66,0-.45,0-.66,0-.35,0-.45,0-.29,0-.4,0-.23,0-.36,0-.3,0-.5,0-.45,0-.78V96c0-.22,0-.48,0-.78V93.54c0-.15,0-.3,0-.46s0-.32,0-.47v-.87a2.18,2.18,0,0,0-.38-.37q0-.24.21-.24l.48-.07.1,0,.18-.09.18-.08.1,0h.28l0,10.73a2.51,2.51,0,0,0,.27,1Z"/><path class="cls-3" d="M134.51,101.64c-.14.61-.45.91-.92.91a.63.63,0,0,1-.53-.28l-.33-.64a2.43,2.43,0,0,1-1.83,1,1.38,1.38,0,0,1-.56-.12,1.25,1.25,0,0,1-.51-.39,2,2,0,0,1-.37-.72,3.78,3.78,0,0,1-.14-1.1,2.18,2.18,0,0,1,1.27-2.26,4.14,4.14,0,0,1,.86-.41,3.62,3.62,0,0,0,.71-.29,1.41,1.41,0,0,0,.47-.47,2,2,0,0,0,.17-.94v-.37c0-.1,0-.17,0-.21l-.35-.92A1,1,0,0,0,132,94a1,1,0,0,0-.58-.14.47.47,0,0,0-.4.22,3,3,0,0,0-.32.49,5.26,5.26,0,0,1-.3.49.42.42,0,0,1-.35.22.34.34,0,0,1-.25-.15.49.49,0,0,1-.12-.32,1,1,0,0,1,.2-.58,2.48,2.48,0,0,1,.52-.5,3.27,3.27,0,0,1,.7-.35,2.28,2.28,0,0,1,.75-.13,2.42,2.42,0,0,1,1,.16,1.34,1.34,0,0,1,.63.49,2.33,2.33,0,0,1,.34.89,6.9,6.9,0,0,1,.1,1.29v.39c0,.17,0,.36,0,.54s0,.37,0,.54v.38c0,.15,0,.35,0,.61s0,.45,0,.6v.93a1.86,1.86,0,0,0,0,.22,4.32,4.32,0,0,0,.06.87.72.72,0,0,0,.15.34.28.28,0,0,0,.19.07A.42.42,0,0,1,134.51,101.64Zm-1.75-2.59c0-.54,0-1-.07-1.47a2.51,2.51,0,0,1-.33.23L132,98l-.42.25c-.16.09-.37.22-.62.39s-.57,1-.57,2.07a1,1,0,0,0,.12.44,2.31,2.31,0,0,0,.28.48,2.55,2.55,0,0,0,.36.37.61.61,0,0,0,.35.15C132.35,102.16,132.76,101.12,132.76,99.05Z"/><path class="cls-3" d="M141.86,102.5a5.8,5.8,0,0,1-.77.12,5.6,5.6,0,0,1-.68,0,.6.6,0,0,1-.3-.14l.15-.19.2-.26s0-.14,0-.32,0-.4,0-.64,0-.47,0-.71,0-.44,0-.58V96.09a3.5,3.5,0,0,0-.09-.8,3.38,3.38,0,0,0-.24-.7,1.84,1.84,0,0,0-.34-.49.56.56,0,0,0-.39-.19A.76.76,0,0,0,139,94a1.27,1.27,0,0,0-.22.26,2.23,2.23,0,0,0-.24.4,3.25,3.25,0,0,0-.19.44,1.12,1.12,0,0,0-.08.32v5a1.93,1.93,0,0,0,0,.24l.07.26a1.37,1.37,0,0,0-.07.49,3.72,3.72,0,0,0,.18,1,3.81,3.81,0,0,1-1.13.19,1.41,1.41,0,0,1-.43-.12,4.55,4.55,0,0,0,.23-1.16V95.17c0-.16,0-.31,0-.46a2.24,2.24,0,0,0-.08-.39.53.53,0,0,0-.16-.26s.09-.08.2-.15l.38-.2a4.16,4.16,0,0,1,.4-.16.87.87,0,0,1,.25-.07.12.12,0,0,1,.12.08.51.51,0,0,1,.09.16c0,.06.05.11.07.16a.1.1,0,0,0,.1.08l.56-.38a1.42,1.42,0,0,1,.78-.21,2.9,2.9,0,0,1,1,.13,1,1,0,0,1,.54.54,3.16,3.16,0,0,1,.23,1.14c0,.49,0,1.13,0,1.92v3.35c0,.24,0,.49,0,.74s0,.55,0,.89Z"/><path class="cls-3" d="M147.47,102.1a.45.45,0,0,1-.15.11l-.3.17a3.07,3.07,0,0,1-.31.16.51.51,0,0,1-.17.07h-.41a1.37,1.37,0,0,1-.53-.23,2,2,0,0,1-.53-.45,1.71,1.71,0,0,1-.29-.53,2.07,2.07,0,0,1-.12-.61c0-.22,0-.46,0-.71V98.16c0-.23,0-.43,0-.61v-.47c0-.27,0-.53,0-.78s0-.41,0-.62,0-.36,0-.47v-.09a2.62,2.62,0,0,0,0-.37q0-.21-.06-.48a.23.23,0,0,0-.12-.06l-.18,0-.18,0a.2.2,0,0,1-.13-.08,1.07,1.07,0,0,1,.19-.21l.38-.28a1.62,1.62,0,0,0,.51-.5,3.57,3.57,0,0,0,.33-.6,5.5,5.5,0,0,0,.23-.59,3.7,3.7,0,0,1,.18-.46c0,.16.06.84.1,2l.09.06.16.09.16.08.1,0h.55l0,.36c-.06.1-.12.14-.17.14l-.16,0-.14,0h-.18c-.33,0-.49.24-.49.72v.69c0,.31,0,.63,0,1s0,.67,0,1v.71a2.22,2.22,0,0,1,0,.54c0,.12,0,.24.06.38s0,.29,0,.43,0,.28,0,.5,0,.37,0,.47v.35a1.59,1.59,0,0,0,.11.34,3.5,3.5,0,0,0,.24.42,2.72,2.72,0,0,0,.3.35.4.4,0,0,0,.25.15l.1,0L147,102l.18-.1a.26.26,0,0,1,.09-.05h.21Z"/><path class="cls-3" d="M160.52,94.24c0,.33-.2.59-.61.8t0,.33q0,.28.06.6c0,.21,0,.41.05.58a2.75,2.75,0,0,1,0,.29,4.43,4.43,0,0,1-.46,2.24,2.21,2.21,0,0,1-1.48,1l-.17.08a.46.46,0,0,1-.21.07h-.22l-.31,0-.31,0-.23,0c-.11,0-.19.09-.23.27s.23.37.62.56l.7.14c1.73.41,2.6,1.07,2.6,2s-.77,1.56-2.29,2a3,3,0,0,1-.47.12,1.47,1.47,0,0,1-.33,0,3.68,3.68,0,0,1-1-.13,2.65,2.65,0,0,1-.83-.39,1.94,1.94,0,0,1-.56-.62,1.58,1.58,0,0,1-.21-.81,2.62,2.62,0,0,1,.05-.52,1,1,0,0,1,.18-.43,2.39,2.39,0,0,1,.42-.46c.18-.16.44-.37.76-.62l-.42-.36a.76.76,0,0,1-.3-.49.42.42,0,0,1,.3-.37l.42-.19A4.16,4.16,0,0,1,155,96.9a5,5,0,0,1,.21-1.5,3.36,3.36,0,0,1,.58-1.15,2.55,2.55,0,0,1,.88-.73,2.45,2.45,0,0,1,1.14-.26,1.53,1.53,0,0,1,.7.16,3.47,3.47,0,0,1,.6.34c.18.12.33.24.47.34a.6.6,0,0,0,.33.16,1.34,1.34,0,0,0,.46-.28h.14Zm-1.39,9a1.17,1.17,0,0,0-.21-.66,2.17,2.17,0,0,0-.54-.55,3.13,3.13,0,0,0-.72-.39,2.3,2.3,0,0,0-.75-.14,1.09,1.09,0,0,0-.9.46,1.91,1.91,0,0,0-.35,1.23v.23a1.25,1.25,0,0,0,.22.8,1.16,1.16,0,0,0,.21.15l.34.16a2.44,2.44,0,0,0,.34.14,1.32,1.32,0,0,0,.25,0h.48a1.44,1.44,0,0,0,.55-.12,2.37,2.37,0,0,0,.53-.33,2.28,2.28,0,0,0,.39-.48A1.05,1.05,0,0,0,159.13,103.21Zm-.07-5.48a8.19,8.19,0,0,0-.13-1.54,5.39,5.39,0,0,0-.35-1.24,2.43,2.43,0,0,0-.57-.83,1.08,1.08,0,0,0-.75-.3.81.81,0,0,0-.52.2,1.82,1.82,0,0,0-.4.55,3.48,3.48,0,0,0-.26.77,4.43,4.43,0,0,0-.08.9,2.3,2.3,0,0,0,0,.36c0,.14,0,.29.09.47a6.78,6.78,0,0,0,.62,2c.25.47.52.7.81.7a3.08,3.08,0,0,0,.76-.06.56.56,0,0,0,.3-.22,1.37,1.37,0,0,0,.24-.45,3.16,3.16,0,0,0,.16-.59A3.79,3.79,0,0,0,159.06,97.73Z"/><path class="cls-3" d="M166.71,94.13a.73.73,0,0,1-.11.42.33.33,0,0,1-.29.18.43.43,0,0,1-.17-.06l-.27-.11-.25-.12a.49.49,0,0,0-.17-.06.73.73,0,0,0-.56.27,2.31,2.31,0,0,0-.41.67,4,4,0,0,0-.26.9,5.21,5.21,0,0,0-.09.93c0,.2,0,.4,0,.62v1.67c0,.3,0,.59,0,.86,0,.48,0,.89.05,1.24a2.06,2.06,0,0,0,.22.84c0,.17-.18.25-.46.25a2.12,2.12,0,0,1-1.06-.19c.05-.12.1-.22.13-.3a.79.79,0,0,0,.05-.15V94.37c-.07-.08-.12-.16-.17-.21l-.13-.14a.35.35,0,0,1,.15-.19,1.32,1.32,0,0,1,.41-.18l.73-.2a.35.35,0,0,1,.07.22c0,.1,0,.22,0,.35s0,.26,0,.39a1.11,1.11,0,0,0,.1.35,2.54,2.54,0,0,0,.16-.27,3.22,3.22,0,0,1,.33-.53,2.94,2.94,0,0,1,.49-.51,1,1,0,0,1,.62-.22.52.52,0,0,1,.28.08,1.08,1.08,0,0,1,.28.21,1.23,1.23,0,0,1,.22.29A.79.79,0,0,1,166.71,94.13Z"/><path class="cls-3" d="M174.46,97.73a14.28,14.28,0,0,1-.16,2.35,4.53,4.53,0,0,1-.52,1.56,2.13,2.13,0,0,1-.92.89,3.07,3.07,0,0,1-1.35.27c-.81,0-1.37-.49-1.7-1.46a14.66,14.66,0,0,1-.49-4.41,5.36,5.36,0,0,1,.05-.59c0-.25.08-.55.15-.89a2.09,2.09,0,0,1,.13-.48,2.14,2.14,0,0,1,.2-.4,3.68,3.68,0,0,1,.28-.39l.38-.47a.88.88,0,0,1,.2-.14,4.5,4.5,0,0,1,.42-.19,4.93,4.93,0,0,1,.57-.17,2.93,2.93,0,0,1,.67-.08.62.62,0,0,1,.19.06l.3.12.3.13a.9.9,0,0,1,.19.12,1.76,1.76,0,0,1,.48.64,4.67,4.67,0,0,1,.35,1,7.38,7.38,0,0,1,.21,1.22A11.73,11.73,0,0,1,174.46,97.73Zm-1.09.67a13.13,13.13,0,0,0-.13-1.83,8.85,8.85,0,0,0-.33-1.5,3.27,3.27,0,0,0-.5-1,.79.79,0,0,0-.61-.38.88.88,0,0,0-.64.23,1.38,1.38,0,0,0-.36.63,4.17,4.17,0,0,0-.16,1c0,.37-.06.77-.08,1.21l-.06.35a2.67,2.67,0,0,0-.05.4c0,.05,0,.14,0,.25s0,.23,0,.36l0,.35c0,.11,0,.2,0,.26v.37c0,.27,0,.48,0,.61a2.66,2.66,0,0,0,0,.35,2.12,2.12,0,0,0,.09.31q0,.15.12.45a2.73,2.73,0,0,0,.47,1.12,1,1,0,0,0,.8.36.93.93,0,0,0,.67-.19,1.4,1.4,0,0,0,.28-.7l.1-.59a8.49,8.49,0,0,0,.17-1.19C173.35,99.22,173.37,98.82,173.37,98.4Z"/><path class="cls-3" d="M184.22,93.48a4.12,4.12,0,0,0-.31.51c-.1.62-.32,1.63-.66,3.05s-.79,3.25-1.35,5.5h-.17a36.3,36.3,0,0,0-1.18-4.36.65.65,0,0,0-.19.36l-.92,4h-.15c-.09-.26-.2-.6-.31-1s-.24-.85-.36-1.32l-.36-1.43-.33-1.34c-.1-.4-.18-.75-.25-1l-.14-.58-.27-1.44s-.15-.35-.4-.9h.73a1.23,1.23,0,0,0,.69-.14l.25.08c0,.08,0,.16-.06.22a1.42,1.42,0,0,0,0,.16.56.56,0,0,0,0,.12,1.56,1.56,0,0,0,0,.35c0,.13.06.29.1.48s.14.57.19.82.12.5.18.76.12.57.19.9.16.74.26,1.22c0,.19.06.38.1.58a1.24,1.24,0,0,0,.19.5c.05,0,.09-.07.12-.16a1.63,1.63,0,0,0,.05-.2l.1-.46c0-.18.08-.38.13-.59s.09-.4.13-.58.08-.4.14-.64c0,0,0-.11-.06-.29L180.1,96c0-.24-.12-.51-.19-.78l-.2-.78c-.06-.25-.11-.46-.16-.63a1.87,1.87,0,0,0-.1-.3l.37,0H181c0,.09,0,.17-.07.24s0,.13,0,.18,0,.1-.05.14a2.77,2.77,0,0,0,.09.5c.07.25.15.59.26,1,.05.19.11.47.19.85s.16.78.24,1.2l.25,1.21c.08.38.14.66.19.83a.85.85,0,0,0,.11-.21,4.24,4.24,0,0,0,.16-.52l.16-.85.33-1.34c.12-.45.22-.86.31-1.24s.17-.71.23-1a3.38,3.38,0,0,0,.09-.61,2.12,2.12,0,0,0,0-.42.21.21,0,0,1,.19-.13.88.88,0,0,1,.3.07A1.08,1.08,0,0,0,184.22,93.48Z"/><path class="cls-3" d="M188.26,102.44a1.47,1.47,0,0,1-.6.19l-.35,0-.6-.1a1.81,1.81,0,0,0,.23-.56v-1.11c0-.43,0-.85,0-1.29s0-.85,0-1.27,0-.78,0-1.1,0-.57,0-.76a2.39,2.39,0,0,1,0-.28c0-.2,0-.41,0-.63a5.87,5.87,0,0,0,0-.62,3.71,3.71,0,0,0-.08-.53.73.73,0,0,0-.16-.33,1.13,1.13,0,0,1,.61-.37l.68-.2a1.6,1.6,0,0,1,.08.36c0,.14,0,.31,0,.49s0,.41,0,.65,0,.53.06.85v.35c0,.14,0,.26,0,.35s0,.19,0,.3,0,.24,0,.41,0,.4,0,.71,0,.71,0,1.2V101s0,.12,0,.27,0,.3,0,.48,0,.33.05.47A1.71,1.71,0,0,0,188.26,102.44Zm0-10.9c0,.57-.23.86-.7.86s-.61-.28-.61-.84.21-1,.63-1a.58.58,0,0,1,.48.29A1.09,1.09,0,0,1,188.22,91.54Z"/><path class="cls-3" d="M195.8,102.5a6.2,6.2,0,0,1-.78.12,5.56,5.56,0,0,1-.67,0,.62.62,0,0,1-.31-.14l.15-.19.2-.26s0-.14,0-.32,0-.4,0-.64,0-.47,0-.71,0-.44,0-.58V96.09a3.5,3.5,0,0,0-.09-.8,2.51,2.51,0,0,0-.24-.7,2.09,2.09,0,0,0-.33-.49.6.6,0,0,0-.4-.19.76.76,0,0,0-.46.13,1.69,1.69,0,0,0-.22.26c-.08.12-.16.25-.24.4s-.14.3-.19.44a1,1,0,0,0-.07.32v5a1.52,1.52,0,0,0,0,.24l.07.26a1.64,1.64,0,0,0-.07.49,3.72,3.72,0,0,0,.18,1,3.75,3.75,0,0,1-1.12.19,1.45,1.45,0,0,1-.44-.12,4.69,4.69,0,0,0,.24-1.16V95.63c0-.14,0-.3,0-.46a3.44,3.44,0,0,0,0-.46,2.23,2.23,0,0,0-.09-.39.51.51,0,0,0-.15-.26s.08-.08.2-.15a2.69,2.69,0,0,1,.38-.2,3.2,3.2,0,0,1,.39-.16,1,1,0,0,1,.25-.07.15.15,0,0,1,.13.08.8.8,0,0,1,.08.16l.08.16c0,.06,0,.08.09.08s.34-.24.57-.38a1.41,1.41,0,0,1,.77-.21,2.86,2.86,0,0,1,1,.13.94.94,0,0,1,.55.54,3.66,3.66,0,0,1,.23,1.14c0,.49,0,1.13,0,1.92v2.58c0,.27,0,.53,0,.77s0,.49,0,.74,0,.55,0,.89Z"/><path class="cls-3" d="M203.91,94.24c0,.33-.2.59-.61.8t0,.33q0,.28.06.6c0,.21,0,.41.05.58a2.75,2.75,0,0,1,0,.29,4.43,4.43,0,0,1-.46,2.24,2.21,2.21,0,0,1-1.48,1l-.17.08a.46.46,0,0,1-.21.07h-.22l-.31,0-.31,0-.23,0c-.11,0-.19.09-.23.27s.23.37.62.56l.7.14c1.73.41,2.6,1.07,2.6,2s-.77,1.56-2.29,2a3,3,0,0,1-.47.12,1.47,1.47,0,0,1-.33,0,3.68,3.68,0,0,1-1-.13,2.65,2.65,0,0,1-.83-.39,1.83,1.83,0,0,1-.56-.62,1.58,1.58,0,0,1-.21-.81,2.62,2.62,0,0,1,.05-.52,1,1,0,0,1,.18-.43,2.39,2.39,0,0,1,.42-.46c.18-.16.44-.37.76-.62l-.42-.36a.76.76,0,0,1-.3-.49.42.42,0,0,1,.3-.37l.42-.19a4.16,4.16,0,0,1-1.07-2.9,5,5,0,0,1,.21-1.5,3.36,3.36,0,0,1,.58-1.15,2.55,2.55,0,0,1,.88-.73,2.45,2.45,0,0,1,1.14-.26,1.53,1.53,0,0,1,.7.16,3.47,3.47,0,0,1,.6.34c.18.12.33.24.47.34a.6.6,0,0,0,.33.16,1.34,1.34,0,0,0,.46-.28h.14Zm-1.39,9a1.17,1.17,0,0,0-.21-.66,2.17,2.17,0,0,0-.54-.55,3.13,3.13,0,0,0-.72-.39,2.3,2.3,0,0,0-.75-.14,1.09,1.09,0,0,0-.9.46,1.91,1.91,0,0,0-.35,1.23v.23a1.25,1.25,0,0,0,.22.8,1.16,1.16,0,0,0,.21.15l.34.16a2.44,2.44,0,0,0,.34.14l.25,0h.48a1.44,1.44,0,0,0,.55-.12,2.37,2.37,0,0,0,.53-.33,2.28,2.28,0,0,0,.39-.48A1.05,1.05,0,0,0,202.52,103.21Zm-.07-5.48a8.19,8.19,0,0,0-.13-1.54A5.39,5.39,0,0,0,202,95a2.43,2.43,0,0,0-.57-.83,1.08,1.08,0,0,0-.75-.3.81.81,0,0,0-.52.2,1.82,1.82,0,0,0-.4.55,3.48,3.48,0,0,0-.26.77,4.43,4.43,0,0,0-.09.9,2.38,2.38,0,0,0,0,.36c0,.14.05.29.09.47a6.78,6.78,0,0,0,.62,2c.25.47.52.7.81.7a3.08,3.08,0,0,0,.76-.06.56.56,0,0,0,.3-.22,1.37,1.37,0,0,0,.24-.45,3.16,3.16,0,0,0,.16-.59A3.79,3.79,0,0,0,202.45,97.73Z"/><path class="cls-3" d="M216.56,102.54l-.46,0a4.26,4.26,0,0,1-.51,0h-.31l-.27,0-.07-.51s-.05-.17-.11-.35-.14-.38-.24-.63l-.3-.81c-.11-.3-.22-.59-.34-.88s-.23-.57-.33-.84l-.28-.68a1,1,0,0,0-.49.86c0,.07,0,.19,0,.34s0,.32,0,.5,0,.33,0,.49,0,.27,0,.34c0,.25,0,.45,0,.61a3.58,3.58,0,0,1,0,.4c0,.11,0,.2,0,.28s0,.16,0,.26l0,.14c0,.05,0,.11,0,.18s0,.15.06.24l-.79.09-.74,0,0-.12.09-.22a1,1,0,0,0,.14-.29V91.92a1.59,1.59,0,0,0-.31-.5.52.52,0,0,1,.24-.16l.38-.15a3.11,3.11,0,0,1,.41-.11,2.68,2.68,0,0,1,.35,0c0,.25.08.55.1.88s0,.73,0,1.17c0,.13,0,.31,0,.51s0,.42,0,.61,0,.44,0,.72v.06a6.47,6.47,0,0,0,0,.73,2.61,2.61,0,0,1,0,.4v.54c0,.2,0,.41,0,.61l.09.19h.1c.33-.45.64-.88.93-1.3s.54-.8.76-1.13.39-.61.52-.83a2,2,0,0,0,.2-.38s0-.08,0-.15,0-.11,0-.13h.22a1.85,1.85,0,0,1,.3,0l.49,0a.45.45,0,0,1-.34.13q-.15.18-.36.48c-.14.19-.3.41-.48.68l-.4.76-.1.09a2.27,2.27,0,0,0-.21.28q-.1.16-.21.36a.72.72,0,0,0-.1.35s0,.1.07.24a5.55,5.55,0,0,0,.21.57l.34.86.75,2.19a8.94,8.94,0,0,0,.47,1.14C216.24,102,216.4,102.28,216.56,102.54Z"/><path class="cls-3" d="M220.67,102.44a1.44,1.44,0,0,1-.59.19l-.36,0-.59-.1a1.84,1.84,0,0,0,.22-.56c0-.32,0-.69,0-1.11s0-.85,0-1.29,0-.85,0-1.27,0-.78,0-1.1,0-.57,0-.76,0-.29,0-.28c0-.2,0-.41,0-.63s0-.43,0-.62a3.64,3.64,0,0,0-.09-.53.85.85,0,0,0-.15-.33,1.13,1.13,0,0,1,.61-.37l.67-.2a1.2,1.2,0,0,1,.08.36c0,.14,0,.31,0,.49s0,.41,0,.65,0,.53.06.85v.35c0,.14,0,.26,0,.35s0,.19,0,.3,0,.24,0,.41,0,.4,0,.71,0,.71,0,1.2,0,1.1,0,1.85c0,0,0,.12,0,.27s0,.3,0,.48,0,.33.06.47A1.17,1.17,0,0,0,220.67,102.44Zm0-10.9c0,.57-.24.86-.71.86s-.6-.28-.6-.84.21-1,.63-1a.58.58,0,0,1,.48.29A1.16,1.16,0,0,1,220.64,91.54Z"/><path class="cls-3" d="M226.4,102.1a.77.77,0,0,1-.16.11l-.3.17-.3.16a.46.46,0,0,1-.18.07h-.41a1.35,1.35,0,0,1-.52-.23,1.85,1.85,0,0,1-.53-.45,1.73,1.73,0,0,1-.3-.53,3,3,0,0,1-.12-.61c0-.22,0-.46,0-.71V97.55c0-.17,0-.33,0-.47s0-.53,0-.78,0-.41,0-.62,0-.36,0-.47v-.09c0-.11,0-.23,0-.37s0-.3-.06-.48a.23.23,0,0,0-.13-.06l-.17,0-.19,0a.22.22,0,0,1-.13-.08,1.77,1.77,0,0,1,.2-.21c.09-.08.22-.17.37-.28a1.77,1.77,0,0,0,.52-.5,4.46,4.46,0,0,0,.33-.6,5.37,5.37,0,0,0,.22-.59,3.7,3.7,0,0,1,.18-.46c0,.16.07.84.11,2l.09.06.15.09.16.08.1,0h.55l.05.36c-.06.1-.12.14-.18.14l-.16,0-.13,0h-.19c-.32,0-.49.24-.49.72,0,.14,0,.37,0,.69s0,.63,0,1,0,.67,0,1,0,.55,0,.71a1.57,1.57,0,0,1,0,.54,2.16,2.16,0,0,1,.06.38,3.1,3.1,0,0,1,0,.43c0,.12,0,.28,0,.5a4.67,4.67,0,0,0,0,.47v.35a1.17,1.17,0,0,0,.11.34,3.5,3.5,0,0,0,.24.42,2.08,2.08,0,0,0,.29.35.42.42,0,0,0,.26.15l.09,0a.87.87,0,0,0,.18-.11l.19-.1a.2.2,0,0,1,.09-.05h.21Z"/></g><g class="cls-2"><path class="cls-3" d="M223.72,56.29a.84.84,0,0,0-.39-.48c-.18-.08-.39,0-.64.33l-2.36,2.58c-.9,1-1.88,2-2.94,3.11S215.21,64,214,65.07a34.41,34.41,0,0,1-3.6,2.86,22.14,22.14,0,0,1-3.63,2,8.66,8.66,0,0,1-3.44.78,1.21,1.21,0,0,1-1.09-.53A2.46,2.46,0,0,1,202,68.8a9.35,9.35,0,0,1,.35-2,22.93,22.93,0,0,1,.85-2.54,7.25,7.25,0,0,0,1.51.38,12.89,12.89,0,0,0,1.88.13,7,7,0,0,0,3.54-1,15.9,15.9,0,0,0,3.18-2.38,14.36,14.36,0,0,0,2.36-2.91,6.52,6.52,0,0,0,1-2.58,5.31,5.31,0,0,0-.5-2.36,9,9,0,0,0-1.54-2.43,8.33,8.33,0,0,0-2.35-1.88,5.84,5.84,0,0,0-2.86-.76,5.58,5.58,0,0,0-2.6.76,15,15,0,0,0-2.89,2,21.66,21.66,0,0,0-2.83,3.06c-.64.83-1.23,1.72-1.8,2.63-.49.7-1,1.48-1.62,2.36l-2.25,3.33c-.77,1.16-1.56,2.29-2.35,3.41s-1.55,2.13-2.26,3a20.28,20.28,0,0,1-1.93,2.16,2.44,2.44,0,0,1-1.45.83q-.69,0-.27-1.41c.35-1,.79-2.1,1.3-3.41s1-2.59,1.48-3.86.9-2.42,1.27-3.46a10.37,10.37,0,0,0,.61-2.16,3.47,3.47,0,0,0-.5-2.25,6.39,6.39,0,0,0-1.59-1.61,18.66,18.66,0,0,0-2.17-1.33,16.45,16.45,0,0,1-2.2-1.38,40.47,40.47,0,0,0,2.25-4.64,16.23,16.23,0,0,0,1.19-4.59,6.07,6.07,0,0,0-.5-3.84,2.27,2.27,0,0,0-1.93-1.12,6.94,6.94,0,0,0-2.63.67,12.69,12.69,0,0,0-3,1.91,14.16,14.16,0,0,0-2.62,2.88,7.29,7.29,0,0,0-1.3,3.62,7.39,7.39,0,0,0,.18,2.8A7.16,7.16,0,0,0,178,51a7.47,7.47,0,0,0,1.56,1.66c.6.47,1.2.9,1.8,1.3-.42.57-.79,1.1-1.11,1.58-.11.18-.23.33-.34.49a1.75,1.75,0,0,0-.29.34c-.6.8-1.27,1.71-2,2.73s-1.51,2.07-2.33,3.14-1.63,2.11-2.46,3.13-1.61,1.94-2.36,2.76a18.84,18.84,0,0,1-2,2,2.67,2.67,0,0,1-1.48.73c-.43,0-.55-.37-.37-1.11s.65-1.77,1.11-2.91.93-2.33,1.43-3.58,1-2.52,1.51-3.79,1-2.45,1.38-3.54.74-2,1-2.78a8.45,8.45,0,0,0,.45-1.61,2.24,2.24,0,0,0-.79-1.63,8.58,8.58,0,0,0-1.91-1.48,4.58,4.58,0,0,0-2-.65c-.64,0-1,.25-1,.85a13.05,13.05,0,0,1-1,3.59c-.62,1.52-1.33,3.19-2.15,5-.91,1.51-2,3-3.15,4.64a44.24,44.24,0,0,1-3.6,4.29,27.18,27.18,0,0,1-3.49,3.13,5.13,5.13,0,0,1-2.79,1.23c-.28,0-.3-.41-.07-1.23a24.79,24.79,0,0,1,1.13-3.08c.53-1.24,1.14-2.6,1.83-4.09s1.34-2.92,2-4.29,1.15-2.57,1.59-3.61a9.85,9.85,0,0,0,.72-2.06,2.25,2.25,0,0,0-.8-1.63A8.64,8.64,0,0,0,156,49a4.64,4.64,0,0,0-2-.65.89.89,0,0,0-1.06.86,11.3,11.3,0,0,1-.66,2.53c-.37,1-.83,2.11-1.38,3.28-.17.38-.36.77-.54,1.16,0,0-.08.09-.12.15l-2,2.73c-.76,1-1.55,2.06-2.38,3.11s-1.68,2.09-2.55,3.11-1.67,1.93-2.43,2.74a19.23,19.23,0,0,1-2.09,1.93,2.88,2.88,0,0,1-1.49.72c-.49,0-.6-.46-.31-1.4q.63-1.76,1.69-4.61t2.28-6.2q1.21-3.33,2.51-6.8t2.41-6.42c1.66-.26,3.16-.48,4.48-.65a25.22,25.22,0,0,1,2.89-.25,8.09,8.09,0,0,1,2,.18,5.66,5.66,0,0,1,1,.35,1.93,1.93,0,0,1,.55.35.77.77,0,0,0,.56.17c.28,0,.46-.21.53-.62a2,2,0,0,0-.35-1.36A4.24,4.24,0,0,0,155.87,42a6.81,6.81,0,0,0-3.25-.63c-1.13,0-2.12,0-3,.1s-1.71.15-2.59.25c.49-1.27.87-2.34,1.13-3.21a14.08,14.08,0,0,0,.45-1.65,1.65,1.65,0,0,0-.45-1.16,7,7,0,0,0-1.32-1.28,14.54,14.54,0,0,0-1.77-1.15,9.41,9.41,0,0,0-1.81-.78,3.13,3.13,0,0,0-1.43-.15.7.7,0,0,0-.63.7,39.72,39.72,0,0,1-.72,4.47c-.33,1.57-.75,3.21-1.24,4.91l-1.64,0c-.57,0-1.19,0-1.86,0a12.42,12.42,0,0,1-2.57-.22,9.73,9.73,0,0,1-1.42-.43l.05-.12c.44-1.26.79-2.3,1.06-3.14s.41-1.37.45-1.6a1.75,1.75,0,0,0-.45-1.16,7.44,7.44,0,0,0-1.33-1.28,15,15,0,0,0-1.77-1.15,10.52,10.52,0,0,0-1.8-.8,3,3,0,0,0-1.43-.18.71.71,0,0,0-.64.7,39.65,39.65,0,0,1-1.19,6.65q-.93,3.54-2.14,7.12c-.82,2.39-1.67,4.74-2.57,7-.31.77-.6,1.52-.89,2.25l-.15.18q-.9,1.2-2,2.73c-.74,1-1.52,2.07-2.33,3.14s-1.63,2.11-2.46,3.13-1.62,1.94-2.36,2.76a18.84,18.84,0,0,1-2,2,2.7,2.7,0,0,1-1.48.73c-.43,0-.55-.37-.38-1.11s.66-1.77,1.12-2.91.93-2.33,1.43-3.58,1-2.52,1.51-3.79,1-2.45,1.37-3.54.74-2,1-2.78a10.36,10.36,0,0,0,.45-1.61,2.28,2.28,0,0,0-.79-1.63,8.81,8.81,0,0,0-1.91-1.48,4.58,4.58,0,0,0-2-.65c-.64,0-1,.25-1,.85a13.42,13.42,0,0,1-1,3.59c-.62,1.52-1.34,3.19-2.15,5-.92,1.51-2,3-3.15,4.64a44.24,44.24,0,0,1-3.6,4.29,27.21,27.21,0,0,1-3.5,3.13,5.11,5.11,0,0,1-2.78,1.23c-.28,0-.31-.41-.08-1.23A26.88,26.88,0,0,1,92,66.12c.53-1.24,1.14-2.6,1.83-4.09s1.34-2.92,2-4.29,1.14-2.57,1.59-3.61a9,9,0,0,0,.71-2.06,2.24,2.24,0,0,0-.79-1.63A8.88,8.88,0,0,0,95.36,49a4.72,4.72,0,0,0-2-.65.89.89,0,0,0-1.06.86,11.3,11.3,0,0,1-.66,2.53c-.37,1-.83,2.11-1.38,3.28s-1.12,2.39-1.72,3.64-1.18,2.47-1.72,3.64l-.12.25c-.6.65-1.27,1.32-2,2a27.27,27.27,0,0,1-3.76,2.94,21.49,21.49,0,0,1-4.37,2.18,13.79,13.79,0,0,1-4.77.85,4.9,4.9,0,0,1-4-1.55,6.87,6.87,0,0,1-1.4-4.06,18.59,18.59,0,0,1,.74-5.75,46.2,46.2,0,0,1,2.39-6.62A56.68,56.68,0,0,1,73,45.88a43.56,43.56,0,0,1,4.16-5.74,26,26,0,0,1,4.32-4.07,7,7,0,0,1,4-1.55q.63,0,.63.6a4.5,4.5,0,0,1-.4,1.6q-.39,1-1,2.31c-.45.87-.88,1.77-1.3,2.69a29,29,0,0,0-1.12,2.76A9,9,0,0,0,81.7,47a4.66,4.66,0,0,0,.5,2.71,4.32,4.32,0,0,0,1.38,1.55,2.58,2.58,0,0,0,1.43.5q.66,0,.66-.45A8.52,8.52,0,0,1,86,49.39c.19-.82.43-1.72.71-2.71s.6-2,.93-3.06.64-2,.93-3,.51-1.77.69-2.49a13.5,13.5,0,0,0,.31-1.53,7,7,0,0,0-1-4.71,4.35,4.35,0,0,0-3.23-1.52A13.11,13.11,0,0,0,83,25.14a9.67,9.67,0,0,0-6.23-3.29c-1.5-.2-3-.17-4.52-.38s-4.21-.53-4.41-2.31c0-.17-.29-.31-.38-.1a7.62,7.62,0,0,0,4.12,10,16,16,0,0,0,7.15,1.06,13.44,13.44,0,0,1,4.07.37A15,15,0,0,0,78,32.21a31.11,31.11,0,0,0-6.57,4.92,49.44,49.44,0,0,0-6,7,47.19,47.19,0,0,0-4.6,8,32.19,32.19,0,0,0-2.47,8,13.79,13.79,0,0,0,.48,7,9.49,9.49,0,0,0,4.16,4.92c2,1.24,4.9,1.85,8.6,1.85a14.78,14.78,0,0,0,4.93-.85,26.23,26.23,0,0,0,4.69-2.18,28.3,28.3,0,0,0,3.46-2.44,4.11,4.11,0,0,0,.48,1.86A6.09,6.09,0,0,0,86.7,72a6.46,6.46,0,0,0,1.85,1.11,4.79,4.79,0,0,0,1.62.37,6.08,6.08,0,0,0,2.49-.57,13.47,13.47,0,0,0,2.52-1.53,22.83,22.83,0,0,0,2.4-2.16c.78-.8,1.52-1.62,2.23-2.46A12.58,12.58,0,0,0,99.39,68a3.66,3.66,0,0,0-.16,1,3.19,3.19,0,0,0,.58,2.21,6.07,6.07,0,0,0,1.69,1.58,7,7,0,0,0,2,.87,2.85,2.85,0,0,0,1.46.1,6.64,6.64,0,0,0,2.67-1.22A24.65,24.65,0,0,0,110.56,70q1.48-1.45,3-3.21c1-1.16,1.88-2.28,2.7-3.38-.22.58-.44,1.14-.64,1.65a11.4,11.4,0,0,0-.84,3,4.62,4.62,0,0,0,.34,2.53,5.44,5.44,0,0,0,1.22,1.68,4.41,4.41,0,0,0,1.53.93,4.46,4.46,0,0,0,1.3.27,7.17,7.17,0,0,0,3.39-.9,17.08,17.08,0,0,0,3.31-2.33,32,32,0,0,0,3.1-3.16c.78-.91,1.5-1.81,2.18-2.7-.23.6-.45,1.17-.64,1.7a16.4,16.4,0,0,0-1,3.18,2.64,2.64,0,0,0,.69,2.16,5.71,5.71,0,0,0,1.91,1.25,9.17,9.17,0,0,0,2.17.6,12.51,12.51,0,0,0,1.48.15.55.55,0,0,0,.19,0,.48.48,0,0,1,.18,0,5.51,5.51,0,0,0,2.65-1.07,24.21,24.21,0,0,0,2.94-2.41,39.38,39.38,0,0,0,3-3.16l1.57-1.91-.25.6a10,10,0,0,0-.66,2.34,4.16,4.16,0,0,0,.48,2.4A6.06,6.06,0,0,0,147.29,72a6.51,6.51,0,0,0,1.86,1.11,4.7,4.7,0,0,0,1.61.37,6,6,0,0,0,2.49-.57,13.47,13.47,0,0,0,2.52-1.53,22.91,22.91,0,0,0,2.41-2.16q1.17-1.2,2.22-2.46c-.17.47-.31.9-.42,1.28a3.66,3.66,0,0,0-.16,1,3.19,3.19,0,0,0,.58,2.21,6.11,6.11,0,0,0,1.7,1.58,6.81,6.81,0,0,0,2,.87,2.85,2.85,0,0,0,1.46.1,6.74,6.74,0,0,0,2.68-1.22A24.65,24.65,0,0,0,171.16,70q1.47-1.45,3-3.21t2.73-3.41q1.25-1.65,2.22-3.06c.66-.93,1.16-1.65,1.51-2.16h0l1-1.24c.48-.6,1-1.27,1.46-2a8.28,8.28,0,0,1,1.64,1.38,2,2,0,0,1,.48,1.58,7.46,7.46,0,0,1-.85,2.36c-.53,1.07-1.11,2.23-1.75,3.46s-1.23,2.48-1.8,3.71a10,10,0,0,0-1,3.21,2.62,2.62,0,0,0,.69,2.16,5.69,5.69,0,0,0,1.9,1.26,9.3,9.3,0,0,0,2.17.6,12.62,12.62,0,0,0,1.49.15.48.48,0,0,0,.18,0l.14,0A5.6,5.6,0,0,0,189,73.54a19.85,19.85,0,0,0,2.81-2.63c.93-1,1.86-2.21,2.78-3.46l1.26-1.76c-.06.39-.12.79-.15,1.18a3.17,3.17,0,0,0,.66,2.06,10.07,10.07,0,0,0,2,2.18A11.67,11.67,0,0,0,201,72.82a6.61,6.61,0,0,0,2.78.67,9,9,0,0,0,3.84-.95,22.84,22.84,0,0,0,4.08-2.48,45.6,45.6,0,0,0,4-3.36c1.29-1.22,2.47-2.43,3.55-3.61s2-2.28,2.81-3.27,1.38-1.73,1.77-2.23a.89.89,0,0,0,.08-.55A2.57,2.57,0,0,0,223.72,56.29Zm-16.92.8a28.19,28.19,0,0,1,1.77-2.56,12.39,12.39,0,0,1,1.65-1.75,2.21,2.21,0,0,1,1.35-.66q.8,0,.66,1.08a5.88,5.88,0,0,1-1.06,2.46,12.83,12.83,0,0,1-2.49,2.68,8.33,8.33,0,0,1-3.63,1.76C205.62,59.06,206.2,58.06,206.8,57.09Zm-126.36-30a14.79,14.79,0,0,0-4.64-1.61,24.64,24.64,0,0,1-5-1.21,6.78,6.78,0,0,1-2.23-1.34,3.05,3.05,0,0,1-1-2.35h.08a2.85,2.85,0,0,0,1,2.16,6.59,6.59,0,0,0,2.2,1.14,24.08,24.08,0,0,0,4.94.93,11.81,11.81,0,0,1,5,1.56,7.76,7.76,0,0,1,3.29,4l-.08,0A10.23,10.23,0,0,0,80.44,27.06Zm54.83,26.82-1,2.6h0c-.57.8-1.21,1.7-1.94,2.68s-1.47,2-2.25,3-1.56,2-2.35,3-1.55,1.86-2.25,2.61a18.41,18.41,0,0,1-2,1.83,2.69,2.69,0,0,1-1.43.7c-.39,0-.53-.33-.43-1,.32-.94.73-2.1,1.25-3.49s1.06-2.89,1.66-4.51,1.24-3.32,1.91-5.09,1.33-3.52,2-5.24,1.25-3.39,1.85-5c.11-.3.22-.58.32-.86a6.19,6.19,0,0,0,.61.65,3.55,3.55,0,0,0,2.52.91c.49,0,1.11,0,1.85-.1l2.44-.25Q136.73,50.17,135.27,53.88ZM184,49.82a5,5,0,0,1-1-1.73,6,6,0,0,1-.21-2.29,8.94,8.94,0,0,1,.4-2.1,15.62,15.62,0,0,1,.82-2.18,8.41,8.41,0,0,1,1-1.73c.37-.47.72-.71,1-.71a.9.9,0,0,1,.85.55,4.73,4.73,0,0,1,.11,2.16,13.45,13.45,0,0,1-1,3.91A36.66,36.66,0,0,1,184,49.82Z"/></g><rect class="cls-4" x="51.45" y="19.97" width="179.21" height="82.62"/><rect class="cls-4" x="31.04" y="0.5" width="218.91" height="121.51"/><line class="cls-4" x1="31.81" y1="93.33" x2="230.65" y2="93.12"/><line class="cls-4" x1="51.26" y1="73.7" x2="230.93" y2="73.7"/><line class="cls-4" x1="230.65" y1="19.97" x2="250" y2="19.97"/><line class="cls-4" x1="51.45" y1="19.97" x2="32.1" y2="19.97"/><line class="cls-4" x1="51.45" y1="102.71" x2="32.1" y2="102.71"/><line class="cls-4" x1="230.65" y1="102.71" x2="250" y2="102.71"/><line class="cls-4" x1="230.65" y1="19.85" x2="230.65" y2="0.5"/><line class="cls-4" x1="51.45" y1="19.85" x2="51.45" y2="0.5"/><line class="cls-4" x1="51.45" y1="102.86" x2="51.45" y2="122.21"/><line class="cls-4" x1="230.65" y1="102.86" x2="230.65" y2="122.21"/><line class="cls-1" x1="16.43" y1="102.71" x2="16.43" y2="20"/><text class="cls-5" transform="translate(4.25 86.32)">n</text><text class="cls-5" transform="translate(0 100.83)">n/2</text><text class="cls-5" transform="translate(1.7 49.69)">3n</text><circle class="cls-6" cx="16.43" cy="73.7" r="0.83"/><circle class="cls-6" cx="16.43" cy="93.12" r="0.83"/><line class="cls-1" x1="51.72" y1="136.34" x2="230.38" y2="136.34"/><line class="cls-1" x1="51.45" y1="122.16" x2="51.45" y2="142.29"/><line class="cls-1" x1="230.65" y1="122.16" x2="230.65" y2="142.29"/><text class="cls-5" transform="translate(135.75 146.73)">9n</text></g></g></svg>