<svg xmlns="http://www.w3.org/2000/svg" viewBox="0 0 171.21 139.48"><defs><style>.cls-1{fill:#f1f1f1;}.cls-2{opacity:0.15;}</style></defs><title>Recurso 1</title><g id="Capa_2" data-name="Capa 2"><g id="Capa_1-2" data-name="Capa 1"><polygon class="cls-1" points="171.21 98.89 171.11 75.98 120.72 50.81 120.72 74.16 147.37 87.46 111.35 105.47 111.35 10.67 90.01 0 80.71 0 59.37 10.67 59.37 105.47 23.35 87.46 50.05 74.1 50.05 50.76 0 75.78 0 99.13 80.71 139.48 80.71 23.34 90.01 23.34 90.01 139.48 171.21 98.89"/><polygon class="cls-2" points="23.35 87.46 50.05 74.1 50.05 50.76 0 75.78 23.35 87.46"/><polygon class="cls-2" points="147.31 87.46 120.72 74.16 120.72 50.81 171.05 75.98 147.31 87.46"/><rect class="cls-2" x="80.71" width="9.3" height="23.35"/></g></g></svg>