<svg xmlns="http://www.w3.org/2000/svg" viewBox="0 0 56.32 54.73"><defs><style>.cls-1,.cls-2{fill:none;stroke:#fff;stroke-miterlimit:10;stroke-width:1.42px;}.cls-1,.cls-2,.cls-3{opacity:0.6;}.cls-2{stroke-linecap:round;}.cls-4{fill:#fff;}</style></defs><title>Recurso 1</title><g id="Capa_2" data-name="Capa 2"><g id="Capa_1-2" data-name="Capa 1"><path class="cls-1" d="M37.7,28.57a9.55,9.55,0,1,0-19.09,0V44.48a9.55,9.55,0,0,0,19.09,0Z"/><line class="cls-2" x1="28.16" y1="30.02" x2="28.16" y2="24.02"/><g class="cls-3"><path class="cls-4" d="M1,7.8a2.8,2.8,0,0,1-1-.5l.34-.59a3.09,3.09,0,0,0,.89.45,3.49,3.49,0,0,0,1.11.18,2.07,2.07,0,0,0,1.15-.25.77.77,0,0,0,.37-.67.61.61,0,0,0-.21-.49,1.31,1.31,0,0,0-.51-.27,8,8,0,0,0-.83-.18,8.63,8.63,0,0,1-1.1-.26A1.6,1.6,0,0,1,.5,4.77a1.26,1.26,0,0,1-.3-.89A1.41,1.41,0,0,1,.79,2.72a2.64,2.64,0,0,1,1.64-.45,4.09,4.09,0,0,1,1.09.15,2.68,2.68,0,0,1,.9.38l-.33.61a2.78,2.78,0,0,0-1.66-.49,2,2,0,0,0-1.1.26A.81.81,0,0,0,1,3.86a.66.66,0,0,0,.21.51,1.24,1.24,0,0,0,.52.28,7.37,7.37,0,0,0,.86.19,9.64,9.64,0,0,1,1.08.26,1.57,1.57,0,0,1,.7.44,1.2,1.2,0,0,1,.29.85A1.37,1.37,0,0,1,4,7.57,2.92,2.92,0,0,1,2.29,8,4.42,4.42,0,0,1,1,7.8Z"/><path class="cls-4" d="M6.86,7.64a2.68,2.68,0,0,1-1-1,2.94,2.94,0,0,1-.38-1.48,2.94,2.94,0,0,1,.38-1.48,2.63,2.63,0,0,1,1-1,3,3,0,0,1,1.49-.37,3,3,0,0,1,1.3.28,2.15,2.15,0,0,1,.91.83L10,3.77a1.72,1.72,0,0,0-.71-.63,2.05,2.05,0,0,0-.93-.21,2.28,2.28,0,0,0-1.1.28A2,2,0,0,0,6.49,4a2.41,2.41,0,0,0-.27,1.15,2.35,2.35,0,0,0,.27,1.15,2,2,0,0,0,.76.77,2.27,2.27,0,0,0,1.1.27,2,2,0,0,0,.93-.2A1.63,1.63,0,0,0,10,6.5l.57.39a2.21,2.21,0,0,1-.91.83A2.92,2.92,0,0,1,8.35,8,3.07,3.07,0,0,1,6.86,7.64Z"/><path class="cls-4" d="M13.57,2.56a2.76,2.76,0,0,1,1.31-.29V3H14.7a1.79,1.79,0,0,0-1.39.55,2.14,2.14,0,0,0-.5,1.53V8h-.76V2.31h.72V3.42A1.86,1.86,0,0,1,13.57,2.56Z"/><path class="cls-4" d="M17,7.63a2.73,2.73,0,0,1-1-1,2.94,2.94,0,0,1-.38-1.48A2.94,2.94,0,0,1,16,3.65a2.63,2.63,0,0,1,1-1,3.09,3.09,0,0,1,2.93,0,2.63,2.63,0,0,1,1,1,3,3,0,0,1,.36,1.48A3,3,0,0,1,21,6.61a2.73,2.73,0,0,1-1,1,3.09,3.09,0,0,1-2.93,0Zm2.54-.58a1.92,1.92,0,0,0,.75-.77,2.53,2.53,0,0,0,.26-1.15A2.53,2.53,0,0,0,20.33,4a1.92,1.92,0,0,0-.75-.77,2.2,2.2,0,0,0-2.15,0,1.92,1.92,0,0,0-.75.77,2.41,2.41,0,0,0-.27,1.15,2.41,2.41,0,0,0,.27,1.15,1.92,1.92,0,0,0,.75.77,2.28,2.28,0,0,0,2.15,0Z"/><path class="cls-4" d="M22.92,0h.76V8h-.76Z"/><path class="cls-4" d="M25.8,0h.76V8H25.8Z"/><path class="cls-4" d="M32.32,7.63a2.73,2.73,0,0,1-1-1,2.93,2.93,0,0,1-.37-1.48,2.93,2.93,0,0,1,.37-1.48,2.63,2.63,0,0,1,1-1,3.09,3.09,0,0,1,2.93,0,2.63,2.63,0,0,1,1,1,3,3,0,0,1,.36,1.48,3,3,0,0,1-.36,1.48,2.73,2.73,0,0,1-1,1,3.09,3.09,0,0,1-2.93,0Zm2.54-.58a1.92,1.92,0,0,0,.75-.77,2.53,2.53,0,0,0,.26-1.15A2.53,2.53,0,0,0,35.61,4a1.92,1.92,0,0,0-.75-.77,2.13,2.13,0,0,0-1.07-.28,2.17,2.17,0,0,0-1.08.28A1.92,1.92,0,0,0,32,4a2.41,2.41,0,0,0-.27,1.15A2.41,2.41,0,0,0,32,6.28a1.92,1.92,0,0,0,.75.77,2.16,2.16,0,0,0,1.08.27A2.13,2.13,0,0,0,34.86,7.05Z"/><path class="cls-4" d="M42.75,2.89a2.4,2.4,0,0,1,.63,1.79V8h-.76V4.76a1.86,1.86,0,0,0-.44-1.34A1.63,1.63,0,0,0,40.93,3a1.92,1.92,0,0,0-1.44.54A2,2,0,0,0,39,5V8H38.2V2.31h.72v1a2.17,2.17,0,0,1,.87-.8,2.84,2.84,0,0,1,1.28-.28A2.29,2.29,0,0,1,42.75,2.89Z"/><path class="cls-4" d="M46.31,7.64a2.71,2.71,0,0,1-1-1,2.93,2.93,0,0,1-.37-1.48,2.93,2.93,0,0,1,.37-1.48,2.66,2.66,0,0,1,1-1,2.94,2.94,0,0,1,1.49-.37,3,3,0,0,1,1.3.28,2.21,2.21,0,0,1,.91.83l-.57.39a1.79,1.79,0,0,0-.71-.63,2.05,2.05,0,0,0-.93-.21,2.28,2.28,0,0,0-1.1.28,2,2,0,0,0-.76.77,2.41,2.41,0,0,0-.27,1.15,2.35,2.35,0,0,0,.27,1.15,2,2,0,0,0,.76.77,2.27,2.27,0,0,0,1.1.27,2,2,0,0,0,.93-.2,1.69,1.69,0,0,0,.71-.62l.57.39a2.21,2.21,0,0,1-.91.83A2.92,2.92,0,0,1,47.8,8,3,3,0,0,1,46.31,7.64Z"/><path class="cls-4" d="M56.31,5.37H51.59a2,2,0,0,0,.68,1.41,2.2,2.2,0,0,0,1.54.54,2.49,2.49,0,0,0,1-.18,2.22,2.22,0,0,0,.77-.55l.42.49a2.34,2.34,0,0,1-.93.68A3.15,3.15,0,0,1,53.79,8a3.11,3.11,0,0,1-1.54-.37,2.75,2.75,0,0,1-1-1,2.94,2.94,0,0,1-.38-1.48,3,3,0,0,1,.36-1.48,2.6,2.6,0,0,1,1-1,2.85,2.85,0,0,1,2.81,0,2.55,2.55,0,0,1,1,1,3,3,0,0,1,.36,1.48ZM52.22,3.44a2,2,0,0,0-.63,1.36h4A2,2,0,0,0,55,3.44a2.06,2.06,0,0,0-2.74,0Z"/></g></g></g></svg>