<svg xmlns="http://www.w3.org/2000/svg" viewBox="0 0 131.74 49.42"><defs><style>.cls-1{fill:none;stroke:#fff;stroke-miterlimit:10;stroke-width:1.42px;}.cls-1,.cls-2{opacity:0.75;}.cls-3{fill:#fff;}</style></defs><title>Recurso 1</title><g id="Capa_2" data-name="Capa 2"><g id="Capa_1-2" data-name="Capa 1"><polygon class="cls-1" points="0.87 48.71 10.87 0.71 130.87 0.71 121.3 48.71 0.87 48.71"/><g class="cls-2"><path class="cls-3" d="M21.11,30.65a5.3,5.3,0,0,1-1.86-.95l.65-1.14a5.47,5.47,0,0,0,1.69.86,6.6,6.6,0,0,0,2.13.34,4,4,0,0,0,2.17-.46,1.45,1.45,0,0,0,.7-1.29,1.18,1.18,0,0,0-.38-.93,2.47,2.47,0,0,0-1-.51,13.56,13.56,0,0,0-1.57-.34,17.11,17.11,0,0,1-2.11-.5,3,3,0,0,1-1.35-.87,2.38,2.38,0,0,1-.57-1.69A2.68,2.68,0,0,1,20.76,21a5,5,0,0,1,3.12-.85,8.25,8.25,0,0,1,2.08.27,5.85,5.85,0,0,1,1.72.73L27,22.27a5.43,5.43,0,0,0-3.16-.92,3.73,3.73,0,0,0-2.09.49,1.52,1.52,0,0,0-.71,1.29,1.3,1.3,0,0,0,.4,1,2.63,2.63,0,0,0,1,.54c.4.11.94.23,1.63.35.86.17,1.55.33,2.07.49a3.18,3.18,0,0,1,1.32.84A2.31,2.31,0,0,1,28,28a2.6,2.6,0,0,1-1.17,2.23,5.59,5.59,0,0,1-3.26.83A8.32,8.32,0,0,1,21.11,30.65Z"/><path class="cls-3" d="M40.06,26h-9a3.86,3.86,0,0,0,1.29,2.7,4.27,4.27,0,0,0,2.94,1,4.56,4.56,0,0,0,1.83-.36,4,4,0,0,0,1.45-1.05l.82.94a4.63,4.63,0,0,1-1.79,1.31,6.38,6.38,0,0,1-5.28-.26,5.11,5.11,0,0,1-2-1.95,5.52,5.52,0,0,1-.72-2.81,5.72,5.72,0,0,1,.69-2.82A4.88,4.88,0,0,1,32.2,20.8a5.53,5.53,0,0,1,5.35,0,4.93,4.93,0,0,1,1.86,1.93,5.8,5.8,0,0,1,.67,2.83Zm-7.78-3.67a3.92,3.92,0,0,0-1.2,2.58H38.7a3.92,3.92,0,0,0-1.2-2.58,3.94,3.94,0,0,0-5.22,0Z"/><path class="cls-3" d="M52.39,26h-9a3.82,3.82,0,0,0,1.29,2.7,4.23,4.23,0,0,0,2.93,1,4.61,4.61,0,0,0,1.84-.36,4,4,0,0,0,1.45-1.05l.82.94A4.63,4.63,0,0,1,50,30.58a6,6,0,0,1-2.36.45,5.93,5.93,0,0,1-2.92-.71,5,5,0,0,1-2-1.95A5.52,5.52,0,0,1,42,25.56a5.82,5.82,0,0,1,.68-2.82,5,5,0,0,1,1.88-1.94,5.28,5.28,0,0,1,2.69-.69,5.21,5.21,0,0,1,2.67.69,4.93,4.93,0,0,1,1.86,1.93,5.8,5.8,0,0,1,.67,2.83ZM44.6,22.34a3.91,3.91,0,0,0-1.19,2.58H51a3.86,3.86,0,0,0-1.19-2.58,3.95,3.95,0,0,0-5.23,0Z"/><path class="cls-3" d="M77.28,21.27a4.68,4.68,0,0,1,1.15,3.43v6.22H77V24.84a3.69,3.69,0,0,0-.8-2.55,3,3,0,0,0-2.28-.88,3.45,3.45,0,0,0-2.63,1,4,4,0,0,0-1,2.85v5.63H68.86V24.84a3.65,3.65,0,0,0-.81-2.55,3,3,0,0,0-2.29-.88,3.44,3.44,0,0,0-2.62,1,4,4,0,0,0-1,2.85v5.63H60.72V20.19h1.39v2a3.8,3.8,0,0,1,1.59-1.51A4.92,4.92,0,0,1,66,20.11a4.61,4.61,0,0,1,2.34.57,3.51,3.51,0,0,1,1.48,1.69,4.18,4.18,0,0,1,1.7-1.66,5.31,5.31,0,0,1,2.55-.6A4.25,4.25,0,0,1,77.28,21.27Z"/><path class="cls-3" d="M84,30.32a5.1,5.1,0,0,1-2-1.95,5.86,5.86,0,0,1,0-5.63,5,5,0,0,1,2-1.94,5.63,5.63,0,0,1,2.79-.69,5.7,5.7,0,0,1,2.8.69,5,5,0,0,1,2,1.94,6,6,0,0,1,0,5.63,5.07,5.07,0,0,1-2,1.95,5.6,5.6,0,0,1-2.8.71A5.54,5.54,0,0,1,84,30.32Zm4.84-1.1a3.62,3.62,0,0,0,1.42-1.48,4.94,4.94,0,0,0,0-4.37,3.62,3.62,0,0,0-1.42-1.48,4.3,4.3,0,0,0-4.1,0,3.77,3.77,0,0,0-1.43,1.48,4.85,4.85,0,0,0,0,4.37,3.77,3.77,0,0,0,1.43,1.48,4.3,4.3,0,0,0,4.1,0Z"/><path class="cls-3" d="M98.12,20.66a5.11,5.11,0,0,1,2.5-.55v1.41l-.35,0a3.4,3.4,0,0,0-2.65,1,4.12,4.12,0,0,0-1,2.91v5.47H95.21V20.19H96.6v2.1A3.49,3.49,0,0,1,98.12,20.66Z"/><path class="cls-3" d="M112.48,26h-9a3.85,3.85,0,0,0,1.28,2.7,4.27,4.27,0,0,0,2.94,1,4.61,4.61,0,0,0,1.84-.36A4,4,0,0,0,111,28.33l.81.94A4.59,4.59,0,0,1,110,30.58a6.05,6.05,0,0,1-2.36.45,6,6,0,0,1-2.93-.71,5.11,5.11,0,0,1-2-1.95,5.51,5.51,0,0,1-.71-2.81,5.71,5.71,0,0,1,.68-2.82,4.94,4.94,0,0,1,1.88-1.94,5.55,5.55,0,0,1,5.36,0,5,5,0,0,1,1.85,1.93,5.81,5.81,0,0,1,.68,2.83Zm-7.79-3.67a3.86,3.86,0,0,0-1.19,2.58h7.61a3.91,3.91,0,0,0-1.19-2.58,3.71,3.71,0,0,0-2.63-1A3.65,3.65,0,0,0,104.69,22.34Z"/></g></g></g></svg>