<svg xmlns="http://www.w3.org/2000/svg" viewBox="0 0 253.21 102.14"><defs><style>.cls-1{fill:none;stroke:#fff;stroke-miterlimit:10;stroke-width:1.42px;}.cls-1,.cls-2{opacity:0.75;}.cls-3{fill:#fff;}</style></defs><title>Recurso 2</title><g id="Capa_2" data-name="Capa 2"><g id="Capa_1-2" data-name="Capa 1"><path class="cls-1" d="M202.15,101.43H51.07A50.36,50.36,0,0,1,.71,51.07h0A50.36,50.36,0,0,1,51.07.71H202.15a50.36,50.36,0,0,1,50.36,50.36h0A50.36,50.36,0,0,1,202.15,101.43Z"/><g class="cls-2"><path class="cls-3" d="M32.26,63.08a11.24,11.24,0,0,1-3.91-2l1.36-2.4a11.66,11.66,0,0,0,3.56,1.82,14.16,14.16,0,0,0,4.46.71,8.45,8.45,0,0,0,4.56-1,3.05,3.05,0,0,0,1.47-2.71A2.45,2.45,0,0,0,43,55.59a5.24,5.24,0,0,0-2.06-1.07,27.49,27.49,0,0,0-3.29-.71,36.33,36.33,0,0,1-4.41-1.05,6.42,6.42,0,0,1-2.85-1.82,5.05,5.05,0,0,1-1.18-3.56,5.59,5.59,0,0,1,2.35-4.62A10.59,10.59,0,0,1,38.07,41a16.88,16.88,0,0,1,4.37.58A11.83,11.83,0,0,1,46,43.06L44.7,45.5a11.37,11.37,0,0,0-6.63-1.93,7.73,7.73,0,0,0-4.39,1,3.14,3.14,0,0,0-1.48,2.7A2.67,2.67,0,0,0,33,49.35a5.06,5.06,0,0,0,2.08,1.14c.83.24,2,.49,3.43.75a37.47,37.47,0,0,1,4.33,1A6.4,6.4,0,0,1,45.65,54a4.84,4.84,0,0,1,1.15,3.43,5.46,5.46,0,0,1-2.46,4.69,11.75,11.75,0,0,1-6.83,1.73A17.25,17.25,0,0,1,32.26,63.08Z"/><path class="cls-3" d="M72,53.34H53.18A8.07,8.07,0,0,0,55.88,59a9,9,0,0,0,6.17,2.16,9.68,9.68,0,0,0,3.85-.75,8.33,8.33,0,0,0,3-2.2l1.72,2a9.66,9.66,0,0,1-3.75,2.74,12.66,12.66,0,0,1-4.95.94,12.43,12.43,0,0,1-6.14-1.48,10.54,10.54,0,0,1-4.18-4.09,11.63,11.63,0,0,1-1.5-5.9,12.09,12.09,0,0,1,1.44-5.92,10.33,10.33,0,0,1,3.94-4.06,11.55,11.55,0,0,1,11.24,0,10.45,10.45,0,0,1,3.9,4,12.24,12.24,0,0,1,1.41,5.94ZM55.69,45.65a8.18,8.18,0,0,0-2.51,5.42h16a8.18,8.18,0,0,0-2.51-5.42,8.26,8.26,0,0,0-11,0Z"/><path class="cls-3" d="M97.89,53.34H79.05A8,8,0,0,0,81.75,59a8.94,8.94,0,0,0,6.16,2.16,9.73,9.73,0,0,0,3.86-.75,8.33,8.33,0,0,0,3-2.2l1.71,2a9.7,9.7,0,0,1-3.74,2.74,12.69,12.69,0,0,1-5,.94,12.49,12.49,0,0,1-6.15-1.48,10.52,10.52,0,0,1-4.17-4.09A11.63,11.63,0,0,1,76,52.4a12.09,12.09,0,0,1,1.43-5.92,10.47,10.47,0,0,1,3.94-4.06A11,11,0,0,1,87,41a10.86,10.86,0,0,1,5.61,1.46,10.31,10.31,0,0,1,3.9,4,12.25,12.25,0,0,1,1.42,5.94ZM81.55,45.65a8.17,8.17,0,0,0-2.5,5.42H95a8.17,8.17,0,0,0-2.5-5.42,8.27,8.27,0,0,0-11,0Z"/><path class="cls-3" d="M150.11,43.4c1.62,1.63,2.42,4,2.42,7.2V63.66h-3V50.9a7.66,7.66,0,0,0-1.69-5.36A6.17,6.17,0,0,0,143,43.7a7.17,7.17,0,0,0-5.52,2.16,8.42,8.42,0,0,0-2,6V63.66h-3V50.9a7.66,7.66,0,0,0-1.69-5.36,6.25,6.25,0,0,0-4.82-1.84,7.19,7.19,0,0,0-5.5,2.16,8.39,8.39,0,0,0-2,6V63.66h-3V41.13h2.92v4.11a8.11,8.11,0,0,1,3.34-3.17A10.5,10.5,0,0,1,126.54,41a9.66,9.66,0,0,1,4.91,1.2,7.35,7.35,0,0,1,3.1,3.55,8.89,8.89,0,0,1,3.57-3.49A11.08,11.08,0,0,1,143.46,41,8.93,8.93,0,0,1,150.11,43.4Z"/><path class="cls-3" d="M164.23,62.39a10.7,10.7,0,0,1-4.11-4.09,12.39,12.39,0,0,1,0-11.82,10.62,10.62,0,0,1,4.11-4.06,12.51,12.51,0,0,1,11.73,0,10.44,10.44,0,0,1,4.09,4.06,12.54,12.54,0,0,1,0,11.82A10.51,10.51,0,0,1,176,62.39a12.36,12.36,0,0,1-11.73,0Zm10.17-2.31a7.68,7.68,0,0,0,3-3.1,10.36,10.36,0,0,0,0-9.17,7.61,7.61,0,0,0-3-3.1,9,9,0,0,0-8.61,0,7.72,7.72,0,0,0-3,3.1,10.19,10.19,0,0,0,0,9.17,7.79,7.79,0,0,0,3,3.1,9,9,0,0,0,8.61,0Z"/><path class="cls-3" d="M193.84,42.12A10.87,10.87,0,0,1,199.09,41v3l-.73-.05a7.2,7.2,0,0,0-5.57,2.19,8.68,8.68,0,0,0-2,6.12V63.66h-3V41.13h2.91v4.41A7.41,7.41,0,0,1,193.84,42.12Z"/><path class="cls-3" d="M224,53.34H205.13a8,8,0,0,0,2.7,5.67A8.94,8.94,0,0,0,214,61.17a9.68,9.68,0,0,0,3.85-.75,8.37,8.37,0,0,0,3-2.2l1.71,2a9.66,9.66,0,0,1-3.75,2.74,12.64,12.64,0,0,1-4.94.94,12.44,12.44,0,0,1-6.15-1.48,10.58,10.58,0,0,1-4.17-4.09,11.53,11.53,0,0,1-1.5-5.9,12.09,12.09,0,0,1,1.43-5.92,10.4,10.4,0,0,1,3.94-4.06A11,11,0,0,1,213.09,41a10.89,10.89,0,0,1,5.61,1.46,10.31,10.31,0,0,1,3.9,4A12.24,12.24,0,0,1,224,52.4Zm-16.34-7.69a8.17,8.17,0,0,0-2.5,5.42h16a8.17,8.17,0,0,0-2.5-5.42,8.27,8.27,0,0,0-11,0Z"/></g></g></g></svg>